<?xml version="1.0" standalone="no"?>
<!DOCTYPE svg PUBLIC "-//W3C//DTD SVG 1.1//EN" "http://www.w3.org/Graphics/SVG/1.1/DTD/svg11.dtd" >
<svg xmlns="http://www.w3.org/2000/svg" xmlns:xlink="http://www.w3.org/1999/xlink" version="1.1">
<metadata>
Created by FontForge 20170731 at Sat Jul 25 13:42:33 2015
 By Aleksey,,,
Copyright SIL International, all rights reserved
</metadata>
<defs>
<font id="PadaukSagar-Regular" horiz-adv-x="0" >
  <font-face 
    font-family="Padauk Sagar"
    font-weight="400"
    font-stretch="normal"
    units-per-em="1024"
    panose-1="2 0 6 0 2 0 0 2 0 4"
    ascent="819"
    descent="-205"
    x-height="494"
    cap-height="696"
    bbox="-738 -453 2252 973"
    underline-thickness="50"
    underline-position="-500"
    unicode-range="U+0020-AB9F"
  />
<missing-glyph horiz-adv-x="576" 
d="M520 459v-459h-465v459h465zM106 408v-357h365v357h-365z" />
    <glyph glyph-name=".notdef" horiz-adv-x="576" 
d="M520 459v-459h-465v459h465zM106 408v-357h365v357h-365z" />
    <glyph glyph-name=".null" 
 />
    <glyph glyph-name="nonmarkingreturn" horiz-adv-x="465" 
 />
    <glyph glyph-name="space" unicode=" " horiz-adv-x="378" 
 />
    <glyph glyph-name="exclam" unicode="!" horiz-adv-x="398" 
d="M199 -18q-32 0 -54.5 23.5t-22.5 53.5q0 32 22.5 55t54.5 23q33 0 55.5 -23.5t22.5 -54.5t-23 -54t-55 -23zM151 509q0 64 -3 99t-9 52t-17 21.5t-26 6.5v8h207v-8q-16 -2 -26.5 -6.5t-16.5 -21.5t-9 -52t-3 -99l-6 -322h-86z" />
    <glyph glyph-name="quotedbl" unicode="&#x22;" horiz-adv-x="474" 
d="M273 696h146l-45 -238h-57zM55 696h145l-44 -238h-57z" />
    <glyph glyph-name="numbersign" unicode="#" horiz-adv-x="587" 
d="M206 249h142l38 198h-142zM113 181h-120l12 68h120l38 198h-119l14 68h119l33 181h82l-37 -181h142l35 181h82l-35 -181h119l-11 -68h-120l-38 -198h118l-11 -68h-116l-38 -181h-82l36 181h-142l-35 -181h-82z" />
    <glyph glyph-name="dollar" unicode="$" horiz-adv-x="587" 
d="M265 7q-14 0 -32 0.5t-39 2.5t-41.5 8t-37.5 15l-9 119h9q7 -9 19 -19.5t29 -21.5t40.5 -18t55.5 -7q52 0 89.5 28t37.5 82q0 36 -20 61t-50 44.5t-64.5 37t-64.5 40.5t-50 56t-20 81q0 41 14.5 72.5t36 53t47.5 33t50 13.5v108h60v-100q24 -1 42 -5t31 -8.5t22 -8.5
t15 -4q5 0 8.5 1t7.5 3h8v-123h-8q-9 10 -21.5 21t-27.5 19.5t-35.5 14t-46.5 5.5q-49 0 -79 -26t-30 -65q0 -30 20 -50t50 -38t64.5 -36.5t64.5 -44t50 -61t20 -87.5q0 -50 -16 -85t-40 -57t-50.5 -33.5t-48.5 -15.5v-107h-60v102z" />
    <glyph glyph-name="percent" unicode="%" horiz-adv-x="928" 
d="M572 696h75l-304 -696h-75zM616 210q0 -28 4.5 -55t15 -49.5t27.5 -36.5t44 -14q28 0 45.5 15.5t27 38.5t13 50t3.5 52q0 23 -3.5 52t-12.5 53.5t-27 41.5t-46 17q-32 0 -50 -16.5t-27 -41t-11.5 -54t-2.5 -53.5zM707 -7q-42 0 -74 15.5t-53 43.5t-31 67t-10 87
q0 115 39 173t129 58q82 0 124 -56.5t42 -174.5q0 -58 -13 -98t-36 -66t-53.5 -37.5t-63.5 -11.5zM121 477q0 -27 4 -54.5t15 -50t27.5 -36t43.5 -13.5q29 0 46 15t27 38t13 50.5t3 51.5t-3 52.5t-12.5 53t-27 41.5t-46.5 17q-32 0 -50 -16.5t-27 -41t-11 -53.5t-2 -54z
M211 260q-42 0 -74 15.5t-53 43.5t-31 67t-10 87q0 115 39.5 173.5t128.5 58.5q83 0 125 -57t42 -175q0 -57 -13.5 -97.5t-36.5 -66t-53 -37.5t-64 -12z" />
    <glyph glyph-name="ampersand" unicode="&#x26;" horiz-adv-x="815" 
d="M602 365q14 -24 22.5 -54t8.5 -62q0 -45 -23 -92t-67 -86t-108 -64t-145 -25q-67 0 -117.5 17t-83.5 48t-50 72.5t-17 90.5q0 43 15 74t36.5 51.5t45.5 32t41 13.5v2q-15 8 -32 17.5t-31.5 24.5t-24 38.5t-9.5 60.5t15 71.5t41.5 61t65 42.5t85.5 16q17 0 32.5 -2.5
t29.5 -5.5q15 -4 25.5 -6.5t17.5 -2.5q3 0 6 1.5t6 3.5h8v-133h-8q-5 8 -11.5 18.5t-18 20t-29.5 17t-45 7.5q-21 0 -41.5 -8t-36 -22.5t-25.5 -35.5t-10 -48q0 -52 31 -80.5t73 -28.5q17 0 34.5 3t36.5 6l-38 -78q-13 2 -23.5 2.5t-22.5 0.5q-27 0 -51 -10.5t-42 -28.5
t-28 -42t-10 -50q0 -27 11 -53.5t32.5 -48t53 -35t70.5 -13.5q51 0 95 18t76.5 47.5t51.5 67.5t19 79q0 29 -9 51t-24 43q-16 1 -32 2.5t-31 1.5q-27 0 -43 -8t-30 -27h-13q12 21 22.5 40.5t26 34.5t41.5 23t69 8h139q41 0 65.5 3.5t39 10t23 16t19.5 23.5l11 -3l-25 -62
q-10 -21 -21 -34.5t-25 -20.5t-33 -9.5t-45 -2.5h-62z" />
    <glyph glyph-name="quotesingle" unicode="'" horiz-adv-x="284" 
d="M69 696h145l-44 -238h-57z" />
    <glyph glyph-name="parenleft" unicode="(" horiz-adv-x="303" 
d="M206 -207q-11 23 -31 65t-39.5 100t-34 132t-14.5 162q0 80 13.5 149.5t31.5 126t38 99t33 69.5h52q-4 -15 -15.5 -55t-23 -99t-21 -133t-9.5 -157q0 -117 22.5 -230.5t48.5 -228.5h-51z" />
    <glyph glyph-name="parenright" unicode=")" horiz-adv-x="303" 
d="M50 -207q26 115 48.5 228.5t22.5 230.5q0 83 -9.5 157t-21 133t-23 99t-15.5 55h52q13 -27 32.5 -69.5t38 -99t32 -126t13.5 -149.5q0 -88 -14.5 -162t-34 -132t-39.5 -100t-31 -65h-51z" />
    <glyph glyph-name="asterisk" unicode="*" horiz-adv-x="587" 
d="M271 507l-98 -62l-25 41l106 58l-106 56l24 41l99 -59v114h45v-114l99 59l24 -41l-107 -56l107 -58l-25 -41l-98 62v-116h-45v116z" />
    <glyph glyph-name="plus" unicode="+" horiz-adv-x="928" 
d="M423 302h-228v80h228v228h80v-228h229v-80h-229v-228h-80v228z" />
    <glyph glyph-name="comma" unicode="," horiz-adv-x="303" 
d="M110 97h145l-154 -226h-61z" />
    <glyph glyph-name="hyphen" unicode="-" horiz-adv-x="303" 
d="M36 294h228v-77h-228v77z" />
    <glyph glyph-name="period" unicode="." horiz-adv-x="303" 
d="M149 -18q-32 0 -54 23t-22 54q0 32 21.5 55t54.5 23q16 0 31 -6t25.5 -17t17 -25t6.5 -30q0 -32 -23.5 -54.5t-56.5 -22.5z" />
    <glyph glyph-name="slash" unicode="/" horiz-adv-x="512" 
d="M381 715h82l-329 -733h-82z" />
    <glyph glyph-name="zero" unicode="0" horiz-adv-x="587" 
d="M145 352q0 -64 9.5 -117.5t28 -91.5t46 -59t65.5 -21t65.5 21t46 59t27.5 91.5t9 117.5q0 62 -8.5 113.5t-26.5 88.5t-46 58t-67 21t-67 -21t-46 -58t-27 -88.5t-9 -113.5zM294 -18q-68 0 -115.5 26t-77.5 74t-44 117t-14 155q0 80 14.5 146.5t45 114.5t77.5 74t114 26
q65 0 113 -26t78.5 -74t45 -114.5t14.5 -146.5q0 -86 -14 -155t-44 -117t-78 -74t-115 -26z" />
    <glyph glyph-name="one" unicode="1" horiz-adv-x="587" 
d="M254 432q0 57 -2 92.5t-11 55.5t-28 27t-53 7v11l176 90h10v-502q0 -62 1.5 -99.5t7.5 -59t16 -31t29 -15.5v-8h-146v432z" />
    <glyph glyph-name="two" unicode="2" horiz-adv-x="587" 
d="M56 8l128 149q34 39 69 83.5t64.5 91.5t48 96.5t18.5 98.5q0 50 -32.5 78t-89.5 28q-38 0 -67.5 -6.5t-51 -16.5t-35.5 -20.5t-18 -19.5h-8v128h8q5 -2 11 -4t12 -2q5 0 17.5 3.5t33 8t49 8t65.5 3.5q100 0 154 -48.5t54 -138.5q0 -41 -15 -85.5t-38 -88.5t-51.5 -85.5
t-56 -77t-51.5 -64t-38 -45.5h113q40 0 65 1.5t41 6t25 15t16 28.5h11l-13 -133h-438v8z" />
    <glyph glyph-name="three" unicode="3" horiz-adv-x="587" 
d="M92 699q5 -2 10 -3.5t10 -1.5q9 0 21 3t28 7.5t38 7.5t52 3q106 0 164.5 -48.5t58.5 -141.5q0 -40 -11.5 -67.5t-29.5 -46t-41 -29t-45 -17.5v-3q24 -5 49.5 -14.5t46.5 -29.5t34.5 -52.5t13.5 -83.5q0 -48 -18 -85.5t-49.5 -63t-76 -38.5t-98.5 -13q-29 0 -51 2t-40.5 6
t-36 8t-38.5 9l-16 126h8q10 -11 25 -23.5t35 -22.5t45.5 -17t58.5 -7q32 0 59 9.5t47 26.5t32 41t12 55q0 27 -9.5 50.5t-27 41t-43 27.5t-58.5 10h-19t-19 -2v84q25 0 52.5 3t51 14t39 33.5t15.5 61.5q0 47 -35 81t-103 34q-33 0 -56.5 -6t-40 -16t-27 -20.5t-17.5 -20.5
h-9v129h9z" />
    <glyph glyph-name="four" unicode="4" horiz-adv-x="587" 
d="M149 225h218v288h-2zM364 0v151h-316v65l400 499h12v-490h70v-74h-70q0 -63 10 -98t43 -45v-8h-149z" />
    <glyph glyph-name="five" unicode="5" horiz-adv-x="587" 
d="M197 433q24 8 49.5 15.5t52.5 7.5q34 0 71 -11t68 -37.5t51.5 -70.5t20.5 -112q0 -63 -20 -109t-55.5 -76t-82.5 -44t-100 -14q-28 0 -49.5 1.5t-39 4.5t-33.5 6.5t-33 8.5l-16 129h8q8 -11 19.5 -23.5t29 -22.5t43 -16.5t62.5 -6.5q33 0 63 9.5t52.5 28t36 47t13.5 67.5
q0 33 -8 61.5t-25.5 50t-44.5 34.5t-65 13q-26 0 -45 -7.5t-32 -17.5t-20.5 -20.5t-11.5 -17.5l-67 17l36 368h348v-129h-6q-7 17 -21 26.5t-33 14t-41.5 5.5t-45.5 1h-108z" />
    <glyph glyph-name="six" unicode="6" horiz-adv-x="587" 
d="M146 227q0 -38 12 -68t33 -51.5t48.5 -33t60.5 -11.5q31 0 57 12.5t44.5 34.5t29 51.5t10.5 65.5q0 34 -9.5 64.5t-28 53t-45.5 35.5t-63 13q-34 0 -61.5 -12.5t-47 -35t-30 -53t-10.5 -65.5zM234 459l3 -2q21 6 44.5 12t47.5 6q46 0 85.5 -18t68 -50t45 -78t16.5 -102
q0 -57 -18 -102t-51 -77.5t-79 -49t-102 -16.5q-55 0 -101.5 17.5t-79.5 50t-51 77.5t-18 100q0 37 9.5 73t26 70t37 68t42.5 68l67 94q13 17 28 36t15 36q0 7 -7 10.5t-13 5.5v8h175v-8z" />
    <glyph glyph-name="seven" unicode="7" horiz-adv-x="587" 
d="M403 614h-186q-34 0 -57 -3t-38.5 -9t-25 -15t-16.5 -22h-8v131h456v-11l-215 -595q-2 -16 -9 -32.5t-7 -33.5q0 -5 7.5 -10t15.5 -6v-8h-152z" />
    <glyph glyph-name="eight" unicode="8" horiz-adv-x="587" 
d="M180 522q0 -51 31 -81.5t83 -30.5q51 0 82 30.5t31 81.5q0 23 -8 43t-22.5 35t-36 24t-46.5 9q-27 0 -48 -9t-35.5 -24t-22.5 -35t-8 -43zM156 193q0 -29 10.5 -53t29 -41t43.5 -26.5t55 -9.5q29 0 54 9.5t43.5 26.5t29 41t10.5 53q0 61 -36 98t-101 37q-66 0 -102 -37
t-36 -98zM294 -18q-49 0 -92.5 13.5t-76 39.5t-52 64.5t-19.5 87.5q0 47 16 79t39 52.5t47.5 31t42.5 16.5q-15 7 -36 17t-40 28.5t-32 46t-13 70.5q0 42 15.5 76.5t44 59t68 38t88.5 13.5q48 0 88 -13.5t68 -38t44 -59t16 -76.5q0 -43 -13.5 -70.5t-32.5 -46t-40 -28.5
t-36 -17q18 -6 42.5 -16.5t47.5 -31t39 -52.5t16 -79q0 -49 -19.5 -87.5t-52 -64.5t-76 -39.5t-91.5 -13.5z" />
    <glyph glyph-name="nine" unicode="9" horiz-adv-x="587" 
d="M154 488q0 -33 10.5 -60.5t29 -47t43.5 -29.5t55 -10q64 0 102 40t38 107q0 29 -10 55t-27 46t-43.5 32t-57.5 12q-65 0 -102.5 -40t-37.5 -105zM205 8l166 270q-12 -4 -22 -7.5t-21.5 -6t-25 -4t-34.5 -1.5q-48 0 -88 15.5t-68 45t-44 72t-16 96.5q0 49 16 90.5t47 71.5
t76.5 47.5t106.5 17.5q56 0 100 -18t74.5 -49t46 -71t15.5 -85q0 -29 -3 -52t-9 -44.5t-16.5 -44.5t-23.5 -52l-82 -167q-4 -7 -12.5 -24.5t-17.5 -36t-15.5 -32.5t-6.5 -15q0 -12 6.5 -14t12.5 -2v-8h-162v8z" />
    <glyph glyph-name="colon" unicode=":" horiz-adv-x="303" 
d="M152 -18q-33 0 -56 23t-23 54q0 32 23 55t56 23q32 0 54.5 -23t22.5 -55q0 -31 -22 -54t-55 -23zM152 356q-33 0 -56 23t-23 55t23 55t56 23q32 0 54.5 -23t22.5 -55t-22 -55t-55 -23z" />
    <glyph glyph-name="semicolon" unicode=";" horiz-adv-x="303" 
d="M153 356q-33 0 -56 23t-23 55t23 55t56 23q31 0 54 -23t23 -55t-22.5 -55t-54.5 -23zM107 97h145l-154 -226h-61z" />
    <glyph glyph-name="less" unicode="&#x3c;" horiz-adv-x="928" 
d="M215 314v56l498 221v-79l-397 -170l397 -169v-79z" />
    <glyph glyph-name="equal" unicode="=" horiz-adv-x="928" 
d="M195 454h537v-80h-537v80zM195 310h537v-80h-537v80z" />
    <glyph glyph-name="greater" unicode="&#x3e;" horiz-adv-x="928" 
d="M216 173l396 169l-396 170v79l498 -221v-56l-498 -220v79z" />
    <glyph glyph-name="question" unicode="?" horiz-adv-x="474" 
d="M221 -18q-33 0 -55.5 23.5t-22.5 53.5q0 32 22.5 55t55.5 23q32 0 54.5 -23.5t22.5 -54.5t-23 -54t-54 -23zM181 184q0 4 -1.5 16t-1.5 44q0 29 23.5 63t51.5 71.5t51.5 77t23.5 79.5q0 21 -8.5 39.5t-24.5 32.5t-37.5 21.5t-46.5 7.5q-49 0 -85 -21.5t-54 -50.5h-8v132
h6q3 -1 8 -2.5t9 -1.5q14 0 46 11.5t78 11.5q10 0 29.5 -1t43 -6t48 -15.5t45 -30.5t33 -50.5t12.5 -75.5q0 -42 -16 -77.5t-39 -66t-47 -56.5t-39 -50q-13 -23 -17.5 -49.5t-4.5 -52.5h-78z" />
    <glyph glyph-name="at" unicode="@" horiz-adv-x="1024" 
d="M377 117q0 -37 20.5 -53t50.5 -16q25 0 43 10t31 23.5t22.5 28.5t15.5 25q21 35 37.5 74.5t27.5 73.5t16 61t5 38q0 24 -16 44.5t-48 20.5q-24 0 -48.5 -17.5t-47.5 -46.5t-43 -64.5t-35 -72.5t-23 -71t-8 -58zM850 -9q-11 -11 -39 -32.5t-71.5 -42.5t-99.5 -36.5
t-121 -15.5q-91 0 -168.5 25t-134 69.5t-88 107t-31.5 137.5q0 91 37 173.5t100 145.5t146.5 100t175.5 37q78 0 145.5 -24.5t117.5 -68t78.5 -104.5t28.5 -134q0 -70 -25 -129.5t-65.5 -104t-92 -69.5t-104.5 -25q-25 0 -39.5 7.5t-22 19t-10 24t-2.5 22.5q-5 -6 -15.5 -17
t-27 -22t-39 -19.5t-52.5 -8.5q-28 0 -52.5 9.5t-43 27.5t-29 46t-10.5 64q0 55 22.5 114.5t59 108.5t84.5 80t98 31q32 0 53 -9t34.5 -21.5t21 -25t11.5 -19.5l22 55h88l-85 -212q-9 -22 -19.5 -49t-20 -52t-16 -45.5t-6.5 -27.5q0 -12 6.5 -20t24.5 -8q27 0 63 18.5t67 54
t52.5 86t21.5 116.5q0 65 -26 117.5t-69.5 88t-101.5 54.5t-121 19q-75 0 -145.5 -34.5t-126 -91.5t-88.5 -129t-33 -148q0 -64 25 -117.5t71 -92.5t112 -61.5t148 -22.5q70 0 123.5 15t91 33t59 35t26.5 21z" />
    <glyph glyph-name="A" unicode="A" horiz-adv-x="710" 
d="M289 626l40 89h14l273 -593q11 -25 20 -43t17.5 -31t19.5 -22.5t26 -17.5v-8h-202v8q6 1 17.5 10t11.5 26q0 12 -3 25.5t-7 25.5l-75 178h-211l-75 -176q-5 -14 -10 -29.5t-5 -28.5q0 -17 7.5 -22t19.5 -9v-8h-157v8l207 460l48 -115h143z" />
    <glyph glyph-name="B" unicode="B" horiz-adv-x="587" 
d="M88 551q0 66 -9.5 97.5t-41.5 39.5v8h251q50 0 90 -10.5t68 -33t43.5 -56t15.5 -77.5q0 -34 -10.5 -56.5t-25.5 -37.5t-33.5 -25t-34.5 -17q23 -9 48 -21.5t46 -33t35 -52t14 -78.5q0 -50 -14.5 -83.5t-38.5 -55.5t-54.5 -34t-64 -17.5t-66 -6.5t-60.5 -1h-158v551z
M193 412q11 0 21.5 -1t22.5 -1q75 0 117.5 27.5t42.5 75.5q0 28 -10 47.5t-28.5 31.5t-43 17t-53.5 5q-14 0 -31.5 -1t-37.5 -7v-194zM193 171q0 -26 2 -42.5t9 -27t20.5 -15t35.5 -4.5q83 0 129.5 26.5t46.5 94.5q0 65 -45.5 96t-127.5 31q-17 0 -35 -1t-35 -3v-155z" />
    <glyph glyph-name="C" unicode="C" horiz-adv-x="645" 
d="M588 14q-24 -6 -43 -12t-40 -10.5t-46.5 -7t-61.5 -2.5q-79 0 -145.5 27.5t-113.5 76t-72.5 115t-25.5 144.5q0 77 24.5 144.5t69 117t108 79t142.5 29.5q41 0 70 -4t50 -9t35.5 -8.5t26.5 -3.5q6 0 12.5 3t12.5 7h7v-128h-7q-17 11 -34 21.5t-38.5 19.5t-50 14.5
t-67.5 5.5q-56 0 -102.5 -21t-80.5 -59.5t-52 -91t-18 -116.5q0 -60 17.5 -112t50.5 -89.5t79 -59t103 -21.5q38 0 68 7t53.5 17t41.5 22t33 23h8z" />
    <glyph glyph-name="D" unicode="D" horiz-adv-x="701" 
d="M88 551q0 66 -9.5 97.5t-41.5 39.5v8h252q91 0 154 -23t103.5 -58t62.5 -77.5t32 -81.5t11.5 -70t1.5 -43q0 -83 -21.5 -141t-56.5 -96t-80.5 -59t-94 -32t-96 -13t-86.5 -2h-131v551zM193 189q0 -33 1.5 -54t11.5 -33t31.5 -16t61.5 -4q48 0 93 15t79.5 46.5t55 80.5
t20.5 119q0 76 -23.5 127.5t-61.5 84t-84.5 46t-93.5 13.5q-24 0 -46 -2.5t-45 -5.5v-417z" />
    <glyph glyph-name="E" unicode="E" horiz-adv-x="512" 
d="M86 0v551q0 66 -9.5 97.5t-41.5 39.5v8h426v-129h-8q-8 15 -16 24.5t-22 15t-38.5 7.5t-66.5 2h-119v-207h119q38 0 60 4t34.5 11.5t18 18t11.5 21.5h9v-188h-9q-9 17 -16.5 27t-20 16t-32.5 8t-55 2h-119v-154q0 -31 2.5 -50t10.5 -29t23.5 -13t40.5 -3h63
q40 0 62.5 3.5t36 10.5t21 17.5t16.5 24.5h8l-15 -136h-374z" />
    <glyph glyph-name="F" unicode="F" horiz-adv-x="512" 
d="M86 551q0 66 -9.5 97.5t-41.5 39.5v8h426v-129h-8q-9 14 -16.5 23t-20.5 15t-37.5 8.5t-68.5 2.5h-119v-205h119q38 0 60 4t34.5 11.5t18 18t11.5 21.5h9v-188h-9q-9 16 -16.5 26.5t-20 16.5t-32.5 8t-55 2h-119v-186q0 -66 9.5 -97.5t41.5 -39.5v-8h-156v551z" />
    <glyph glyph-name="G" unicode="G" horiz-adv-x="720" 
d="M662 29q-31 -9 -59.5 -17.5t-58 -15t-63.5 -10.5t-76 -4q-89 0 -156.5 31t-112 82t-67 117.5t-22.5 135.5q0 56 18.5 120t60.5 119t110 91.5t169 36.5q28 0 55 -3.5t51 -8t43 -8t30 -3.5q9 0 17 5h9v-126h-9q-9 9 -28.5 19.5t-45 20t-56 16t-62.5 6.5q-53 0 -99.5 -20.5
t-81 -58.5t-54 -90t-19.5 -117q0 -61 19 -113.5t54.5 -90t84.5 -59t110 -21.5q25 0 43 3t33.5 7.5t29 10t29.5 12.5v109q0 66 -9.5 97.5t-41.5 39.5v8h155v-321z" />
    <glyph glyph-name="H" unicode="H" horiz-adv-x="720" 
d="M91 551q0 66 -9.5 97.5t-41.5 39.5v8h207v-8q-32 -8 -41.5 -39.5t-9.5 -97.5v-145h327v145q0 66 -9.5 97.5t-41.5 39.5v8h207v-8q-32 -8 -41.5 -39.5t-9.5 -97.5v-406q0 -66 9.5 -97.5t41.5 -39.5v-8h-207v8q32 8 41.5 39.5t9.5 97.5v181h-327v-181q0 -66 9.5 -97.5
t41.5 -39.5v-8h-156v551z" />
    <glyph glyph-name="I" unicode="I" horiz-adv-x="284" 
d="M89 0v551q0 66 -9.5 97.5t-41.5 39.5v8h207v-8q-32 -8 -41.5 -39.5t-9.5 -97.5v-406q0 -66 9.5 -97.5t41.5 -39.5v-8h-156z" />
    <glyph glyph-name="J" unicode="J" horiz-adv-x="454" 
d="M359 186q0 -63 -20 -103t-50.5 -62.5t-66.5 -30.5t-68 -8q-35 0 -70 8.5t-70 18.5l-8 119h8q21 -29 58 -47t77 -18q48 0 77 29.5t29 100.5v358q0 66 -10 97.5t-41 39.5v8h206v-8q-31 -8 -41 -39.5t-10 -97.5v-365z" />
    <glyph glyph-name="K" unicode="K" horiz-adv-x="683" 
d="M89 551q0 66 -9.5 97.5t-41.5 39.5v8h207v-8q-32 -8 -41.5 -39.5t-9.5 -97.5v-143l218 206q11 12 25.5 25.5t14.5 20.5q0 9 -2.5 17.5t-19.5 10.5v8h223l1 -8q-17 -6 -30.5 -11.5t-27 -14t-29.5 -21t-37 -32.5l-234 -222l273 -290q39 -41 65.5 -57.5t45.5 -25.5v-9
q-15 -2 -30 -3.5t-29 -1.5q-33 0 -53 1t-38 8.5t-37 23.5t-47 46l-252 272v-206q0 -66 9.5 -97.5t41.5 -39.5v-8h-156v551z" />
    <glyph glyph-name="L" unicode="L" horiz-adv-x="454" 
d="M92 551q0 66 -9.5 97.5t-41.5 39.5v8h207v-8q-32 -8 -41.5 -39.5t-9.5 -97.5v-388q0 -25 1.5 -41t7 -25.5t16 -13t29.5 -3.5h74q25 0 42.5 2t30.5 8t21.5 17t17.5 27h8l-15 -134h-338v551z" />
    <glyph glyph-name="M" unicode="M" horiz-adv-x="910" 
d="M176 731h9l251 -554l251 554h9l135 -589q7 -33 13 -56t13 -37.5t16.5 -24t26.5 -16.5v-8h-190v8q20 4 27 14.5t7 21.5q0 24 -5.5 46.5t-10.5 45.5l-66 329h-2l-218 -483h-12l-218 483h-2l-66 -329q-5 -23 -10.5 -45.5t-5.5 -46.5q0 -11 7 -21.5t27 -14.5v-8h-152v8z" />
    <glyph glyph-name="N" unicode="N" horiz-adv-x="691" 
d="M19 735h9l487 -530v346q0 66 -10 97.5t-42 39.5v8h207v-8q-31 -8 -41 -39.5t-10 -97.5v-584h-9l-487 528v-350q0 -66 10 -97.5t42 -39.5v-8h-156v735z" />
    <glyph glyph-name="O" unicode="O" horiz-adv-x="815" 
d="M153 349q0 -61 14.5 -113.5t46 -91t79.5 -60t114 -21.5q67 0 115 21.5t79.5 60t46 91t14.5 113.5t-14.5 113t-46 90t-79.5 59.5t-115 21.5q-66 0 -114 -21.5t-79.5 -59.5t-46 -90t-14.5 -113zM407 -18q-34 0 -74 6.5t-80.5 22.5t-78 43t-66 67.5t-46 96.5t-17.5 131
t17.5 131t46 96.5t66 67.5t78 42.5t80.5 22t74 6.5q35 0 75 -6.5t80.5 -22t78 -42.5t66 -67.5t46 -96.5t17.5 -131t-17.5 -131t-46 -96.5t-66 -67.5t-78 -43t-80.5 -22.5t-75 -6.5z" />
    <glyph glyph-name="P" unicode="P" horiz-adv-x="569" 
d="M88 551q0 66 -9.5 97.5t-41.5 39.5v8h244q34 0 77.5 -5t81.5 -25t65 -59t27 -106q0 -42 -14 -80.5t-44 -67.5t-77.5 -46t-112.5 -17q-18 0 -20.5 0.5t-2.5 3.5l-25 79q11 0 21.5 -0.5t22.5 -0.5q62 0 103 32t41 91q0 62 -43.5 90.5t-112.5 28.5q-36 0 -75 -8v-461
q0 -66 9.5 -97.5t41.5 -39.5v-8h-156v551z" />
    <glyph glyph-name="Q" unicode="Q" horiz-adv-x="815" 
d="M153 352q0 -66 18 -120t52 -91.5t81 -57.5t106 -20q56 0 102.5 21t80 59t51.5 91.5t18 117.5q0 63 -17 114.5t-50.5 88.5t-80 57.5t-104.5 20.5q-60 0 -107.5 -22t-81 -60t-51 -89t-17.5 -110zM828 -76q-28 -26 -55 -48t-53 -22q-11 0 -22.5 3t-21.5 8l-129 68l-86 52
q-17 -2 -33 -2.5t-25 -0.5q-86 0 -152.5 31t-112.5 82t-69.5 118.5t-23.5 138.5q0 79 25.5 145.5t72.5 114.5t113.5 75.5t146.5 27.5q92 0 154.5 -25t103.5 -63.5t63 -83.5t32.5 -85.5t12 -70t1.5 -35.5q0 -84 -21.5 -141.5t-51.5 -96.5t-63.5 -62t-56.5 -38l107 -54l76 -34
q16 -7 29 -7q9 0 16.5 4t15.5 7z" />
    <glyph glyph-name="R" unicode="R" horiz-adv-x="625" 
d="M90 551q0 66 -9.5 97.5t-41.5 39.5v8h233q77 0 129.5 -11.5t83.5 -35.5t44.5 -60.5t13.5 -86.5t-16.5 -84t-40 -56t-50.5 -33.5t-49 -16.5l162 -229q12 -18 19.5 -29t14.5 -17.5t15.5 -12.5t24.5 -15v-9l-57 -5q-32 0 -50.5 2t-31 8.5t-22 19t-23.5 32.5l-205 308l11 6
q8 -1 15 -2t16 -1q42 0 72 10t49.5 27.5t28.5 39.5t9 47q0 45 -20.5 70t-50.5 36.5t-63.5 13.5t-58.5 2q-12 0 -24 -1.5t-23 -3.5v-464q0 -66 9.5 -97.5t41.5 -39.5v-8h-156v551z" />
    <glyph glyph-name="S" unicode="S" horiz-adv-x="474" 
d="M403 569l-18.5 18.5t-26.5 20.5t-38 17.5t-53 7.5q-30 0 -52.5 -9t-37.5 -22t-22 -29.5t-7 -32.5q0 -38 22 -61.5t54 -42.5t69.5 -37.5t69.5 -44.5t53.5 -65.5t21.5 -100.5q0 -44 -15.5 -81.5t-46.5 -65.5t-77 -43.5t-105 -15.5q-39 0 -75.5 8t-74.5 20l-10 126h8
q7 -9 20.5 -21.5t32.5 -23.5t44.5 -19.5t57.5 -8.5q31 0 56 10.5t42.5 28t26.5 40t9 46.5q0 38 -21.5 63t-54 45.5t-70 39.5t-70 44.5t-54 60t-21.5 85.5q0 49 19.5 84.5t50 58.5t68 34.5t74.5 11.5q21 0 42.5 -3.5t39.5 -7.5t31 -7.5t17 -3.5q6 0 12.5 1.5t8.5 5.5h8v-131
h-8z" />
    <glyph glyph-name="T" unicode="T" horiz-adv-x="531" 
d="M212 616h-48q-36 0 -57.5 -2.5t-34.5 -8.5t-21 -15t-16 -23h-8l12 129h451l12 -129h-8q-8 14 -16 23t-21 15t-34.5 8.5t-57.5 2.5h-48v-471q0 -66 9.5 -97.5t41.5 -39.5v-8h-156v616z" />
    <glyph glyph-name="U" unicode="U" horiz-adv-x="701" 
d="M624 282q0 -53 -9 -106t-38 -96.5t-83 -70.5t-144 -27t-144.5 27t-83 70.5t-38 96.5t-9.5 106v269q0 66 -9.5 97.5t-41.5 39.5v8h207v-8q-32 -8 -41.5 -39.5t-9.5 -97.5v-266q0 -49 7.5 -90t26.5 -70.5t51.5 -45.5t84.5 -16q50 0 83 16t52 45.5t27 70.5t8 90v266
q0 66 -10 97.5t-42 39.5v8h207v-8q-31 -8 -41 -39.5t-10 -97.5v-269z" />
    <glyph glyph-name="V" unicode="V" horiz-adv-x="739" 
d="M86 593q-8 18 -15.5 33.5t-15 28t-18 20.5t-24.5 13v8h185v-8q-13 -5 -18 -13.5t-5 -18.5q0 -17 8.5 -37.5t22.5 -56.5l161 -389l164 382q16 38 25 61t9 40q0 10 -5.5 18.5t-21.5 13.5v8h189v-8q-15 -5 -25 -13t-17.5 -20.5t-15 -28t-15.5 -33.5l-280 -625h-11z" />
    <glyph glyph-name="W" unicode="W" horiz-adv-x="1004" 
d="M82 601q-9 25 -16.5 40.5t-14.5 25.5t-14.5 14.5t-15.5 6.5v8h178v-8q-15 0 -23.5 -8.5t-8.5 -23.5q0 -5 2.5 -14.5t5.5 -21t7 -23t7 -20.5l133 -357l187 495h15l183 -495l129 357q3 9 7 20.5t7.5 23t5.5 21t2 14.5q0 15 -8.5 23.5t-23.5 8.5v8h178v-8q-8 -2 -15 -6.5
t-14.5 -14.5t-15 -25.5t-16.5 -40.5l-234 -634h-10l-185 502l-189 -502h-9z" />
    <glyph glyph-name="X" unicode="X" horiz-adv-x="645" 
d="M256 376l-148 233q-14 23 -26.5 36.5t-22.5 22.5t-19 13t-16 7v8h206v-8q-8 -2 -17 -6t-9 -18q0 -13 7.5 -22.5t13.5 -20.5l99 -161l95 161q6 11 13.5 20.5t7.5 22.5q0 14 -9 18t-17 6v8h189v-8q-15 -6 -24.5 -11t-18.5 -13t-18.5 -21t-22.5 -36l-140 -231l164 -255
q19 -29 28 -45t17.5 -26.5t19 -19t29.5 -22.5v-8h-201v8q13 0 21.5 7.5t8.5 16.5t-4.5 19t-10 21t-11.5 20t-9 16l-115 185l-105 -185q-3 -7 -9 -17t-11.5 -21.5t-10 -21.5t-4.5 -16q0 -9 8.5 -16.5t21.5 -7.5v-8h-177v8z" />
    <glyph glyph-name="Y" unicode="Y" horiz-adv-x="625" 
d="M258 318l-177 297q-24 39 -42.5 53t-35.5 20v8h201v-8q-8 -4 -17 -6t-9 -19q0 -15 7.5 -26.5t15.5 -23.5l116 -205l118 207l14 24t7 27q0 11 -6.5 16t-14.5 6v8h184v-8q-8 -2 -16 -5t-16.5 -9.5t-18 -18.5t-20.5 -30l-186 -307v-173q0 -66 10 -97.5t42 -39.5v-8h-156v318
z" />
    <glyph glyph-name="Z" unicode="Z" horiz-adv-x="549" 
d="M363 616h-163q-36 0 -61 -2t-41.5 -7.5t-27.5 -14.5t-20 -24h-8v128h482v-9l-349 -607h120q46 0 86.5 1t71 6t49 17.5t20.5 33.5h8l-16 -138h-498v9z" />
    <glyph glyph-name="bracketleft" unicode="[" horiz-adv-x="303" 
d="M89 696h199v-65h-113v-772h113v-66h-199v903z" />
    <glyph glyph-name="backslash" unicode="\" horiz-adv-x="512" 
d="M53 715h82l329 -733h-82z" />
    <glyph glyph-name="bracketright" unicode="]" horiz-adv-x="303" 
d="M15 -141h113v772h-113v65h199v-903h-199v66z" />
    <glyph glyph-name="asciicircum" unicode="^" horiz-adv-x="587" 
d="M265 696h63l212 -408h-66l-179 342l-182 -342h-66z" />
    <glyph glyph-name="underscore" unicode="_" horiz-adv-x="512" 
d="M0 -67h512v-51h-512v51z" />
    <glyph glyph-name="grave" unicode="`" horiz-adv-x="358" 
d="M58 714h111l68 -134h-55z" />
    <glyph glyph-name="a" unicode="a" horiz-adv-x="549" 
d="M313 2q-23 -11 -51 -15.5t-54 -4.5q-77 0 -121 38.5t-44 118.5q0 55 24 85t60.5 46t79 22.5t79 14t61.5 21t26 42.5q0 22 -25 42.5t-81 20.5q-33 0 -57 -6.5t-41.5 -16.5t-29.5 -20t-18 -17h-8l9 121h8l8 -4t9 -2q7 0 18.5 4t30.5 8.5t44.5 8t58.5 3.5q63 -1 97.5 -20.5
t50.5 -48.5t18.5 -64.5t2.5 -69.5v-156q0 -42 1 -67t6.5 -38.5t16.5 -22t30 -17.5v-8h-146v254q-42 -17 -84 -25t-77 -16.5t-56.5 -24.5t-21.5 -49q0 -38 25.5 -58.5t69.5 -20.5q27 0 53 9t50 29h7z" />
    <glyph glyph-name="b" unicode="b" horiz-adv-x="625" 
d="M78 0v521q0 46 -2 76.5t-7.5 49t-16.5 27.5t-27 14v8h145v-410q0 -36 5.5 -75.5t22.5 -73t50 -55.5t88 -22q32 0 60.5 12.5t50 36.5t34.5 60t13 84q0 46 -12 80t-32.5 56.5t-47.5 33t-58 10.5q-27 0 -46 -4t-33.5 -11t-26 -17t-24.5 -20h-8l17 100q34 12 64 21.5t68 9.5
q50 0 92.5 -16.5t73.5 -48t49 -78t18 -107.5q0 -72 -18.5 -124.5t-50.5 -87.5t-75 -51.5t-93 -16.5q-42 0 -71 8.5t-49.5 21.5t-34.5 27.5t-26 27.5l-9 -67h-83z" />
    <glyph glyph-name="c" unicode="c" horiz-adv-x="454" 
d="M417 6q-30 -10 -60.5 -17t-62.5 -7q-54 0 -101 15.5t-81.5 48.5t-54 83t-19.5 120q0 61 18 110t49 83t73.5 52t91.5 18q43 0 73 -10t47 -10q5 0 10 1l10 2h7v-118h-7q-13 10 -25 20.5t-27 18.5t-33 12.5t-42 4.5q-31 0 -58 -11t-47.5 -34t-33 -58t-12.5 -81t13 -81.5
t34.5 -59.5t50 -36t60.5 -12q28 0 49.5 7t37 16.5t26.5 20.5t17 18h8z" />
    <glyph glyph-name="d" unicode="d" horiz-adv-x="625" 
d="M393 -1q-26 -7 -55 -12t-57 -5q-55 0 -99.5 17t-76 51t-49.5 82t-18 110q0 61 18.5 110.5t51 85t76.5 55t96 19.5q41 0 70 -8.5t49.5 -21t33.5 -26.5t22 -24v91q0 46 -2 75.5t-8 48t-16.5 27.5t-26.5 14v8h145v-521q0 -46 2 -76t7.5 -48.5t16 -28t27.5 -14.5v-8h-145v194
q0 38 -3 80t-19 77.5t-49.5 58.5t-92.5 23q-34 0 -62.5 -11.5t-50 -35.5t-34 -58t-12.5 -80q0 -90 44 -139t117 -49q46 0 75.5 13t47.5 40h8z" />
    <glyph glyph-name="e" unicode="e" horiz-adv-x="549" 
d="M419 303q-2 16 -8 39t-22 43.5t-42.5 34t-67.5 13.5q-42 0 -70 -13.5t-44.5 -34t-25 -43.5t-10.5 -39h290zM468 15q-40 -15 -83 -24t-86 -9q-80 0 -131 25.5t-80.5 64.5t-41.5 84t-12 85q0 65 19 115.5t52 85t78.5 52.5t97.5 18q64 0 106.5 -19.5t67.5 -49t37 -64.5
t16.5 -66.5t4 -55t0.5 -29.5h-385q1 -19 6 -47.5t22 -55.5t50.5 -46t90.5 -19q34 0 62 6.5t50 15.5t38 20.5t25 20.5l8 -4z" />
    <glyph glyph-name="f" unicode="f" horiz-adv-x="303" 
d="M89 0v419h-66v75h66v86q0 49 13.5 76.5t33 40.5t40.5 15.5t36 2.5q18 0 29.5 -2.5t22.5 -4.5q10 -3 17.5 -6t15.5 -3q1 0 5 1.5t5 1.5h8v-101h-8q-15 14 -31 24.5t-35 10.5q-22 0 -34.5 -8t-18 -22t-6.5 -31.5t-1 -36.5v-44h115v-75h-115v-309q0 -56 11 -76t42 -26v-8
h-145z" />
    <glyph glyph-name="g" unicode="g" horiz-adv-x="625" 
d="M548 -24q0 -32 -10 -67.5t-36.5 -64.5t-73.5 -48.5t-121 -20.5q-48 0 -98 10t-88 29l-12 115h10q9 -9 24.5 -21.5t38.5 -24.5t53.5 -20.5t71.5 -8.5q56 0 86 15.5t44 42.5t16.5 60t2.5 69v171q0 30 -2.5 68t-18 72t-48.5 57.5t-93 23.5q-35 0 -64.5 -11.5t-51 -34
t-34 -55.5t-12.5 -74q0 -87 42.5 -133t113.5 -46q48 0 79 17.5t49 34.5h9l-31 -112q-17 -5 -31 -8.5t-26.5 -5.5t-25.5 -3.5t-28 -1.5q-55 0 -100 17t-77 49t-50 78.5t-18 107.5q0 46 14 92.5t43.5 84t76 60.5t111.5 23q41 0 70 -9t49 -22.5t33 -28t21 -24.5l12 66h133v-9
q-20 -6 -31 -23.5t-15.5 -45t-5.5 -63t-1 -75.5v-302z" />
    <glyph glyph-name="h" unicode="h" horiz-adv-x="607" 
d="M88 521q0 46 -2 76.5t-7.5 49t-16.5 27.5t-27 14v8h145v-263q11 12 24 26t32.5 26t47 19.5t67.5 7.5q64 0 99 -24t50.5 -60t18 -78t2.5 -78v-97q0 -46 2 -76t8 -48.5t16 -28t28 -14.5v-8h-201v8q12 3 22.5 9.5t17 18t10 31.5t3.5 51v205q0 47 -25 78.5t-82 31.5
q-52 0 -80 -23t-40.5 -58t-15 -75t-2.5 -74v-108q1 -21 5 -35.5t10 -23.5t15 -15.5t24 -12.5v-8h-148v521z" />
    <glyph glyph-name="i" unicode="i" horiz-adv-x="265" 
d="M128 592q-26 0 -44 18t-18 43q0 26 18 44t44 18q25 0 43 -18t18 -44q0 -25 -17.5 -43t-43.5 -18zM85 0v318q0 47 -2 77t-7.5 48.5t-16.5 27.5t-27 14v9h145v-327q0 -45 1.5 -72.5t7.5 -44t16.5 -26t28.5 -16.5v-8h-146z" />
    <glyph glyph-name="j" unicode="j" horiz-adv-x="265" 
d="M75 653q0 26 18 44t45 18q24 0 42 -18t18 -44q0 -25 -17.5 -43t-42.5 -18q-27 0 -45 18t-18 43zM187 -75q0 -43 -9.5 -71.5t-26 -46.5t-40 -25t-50.5 -7q-33 0 -60.5 5.5t-49.5 11.5l-9 91h7q15 -11 26 -17t20.5 -8.5t20 -3t22.5 -0.5q22 3 33 18t16.5 36t6.5 45t1 45
v320q0 47 -2.5 77t-8 48.5t-16 27.5t-27.5 14v9h146v-569z" />
    <glyph glyph-name="k" unicode="k" horiz-adv-x="569" 
d="M96 521q0 46 -2 76.5t-7.5 49t-16.5 27.5t-27 14v8h145v-405l118 111q7 8 17 16t18 16.5t13.5 16.5t5.5 14q0 9 -8 14.5t-19 5.5v9h210v-9q-15 -3 -25 -7.5t-19 -10t-16.5 -12t-17.5 -16.5l-157 -145l167 -194q24 -28 50 -55t43 -31v-8q-16 -2 -32.5 -4t-32.5 -2
q-28 0 -45 4t-30 13t-25.5 23t-29.5 36l-185 211v-136q0 -34 1.5 -59t7.5 -42t16 -27t29 -15v-8h-146v521z" />
    <glyph glyph-name="l" unicode="l" horiz-adv-x="265" 
d="M84 0v521q0 46 -2 76.5t-7.5 49t-16.5 27.5t-27 14v8h145v-545q0 -34 1.5 -59t7.5 -42t16 -27t29 -15v-8h-146z" />
    <glyph glyph-name="m" unicode="m" horiz-adv-x="872" 
d="M88 0v336q0 47 -2.5 74.5t-8.5 42.5t-16.5 21t-25.5 11v9h130l10 -68q10 13 22 28t30 28t43.5 21.5t63.5 8.5q33 0 54.5 -8t36 -20.5t24.5 -28t18 -28.5q10 14 21.5 29t28.5 27.5t41.5 20.5t61.5 8q61 0 94 -20.5t48 -51.5t18 -68.5t3 -71.5v-149q0 -34 1.5 -59t7 -42
t15.5 -27t29 -15v-8h-199v8q18 3 28.5 11t16 24t7 42.5t1.5 65.5v137q0 30 -3 57t-12.5 46.5t-27.5 30.5t-49 11q-44 0 -67.5 -17.5t-34 -41.5t-13 -49t-2.5 -40v-134q0 -34 2 -59t7.5 -42t15.5 -27t29 -15v-8h-199v8q17 3 28 11t16.5 24t7 42.5t1.5 65.5v162q0 69 -25 94.5
t-64 25.5q-20 0 -41 -5t-38.5 -22t-29 -48.5t-11.5 -85.5v-121q0 -34 1.5 -59t7.5 -42t16 -27t29 -15v-8h-146z" />
    <glyph glyph-name="n" unicode="n" horiz-adv-x="607" 
d="M88 0v321q0 53 -1.5 82t-7 44.5t-16.5 22t-29 15.5v9h130l11 -69q10 13 22.5 28t32.5 28.5t48 22t69 8.5q54 0 87.5 -15.5t52.5 -44.5t25.5 -71.5t6.5 -97.5v-132q0 -34 1.5 -59t7.5 -42t16 -27t29 -15v-8h-199v8q17 3 28 11t16.5 24t7 42.5t1.5 65.5v123q0 33 -2.5 62.5
t-13 51t-32 33.5t-59.5 12q-43 0 -70.5 -15.5t-42.5 -43t-21 -66t-6 -84.5v-73q0 -34 2 -59t7.5 -42t15.5 -27t29 -15v-8h-146z" />
    <glyph glyph-name="o" unicode="o" horiz-adv-x="607" 
d="M130 250q0 -90 46 -140t126 -50t126 50t46 140q0 86 -44.5 134.5t-127.5 48.5q-80 0 -126 -48.5t-46 -134.5zM302 -18q-61 0 -110.5 18t-83.5 53t-53 84t-19 113q0 53 16.5 100.5t49.5 83.5t83 57t117 21q68 0 117.5 -21t83 -57t49.5 -83.5t16 -100.5q0 -64 -18.5 -113
t-53 -84t-83.5 -53t-111 -18z" />
    <glyph glyph-name="p" unicode="p" horiz-adv-x="625" 
d="M77 -207v478q0 68 -1 107t-5.5 60.5t-16 30t-30.5 16.5l-1 9h131l10 -65q12 12 26 26.5t35 27.5t51.5 21t73.5 8q50 0 93 -17t75 -51.5t50.5 -87.5t18.5 -125q0 -60 -18 -106.5t-49 -78.5t-73.5 -48t-92.5 -16q-23 0 -58 5t-61 20l-32 109h9q15 -18 27.5 -28.5
t27.5 -16.5t33.5 -8.5t43.5 -2.5q30 0 57.5 11t47.5 33.5t32 56.5t12 80q0 47 -13 83t-34.5 60.5t-50 36.5t-60.5 12q-55 0 -88 -22t-50 -55t-22.5 -73t-5.5 -75v-332q0 -21 7.5 -35.5t16.5 -23t18 -12.5t12 -4v-8h-146z" />
    <glyph glyph-name="q" unicode="q" horiz-adv-x="625" 
d="M456 208q0 35 -5 75t-22.5 73t-50.5 55t-88 22q-33 0 -61.5 -12t-50 -36.5t-34 -60.5t-12.5 -83q0 -46 12 -80t32.5 -56.5t47.5 -33.5t58 -11q50 0 81 14.5t52 36.5h8l-32 -110q-16 -6 -29.5 -9.5t-26 -5.5t-28 -3t-36.5 -1q-50 0 -92.5 16t-73.5 48t-49 78.5t-18 106.5
q0 72 18.5 125t50.5 87.5t75 51.5t94 17q43 0 72.5 -8t50.5 -20.5t35.5 -27t25.5 -26.5l9 64h132v-9q-20 -8 -31 -16.5t-15.5 -30t-5.5 -60.5t-1 -107v-395q0 -18 5.5 -32.5t14 -23.5t17.5 -14t16 -5v-8h-145v415z" />
    <glyph glyph-name="r" unicode="r" horiz-adv-x="378" 
d="M88 318q0 47 -2 77t-7.5 48.5t-16.5 27.5t-27 14v9h131l7 -66h2q8 13 17 28t22.5 27.5t32 20.5t47.5 8q14 0 29 -2.5t29 -4.5v-125h-6q-4 7 -8.5 14.5t-11 14t-17 10.5t-25.5 4q-56 0 -80 -48.5t-24 -131.5v-68q0 -46 2.5 -76t8 -48.5t15.5 -28t28 -14.5v-8h-146v318z
" />
    <glyph glyph-name="s" unicode="s" horiz-adv-x="378" 
d="M52 118q6 -9 14 -19.5t20 -18.5t29.5 -14t42.5 -6q43 0 67 24t24 52q0 26 -15 44t-37.5 32.5t-49 28.5t-49 31.5t-37.5 40t-15 55.5q0 64 40 104t119 40q18 0 34.5 -4t29.5 -8.5t22.5 -9t15.5 -4.5q2 0 4.5 2t4.5 4h9v-110h-9q-15 19 -37.5 35t-65.5 16
q-34 0 -53.5 -17.5t-19.5 -38.5q0 -24 15 -40t37.5 -30.5t49 -29t49 -33.5t37.5 -44.5t15 -63.5q0 -31 -11.5 -58.5t-34.5 -49t-57 -34t-79 -12.5q-29 0 -56.5 7t-54.5 17l-6 112h8z" />
    <glyph glyph-name="t" unicode="t" horiz-adv-x="340" 
d="M298 0q-26 -9 -48 -13.5t-47 -4.5q-40 0 -61.5 13t-31.5 34.5t-11.5 48t-1.5 52.5v289h-69v14l138 152h23v-91h109v-75h-109v-250q0 -28 1 -48t5.5 -33.5t15.5 -20.5t30 -7q16 0 31 8t29 16h8z" />
    <glyph glyph-name="u" unicode="u" horiz-adv-x="569" 
d="M393 59h-2q-3 -7 -14 -20t-30 -26t-46.5 -22t-64.5 -9q-49 0 -81 16t-50 43t-26 60.5t-8 68.5v181q0 43 -4 68t-11 39t-17 19t-21 8v9h145v-294q0 -31 4 -56.5t14.5 -44t30 -29t52.5 -10.5q55 0 91 36.5t36 122.5v135q0 41 -4 66t-11.5 38.5t-17 18.5t-21.5 8v9h146v-329
q0 -45 2.5 -72.5t8.5 -44t16.5 -25.5t25.5 -15v-8h-135z" />
    <glyph glyph-name="v" unicode="v" horiz-adv-x="569" 
d="M107 339q-14 31 -24.5 55.5t-20.5 42.5t-22.5 30t-29.5 18v9h166v-9q-14 -6 -17 -13t-3 -13q0 -12 8.5 -33.5t15.5 -36.5l111 -241l106 241q7 15 16.5 36.5t9.5 33.5q0 6 -3 13t-19 13v9h161v-9q-29 -12 -49.5 -48t-47.5 -98l-175 -379h-9z" />
    <glyph glyph-name="w" unicode="w" horiz-adv-x="872" 
d="M82 404q-9 21 -15 34t-12 21.5t-14 14t-20 11.5v9h164v-9q-18 -3 -23 -11.5t-5 -18.5q0 -8 8.5 -29.5t15.5 -37.5l104 -235l153 366h10l148 -366l109 240q8 18 16 37.5t8 33.5t-10 17.5t-18 3.5v9h164v-9q-13 -6 -20.5 -11.5t-13.5 -14t-12 -21.5t-16 -32l-207 -445h-11
l-146 357l-152 -357h-11z" />
    <glyph glyph-name="x" unicode="x" horiz-adv-x="569" 
d="M28 8l203 254l-123 158q-17 21 -28.5 33.5t-19.5 18.5t-16.5 8.5t-19.5 4.5v9h203v-9q-10 -2 -23.5 -7t-13.5 -22q0 -12 8 -22t16 -19l73 -93l69 92q8 11 16.5 23t8.5 23q0 14 -8.5 18t-17.5 7v9h187v-9q-16 -9 -25 -13.5t-16 -10t-15 -15.5t-24 -29l-124 -152l131 -168
q15 -18 25.5 -31.5t21 -23.5t22 -18.5t29.5 -15.5v-8h-203v8q3 1 8.5 1.5t11 3t9 8t3.5 14.5q0 13 -11.5 28.5t-21.5 27.5l-84 107l-84 -110q-10 -14 -21.5 -29.5t-11.5 -31.5q0 -8 8 -12.5t19 -6.5v-8h-161v8z" />
    <glyph glyph-name="y" unicode="y" horiz-adv-x="569" 
d="M247 49l-159 343q-12 25 -21.5 40t-18 25.5t-17.5 16.5t-20 11v9h187v-9q-8 -5 -16.5 -8.5t-8.5 -20.5q0 -15 8.5 -38t17.5 -43l97 -223l99 224q9 20 17 44t8 42q0 11 -9 16t-17 7v9h178v-9q-11 -5 -20 -11t-17.5 -16.5t-17.5 -25.5t-22 -40l-224 -476q-6 -11 -12 -25
t-12 -26.5t-9.5 -22t-3.5 -12.5q0 -15 11 -22t23 -7v-8h-147z" />
    <glyph glyph-name="z" unicode="z" horiz-adv-x="454" 
d="M21 9l267 410h-65q-34 0 -60.5 -0.5t-47.5 -4.5t-36.5 -13t-26.5 -25h-8l9 118h380v-17l-265 -402h127q37 1 59 4t35 8.5t20 14.5t15 21h9l-17 -123h-395v9z" />
    <glyph glyph-name="braceleft" unicode="{" horiz-adv-x="549" 
d="M432 -255q-39 1 -77.5 15t-69 37t-50 54t-19.5 68q0 28 3.5 51.5t8.5 46.5q5 27 11 51.5t6 45.5q0 23 -9.5 44t-25.5 37.5t-36 29t-42 19.5v24q22 7 42 18.5t36 28t25.5 37.5t9.5 46q0 21 -6 45.5t-11 51.5q-5 23 -8.5 46.5t-3.5 51.5q0 37 19.5 68t50 54t69 36.5
t77.5 15.5v-26q-28 -6 -48.5 -20t-33.5 -33.5t-20 -41.5t-7 -44q0 -20 2.5 -41t4.5 -46q2 -18 4.5 -42t2.5 -39q0 -43 -17.5 -73t-42.5 -50.5t-52 -33.5t-47 -21q20 -8 47 -22t52 -35t42.5 -50.5t17.5 -70.5q0 -15 -2.5 -39t-4.5 -42q-3 -25 -5.5 -46t-2.5 -41q0 -22 7 -44
t20 -41.5t33.5 -33.5t49.5 -20v-26z" />
    <glyph glyph-name="bar" unicode="|" horiz-adv-x="340" 
d="M145 853h50v-1041h-50v1041z" />
    <glyph glyph-name="braceright" unicode="}" horiz-adv-x="549" 
d="M117 -229q29 6 49.5 20t33.5 33.5t20 41.5t7 44q0 20 -2.5 41t-5.5 46q-2 18 -4.5 42t-2.5 39q0 41 17.5 70.5t42.5 50.5t52 35t47 22q-20 8 -47 21t-52 33.5t-42.5 50.5t-17.5 73q0 15 2.5 39t4.5 42q2 25 4.5 46t2.5 41q0 22 -7 44t-20 41.5t-33.5 33.5t-48.5 20v26
q38 -2 77 -15.5t69.5 -36.5t50 -54t19.5 -68q0 -28 -3.5 -51.5t-8.5 -46.5q-5 -27 -11 -51.5t-6 -45.5q0 -25 9.5 -46t25.5 -37.5t36.5 -28t41.5 -18.5v-24q-21 -7 -41.5 -19.5t-36.5 -29t-25.5 -37.5t-9.5 -44q0 -21 6 -45.5t11 -51.5q5 -23 8.5 -46.5t3.5 -51.5
q0 -37 -19.5 -68t-50 -54t-69.5 -37t-77 -15v26z" />
    <glyph glyph-name="asciitilde" unicode="~" horiz-adv-x="928" 
d="M209 229q0 36 4 79t19 80.5t43.5 62.5t77.5 25q37 0 62 -15.5t42.5 -38.5t30.5 -49.5t26 -49.5t29 -38.5t40 -15.5q26 0 41 19.5t21.5 48t7.5 60.5t1 57h64q0 -30 -2 -72t-15.5 -81.5t-42.5 -67t-82 -27.5q-37 0 -61 15.5t-41 38.5t-29.5 49.5t-24.5 49.5t-28 38.5
t-40 15.5q-29 0 -45.5 -19t-24 -47.5t-9 -60t-1.5 -57.5h-63z" />
    <glyph glyph-name="multiply" unicode="&#xd7;" horiz-adv-x="495" 
d="M364 69l-117 117l-117 -117l-37 37l117 117l-117 117l36 36l117 -117l118 119l38 -38l-119 -118l117 -117z" />
    <glyph glyph-name="u1000" unicode="&#x1000;" horiz-adv-x="1064" 
d="M532 434q63 98 225 98q266 0 266 -266t-266 -266q-100 0 -162 37l50 71q43 -26 112 -26q184 0 184 184q0 185 -184 185q-185 0 -185 -185q0 -228 -184 -266l-22 81q125 27 125 185q0 185 -185 185q-184 0 -184 -185q0 -158 125 -185l-23 -81q-184 38 -184 266
q0 266 266 266q162 0 226 -98z" />
    <glyph glyph-name="u1001" unicode="&#x1001;" horiz-adv-x="614" 
d="M423 111q68 44 68 155q0 185 -185 185q-158 0 -185 -125l-81 22q38 184 266 184q266 0 266 -266t-266 -266q-228 0 -266 184v11q0 25 20 38t66 13q171 0 297 -135zM374 89q-94 101 -250 106q32 -113 182 -113q38 0 68 7z" />
    <glyph glyph-name="u1002" unicode="&#x1002;" horiz-adv-x="614" 
d="M306 532q266 0 266 -266q0 -228 -184 -266l-22 81q125 27 125 185q0 185 -185 185q-184 0 -184 -185q0 -158 125 -185l-23 -81q-184 38 -184 266q0 266 266 266z" />
    <glyph glyph-name="u1003" unicode="&#x1003;" horiz-adv-x="1064" 
d="M40 266q0 39 26.5 80t85.5 65q19 8 19 24t-20 16h-111v81h111q102 0 102 -95q0 -65 -66 -93q-65 -28 -65 -78q0 -184 184 -184q185 0 185 184q0 159 -125 186l22 80q184 -37 184 -266q0 -184 185 -184q184 0 184 184q0 185 -184 185q-69 0 -112 -26l-50 71q62 36 162 36
q266 0 266 -266t-266 -266q-162 0 -225 98q-64 -98 -226 -98q-266 0 -266 266z" />
    <glyph glyph-name="u1004" unicode="&#x1004;" horiz-adv-x="614" 
d="M306 532q229 0 266 -184l-80 -22q-27 125 -186 125q-184 0 -184 -185q0 -184 184 -184q159 0 186 125l80 -23q-37 -184 -266 -184q-266 0 -266 266t266 266z" />
    <glyph glyph-name="u1005" unicode="&#x1005;" horiz-adv-x="614" 
d="M251 87q26 -5 55 -5q185 0 185 184q0 185 -185 185q-29 0 -55 -6q55 -71 55 -179q0 -107 -55 -179zM199 427q-77 -42 -77 -161t77 -161q56 62 56 161q0 100 -56 161zM306 532q266 0 266 -266t-266 -266t-266 266t266 266z" />
    <glyph glyph-name="u1006" unicode="&#x1006;" horiz-adv-x="1064" 
d="M374 89q-94 101 -250 106q32 -113 182 -113q38 0 68 7zM757 451q-185 0 -185 -185q0 -184 185 -184q184 0 184 184q0 185 -184 185zM532 98q-64 -98 -226 -98q-228 0 -266 184v11q0 25 20 38t66 13q171 0 297 -135q68 44 68 155q0 185 -185 185q-158 0 -185 -125l-81 22
q38 184 266 184q162 0 226 -98q63 98 225 98q266 0 266 -266t-266 -266q-162 0 -225 98z" />
    <glyph glyph-name="u1007" unicode="&#x1007;" horiz-adv-x="614" 
d="M491 332q-19 75 -87 102q-32 -33 -32 -62q0 -62 61 -62q28 0 58 22zM550 342q15 -61 105 -74l-6 -51q-96 12 -133 70q-27 -28 -83 -28q-112 0 -112 113q0 34 28 75q-20 4 -43 4q-184 0 -184 -185q0 -184 184 -184q159 0 186 125l80 -23q-37 -184 -266 -184
q-266 0 -266 266t266 266q229 0 266 -184z" />
    <glyph glyph-name="u1008" unicode="&#x1008;" horiz-adv-x="778" 
d="M251 87q26 -5 55 -5q185 0 185 184q0 185 -185 185q-29 0 -55 -6q55 -71 55 -179q0 -107 -55 -179zM199 427q-77 -42 -77 -161t77 -161q56 62 56 161q0 100 -56 161zM383 6v-203q0 -100 91 -100h89q91 0 91 100v729h82v-729q0 -182 -173 -182h-89q-173 0 -173 182v197
q-261 3 -261 266q0 266 266 266t266 -266q0 -224 -189 -260z" />
    <glyph glyph-name="u1009" unicode="&#x1009;" horiz-adv-x="614" 
d="M122 48v-224q0 -121 142 -121h239q141 0 141 121v135h82v-135q0 -203 -223 -203h-239q-224 0 -224 203v360l81 23q27 -125 185 -125q185 0 185 184q0 185 -185 185q-158 0 -185 -125l-81 22q38 184 266 184q266 0 266 -266t-266 -266q-118 0 -184 48z" />
    <glyph glyph-name="u100A" unicode="&#x100a;" horiz-adv-x="1064" 
d="M491 266q0 185 -185 185q-158 0 -185 -125l-81 22q38 184 266 184q266 0 266 -266q0 -184 185 -184q184 0 184 184q0 185 -184 185q-69 0 -112 -26l-50 71q62 36 162 36q266 0 266 -266t-266 -266q-162 0 -225 98q-64 -98 -226 -98q-118 0 -184 48v-224q0 -121 142 -121
h536q141 0 141 121v135h82v-135q0 -203 -223 -203h-536q-224 0 -224 203v202v158l81 23q27 -125 185 -125q185 0 185 184z" />
    <glyph glyph-name="u100B" unicode="&#x100b;" horiz-adv-x="614" 
d="M572 -30q-92 -83 -266 -83q-93 0 -184 35v-66q92 -30 184 -30q166 0 266 65v-188h82v-82h-163v171q-94 -17 -185 -17q-161 0 -266 54v162l38 18q79 -70 228 -70q96 0 185 39v70q-67 -48 -185 -48q-266 0 -266 266t266 266q229 0 266 -184l-80 -22q-27 125 -186 125
q-184 0 -184 -185q0 -184 184 -184q159 0 186 125l80 -23v-214z" />
    <glyph glyph-name="u100C" unicode="&#x100c;" horiz-adv-x="614" 
d="M572 -176q0 -203 -192 -203h-146q-194 0 -194 163t194 163h105v-82h-105q-112 0 -112 -81t112 -81h146q111 0 111 121v224q-67 -48 -185 -48q-266 0 -266 266t266 266q229 0 266 -184l-80 -22q-27 125 -186 125q-184 0 -184 -185q0 -184 184 -184q159 0 186 125l80 -23
v-360z" />
    <glyph glyph-name="u100D" unicode="&#x100d;" horiz-adv-x="614" 
d="M122 48v-90q88 -40 184 -40q150 0 229 91l37 -18v-288h82v-82h-163v260q-92 -45 -185 -45q-174 0 -266 83v265l81 23q27 -125 185 -125q185 0 185 184q0 185 -185 185q-158 0 -185 -125l-81 22q38 184 266 184q266 0 266 -266t-266 -266q-118 0 -184 48z" />
    <glyph glyph-name="u100E" unicode="&#x100e;" horiz-adv-x="614" 
d="M40 266q0 39 26.5 80t85.5 65q19 8 19 24t-20 16h-111v81h111q102 0 102 -95q0 -65 -66 -93q-65 -28 -65 -78q0 -184 184 -184q185 0 185 184q0 159 -125 186l22 80q184 -37 184 -266q0 -266 -266 -266t-266 266z" />
    <glyph glyph-name="u100F" unicode="&#x100f;" horiz-adv-x="1044" 
d="M587 83q-45 67 -45 183q0 119 46 185q-19 30 -67 30t-66 -30q46 -66 46 -185q0 -116 -45 -183q3 -32 65 -32q63 0 66 32zM626 490q55 42 146 42q231 0 231 -266t-231 -266v82q149 0 149 184q0 185 -149 185q-148 0 -148 -185q0 -108 51 -152q-7 -114 -154 -114
q-146 0 -153 114q51 44 51 152q0 185 -149 185q-148 0 -148 -185q0 -184 148 -184v-82q-230 0 -230 266t230 266q92 0 147 -42q31 42 104 42q74 0 105 -42z" />
    <glyph glyph-name="u1010" unicode="&#x1010;" horiz-adv-x="1064" 
d="M306 451q-184 0 -184 -185q0 -184 184 -184q185 0 185 184q0 185 -185 185zM572 266q0 -266 -266 -266t-266 266t266 266q162 0 226 -98q63 98 225 98q266 0 266 -266t-266 -266q-100 0 -162 37l50 71q43 -26 112 -26q184 0 184 184q0 185 -184 185q-185 0 -185 -185z
" />
    <glyph glyph-name="u1011" unicode="&#x1011;" horiz-adv-x="1064" 
d="M757 451q-185 0 -185 -185q0 -184 185 -184q184 0 184 184q0 185 -184 185zM306 451q-184 0 -184 -185q0 -184 184 -184q185 0 185 184q0 185 -185 185zM532 434q63 98 225 98q266 0 266 -266t-266 -266q-162 0 -225 98q-64 -98 -226 -98q-266 0 -266 266t266 266
q162 0 226 -98z" />
    <glyph glyph-name="u1012" unicode="&#x1012;" horiz-adv-x="614" 
d="M337 307q154 6 154 69q0 75 -185 75q-184 0 -184 -85h-82q0 166 266 166t266 -156q0 -74 -89 -110q89 -35 89 -109q0 -157 -266 -157t-266 167h82q0 -85 184 -85q185 0 185 75q0 62 -154 68h-31v82h31z" />
    <glyph glyph-name="u1013" unicode="&#x1013;" horiz-adv-x="614" 
d="M487 219q4 22 4 47q0 185 -185 185q-184 0 -184 -185q0 -25 3 -47q62 47 181 47t181 -47zM141 166q40 -84 165 -84t165 84q-53 49 -165 49q-111 0 -165 -49zM306 532q266 0 266 -266t-266 -266t-266 266t266 266z" />
    <glyph glyph-name="u1014" unicode="&#x1014;" horiz-adv-x="614" 
d="M264 84q-8 100 -91 100q-51 0 -51 -30q0 -63 142 -70zM265 2q-225 13 -225 152q0 92 123 92q54 0 125 -41q49 -35 58 -121q145 8 145 80q0 47 -81 68l-108 29q-160 43 -160 138q0 133 154 133q174 0 174 -143h-82q0 62 -92 62q-72 0 -72 -52q0 -32 91 -57l108 -29
q149 -40 149 -149q0 -148 -225 -162v-381h-82v381z" />
    <glyph glyph-name="u1015" unicode="&#x1015;" horiz-adv-x="614" 
d="M40 266q0 229 184 266l23 -80q-125 -27 -125 -186q0 -184 184 -184q185 0 185 184q0 159 -125 186l22 80q184 -37 184 -266q0 -266 -266 -266t-266 266z" />
    <glyph glyph-name="u1016" unicode="&#x1016;" horiz-adv-x="614" 
d="M462 150q-135 132 -135 293q0 50 12.5 69.5t48.5 19.5q184 -37 184 -266q0 -266 -266 -266t-266 266q0 229 184 266l23 -80q-125 -27 -125 -186q0 -184 184 -184q112 0 156 68zM378 449v-21q4 -130 104 -229q9 29 9 67q0 151 -113 183z" />
    <glyph glyph-name="u1017" unicode="&#x1017;" horiz-adv-x="614" 
d="M178 420q-56 -47 -56 -154q0 -184 184 -184q185 0 185 184q0 107 -57 154q-44 -59 -128 -59t-128 59zM227 446q31 -33 79 -33t79 33q-9 4 -19 6l22 80q184 -37 184 -266q0 -266 -266 -266t-266 266q0 229 184 266l23 -80q-10 -2 -20 -6z" />
    <glyph glyph-name="u1018" unicode="&#x1018;" horiz-adv-x="1064" 
d="M491 266q0 185 -185 185q-158 0 -185 -125l-81 22q38 184 266 184q162 0 226 -98q63 98 225 98q266 0 266 -266t-266 -266q-100 0 -162 37l50 71q43 -26 112 -26q184 0 184 184q0 185 -184 185q-185 0 -185 -185q0 -266 -266 -266q-228 0 -266 184l81 23
q27 -125 185 -125q185 0 185 184z" />
    <glyph glyph-name="u1019" unicode="&#x1019;" horiz-adv-x="614" 
d="M141 166q40 -84 165 -84t165 84q-53 49 -165 49q-111 0 -165 -49zM125 219q62 47 181 47t181 -47q4 22 4 47q0 159 -125 186l22 80q184 -37 184 -266q0 -266 -266 -266t-266 266q0 229 184 266l23 -80q-125 -27 -125 -186q0 -25 3 -47z" />
    <glyph glyph-name="u101A" unicode="&#x101a;" horiz-adv-x="1081" 
d="M306 0q-266 0 -266 266q0 229 184 266l23 -80q-125 -27 -125 -186q0 -184 184 -184q185 0 185 184q0 159 -125 186l22 80q184 -37 184 -266q0 -184 185 -184q184 0 184 184q0 185 -184 185q-69 0 -112 -26l-50 71q62 36 162 36q266 0 266 -266t-266 -266q-162 0 -225 98
q-64 -98 -226 -98z" />
    <glyph glyph-name="u101B" unicode="&#x101b;" horiz-adv-x="614" 
d="M380.5 20.5q-21.5 -20.5 -74.5 -20.5q-266 0 -266 266t266 266t266 -266v-563h82v-82h-163v645q0 185 -185 185q-184 0 -184 -185q0 -14 1 -26q26 6 46 6q95 0 159 -42q31 -21 53 -52q21 -31 21 -87q0 -24 -21.5 -44.5zM342 84q-6 40 -20 55q-19 19 -42 31
q-49 25 -111 25q-16 0 -37 -7q34 -106 174 -106q20 0 36 2z" />
    <glyph glyph-name="u101C" unicode="&#x101c;" horiz-adv-x="1086" 
d="M491 266q0 185 -185 185q-184 0 -184 -185q0 -184 184 -184q69 0 112 26l50 -71q-62 -37 -162 -37q-266 0 -266 266t266 266t266 -266q0 -184 185 -184q184 0 184 184q0 185 -184 185q-69 0 -112 -26l-50 71q62 36 162 36q266 0 266 -266t-266 -266t-266 266z" />
    <glyph glyph-name="u101D" unicode="&#x101d;" horiz-adv-x="614" 
d="M306 451q-184 0 -184 -185q0 -184 184 -184q185 0 185 184q0 185 -185 185zM306 532q266 0 266 -266t-266 -266t-266 266t266 266z" />
    <glyph glyph-name="u101E" unicode="&#x101e;" horiz-adv-x="1064" 
d="M306 451q-158 0 -185 -125l-81 22q38 184 266 184q266 0 266 -266q0 -184 185 -184q184 0 184 184q0 185 -184 185q-69 0 -112 -26l-50 71q62 36 162 36q266 0 266 -266t-266 -266q-162 0 -225 98q-64 -98 -226 -98q-228 0 -266 184l81 23q27 -125 185 -125
q185 0 185 184q0 185 -185 185z" />
    <glyph glyph-name="u101F" unicode="&#x101f;" horiz-adv-x="1064" 
d="M572 266q0 -266 -266 -266t-266 266q0 229 184 266l23 -80q-125 -27 -125 -186q0 -184 184 -184q185 0 185 184q0 159 -125 186l22 80q99 -20 146 -96q63 96 223 96q266 0 266 -266t-266 -266q-100 0 -162 37l50 71q43 -26 112 -26q184 0 184 184q0 185 -184 185
q-185 0 -185 -185z" />
    <glyph glyph-name="u1020" unicode="&#x1020;" horiz-adv-x="614" 
d="M572 -81q-92 -83 -266 -83q-93 0 -184 35v-78q0 -90 112 -90h146q111 0 111 90h81q0 -172 -192 -172h-146q-194 0 -194 172v188l38 8q79 -71 228 -71q96 0 185 40v90q-67 -48 -185 -48q-266 0 -266 266t266 266q229 0 266 -184l-80 -22q-27 125 -186 125
q-184 0 -184 -185q0 -184 184 -184q159 0 186 125l80 -23v-265z" />
    <glyph glyph-name="u1021" unicode="&#x1021;" horiz-adv-x="1094" 
d="M734 82q141 0 174 106q-20 7 -36 7q-63 0 -111 -25q-24 -12 -42 -31q-14 -15 -21 -55q17 -2 36 -2zM537 468q66 64 197 64q267 0 267 -266t-267 -266q-53 0 -74.5 20.5t-21.5 44.5q0 56 22 87q21 31 53 52q63 42 159 42q20 0 46 -6q1 12 1 26q0 185 -185 185
q-123 0 -164 -82q-4 -69 -89 -103q89 -35 89 -109q0 -157 -266 -157t-266 167h82q0 -85 184 -85q185 0 185 75q0 62 -154 68h-31v82h31q154 6 154 69q0 75 -185 75q-184 0 -184 -85h-82q0 166 266 166q171 0 233 -64z" />
    <glyph glyph-name="u1022" unicode="&#x1022;" horiz-adv-x="1064" 
d="M306 532q162 0 226 -98q63 98 225 98q266 0 266 -266t-266 -266q-100 0 -162 37l50 71q43 -26 112 -26q184 0 184 184q0 185 -184 185q-185 0 -185 -185q0 -228 -184 -266l-22 81q125 27 125 185q0 185 -185 185q-184 0 -184 -185q0 -50 65 -78q66 -27 66 -93
q0 -95 -102 -95h-111v82h111q20 0 20 15q0 17 -19 25q-59 23 -85.5 64t-26.5 80q0 266 266 266z" />
    <glyph glyph-name="u1023" unicode="&#x1023;" horiz-adv-x="1064" 
d="M808 -297h113v-82h-272q-17 0 -32 2l18 81q7 -1 14 -1q98 0 98 97q0 98 -98 98q-77 0 -77 -98q0 -151 -128 -175l-28 80q75 10 75 95q0 98 -98 98q-97 0 -97 -98q0 -85 75 -95l-29 -80q-128 24 -128 175q0 180 179 180q83 0 128 -50q45 50 128 50q179 0 179 -180
q0 -44 -20 -97zM532 434q63 98 225 98q266 0 266 -266t-266 -266q-100 0 -162 37l50 71q43 -26 112 -26q184 0 184 184q0 185 -184 185q-185 0 -185 -185q0 -228 -184 -266l-22 81q125 27 125 185q0 185 -185 185q-184 0 -184 -185q0 -158 125 -185l-23 -81
q-184 38 -184 266q0 266 266 266q162 0 226 -98z" />
    <glyph glyph-name="u1024" unicode="&#x1024;" horiz-adv-x="1228" 
d="M921 635q266 0 266 -246v-768h-82v768q0 164 -184 164q-180 0 -180 179t180 179q179 0 179 -179h-82q0 97 -97 97q-98 0 -98 -97t98 -97zM1023 -176q0 -203 -192 -203h-597q-194 0 -194 163t194 163h607v-82h-607q-112 0 -112 -81t112 -81h597q110 0 110 121v442
q0 185 -184 185q-185 0 -185 -185q0 -228 -184 -266l-22 81q125 27 125 185q0 185 -185 185q-184 0 -184 -185q0 -158 125 -185l-23 -81q-184 38 -184 266q0 266 266 266q162 0 226 -98q63 98 225 98q266 0 266 -266v-442z" />
    <glyph glyph-name="u1025" unicode="&#x1025;" horiz-adv-x="614" 
d="M122 -176q0 -121 111 -121h146q112 0 112 81t-112 81h-6v82h6q193 0 193 -163t-193 -163h-146q-193 0 -193 203v360l81 23q27 -125 185 -125q185 0 185 184q0 185 -185 185q-158 0 -185 -125l-81 22q38 184 266 184q266 0 266 -266t-266 -266q-118 0 -184 48v-224z" />
    <glyph glyph-name="u1026" unicode="&#x1026;" horiz-adv-x="614" 
d="M122 -176q0 -121 111 -121h146q112 0 112 81t-112 81h-106v82h106q193 0 193 -163t-193 -163h-146q-193 0 -193 203v360l81 23q27 -125 185 -125q185 0 185 184q0 185 -185 185q-158 0 -185 -125l-81 22q38 184 266 184q266 0 266 -266t-266 -266q-118 0 -184 48v-224z
M224 671q23 -36 82 -36q60 0 82 36q-46 20 -82 20t-82 -20zM404 723v9q0 97 -98 97q-97 0 -97 -97v-9q56 19 97 19t98 -19zM306 911q179 0 179 -179t-179 -179t-179 179t179 179z" />
    <glyph glyph-name="u1027" unicode="&#x1027;" horiz-adv-x="614" 
d="M482 175l-14 -1q-141 -4 -235 -83q31 -9 73 -9q137 0 176 93zM184 115q127 110 299 110q50 0 69.5 -12.5t19.5 -28.5q-37 -184 -266 -184q-266 0 -266 266t266 266q229 0 266 -184q0 -15 -19.5 -28t-69.5 -13q-172 0 -299 111q-62 -44 -62 -152q0 -107 62 -151zM233 441
q94 -79 235 -83l14 -1q-39 94 -176 94q-42 0 -73 -10z" />
    <glyph glyph-name="u1028" unicode="&#x1028;" horiz-adv-x="614" 
d="M334 197v-65q0 -50 79 -50q78 0 78 184q0 185 -185 185q-184 0 -184 -185v-379q0 -184 184 -184q185 0 185 184h81q0 -266 -266 -266t-266 266v379q0 266 266 266t266 -266t-159 -266q-161 0 -161 132v75l41 19q64 29 64 61q0 41 -50 41q-52 0 -52 -49h-51q0 100 103 100
q102 0 102 -92q0 -46 -75 -90z" />
    <glyph glyph-name="u1029" unicode="&#x1029;" horiz-adv-x="1228" 
d="M972 3v-169q0 -213 -223 -213h-485q-224 0 -224 213v864q0 213 224 213h556v-82h-556q-142 0 -142 -131v-864q0 -131 142 -131h485q141 0 141 131v167q-137 8 -195 97q-63 -98 -225 -98q-228 0 -266 184l81 23q26 -125 185 -125q184 0 184 184q0 185 -184 185
q-159 0 -185 -125l-81 22q38 184 266 184q266 0 266 -266q0 -184 185 -184q184 0 184 184q0 185 -184 185q-69 0 -112 -26l-50 71q62 36 162 36q266 0 266 -266q0 -239 -215 -263z" />
    <glyph glyph-name="u102A" unicode="&#x102a;" horiz-adv-x="2293" 
d="M184 115q127 131 299 131q50 0 69.5 -13t19.5 -38v-11q-37 -184 -266 -184q-266 0 -266 266t266 266q229 0 266 -184l-80 -22q-27 125 -186 125q-184 0 -184 -185q0 -106 62 -151zM489 195h-21q-141 -5 -237 -104q33 -9 75 -9q151 0 183 113zM1965 829q-97 0 -97 -97
t97 -97v-82q-179 0 -179 179t179 179t179 -179h-82q0 97 -97 97zM1801 266q0 -239 -215 -263v-169q0 -213 -223 -213h-484q-225 0 -225 213v864q0 213 225 213h556v-82h-556q-143 0 -143 -131v-864q0 -131 143 -131h484q141 0 141 131v167q-137 8 -194 97q-64 -98 -226 -98
q-228 0 -266 184l81 23q27 -125 185 -125q185 0 185 184q0 185 -185 185q-158 0 -185 -125l-81 22q38 184 266 184q267 0 267 -266q0 -184 184 -184t184 184q0 185 -184 185q-69 0 -112 -26l-50 71q63 36 162 36q162 0 225 -98q64 98 226 98q266 0 266 -266t-266 -266
q-100 0 -162 37l50 71q43 -26 112 -26q184 0 184 184q0 185 -184 185q-185 0 -185 -185z" />
    <glyph glyph-name="u102B" unicode="&#x102b;" horiz-adv-x="163" 
d="M-51 788q-92 0 -92 -105h-82q0 187 174 187t174 -187v-683h-82v683q0 105 -92 105z" />
    <glyph glyph-name="u102C" unicode="&#x102c;" horiz-adv-x="511" 
d="M174 82q185 0 185 184q0 185 -185 185q-184 0 -184 -185h-82q0 266 266 266t266 -266t-266 -266q-99 0 -122 37l51 71q3 -26 71 -26z" />
    <glyph glyph-name="u102D" unicode="&#x102d;" 
d="M-207 869q-97 0 -97 -97t97 -97t97 97t-97 97zM-207 951q179 0 179 -179t-179 -179t-179 179t179 179z" />
    <glyph glyph-name="u102E" unicode="&#x102e;" 
d="M-289 711q23 -36 82 -36q60 0 82 36q-46 20 -82 20t-82 -20zM-110 763v9q0 97 -97 97t-97 -97v-9q56 19 97 19t97 -19zM-207 951q179 0 179 -179t-179 -179t-179 179t179 179z" />
    <glyph glyph-name="u102F" unicode="&#x102f;" horiz-adv-x="223" 
d="M40 532h82v-829h98v-82h-180v911z" />
    <glyph glyph-name="u1030" unicode="&#x1030;" horiz-adv-x="362" 
d="M40 532h82v-911h-82v911zM183 532h82v-829h79v-82h-161v911z" />
    <glyph glyph-name="u1031" unicode="&#x1031;" horiz-adv-x="614" 
d="M184 115q127 131 299 131q50 0 69.5 -13t19.5 -38v-11q-37 -184 -266 -184q-266 0 -266 266t266 266q229 0 266 -184l-80 -22q-27 125 -186 125q-184 0 -184 -185q0 -106 62 -151zM489 195h-21q-141 -5 -237 -104q33 -9 75 -9q151 0 183 113z" />
    <glyph glyph-name="u1032" unicode="&#x1032;" 
d="M-429 959l271 -272l-57 -57l-272 272z" />
    <glyph glyph-name="u1033" unicode="&#x1033;" 
d="M-214 878q-111 0 -111 -112q0 -111 111 -111t111 111q0 112 -111 112zM-214 951q185 0 185 -185q0 -186 -185 -186q-186 0 -186 186q0 185 186 185zM-213 830q66 0 66 -66t-66 -66t-66 66t66 66zM-189 766q0 25 -25 25q-26 0 -26 -25q0 -26 26 -26q25 0 25 26z" />
    <glyph glyph-name="u1034" unicode="&#x1034;" 
d="M-128 902l-261 -262l-58 57l262 262z" />
    <glyph glyph-name="u1035" unicode="&#x1035;" 
d="M-217 553q-179 0 -179 179t179 179q144 0 172 -115l-79 -31q-14 64 -93 64q-97 0 -97 -97v-3q52 13 97 13q66 0 118.5 -22t52.5 -55q-29 -112 -171 -112zM-304 674q18 -49 87 -49q70 0 87 49q-45 17 -87 17t-87 -17z" />
    <glyph glyph-name="u1036" unicode="&#x1036;" 
d="M-156 798q112 0 112 -112q0 -113 -112 -113q-113 0 -113 113q0 112 113 112zM-115 686q0 41 -41 41t-41 -41t41 -41t41 41z" />
    <glyph glyph-name="u1037" unicode="&#x1037;" 
d="M-156 -51q112 0 112 -113q0 -112 -112 -112q-113 0 -113 112q0 113 113 113zM-115 -164q0 41 -41 41t-41 -41t41 -41t41 41z" />
    <glyph glyph-name="u1038" unicode="&#x1038;" horiz-adv-x="338" 
d="M153 532q112 0 112 -112q0 -113 -112 -113q-113 0 -113 113q0 112 113 112zM194 420q0 41 -41 41t-41 -41t41 -41t41 41zM153 225q112 0 112 -112q0 -113 -112 -113q-113 0 -113 113q0 112 113 112zM194 113q0 41 -41 41t-41 -41t41 -41t41 41z" />
    <glyph glyph-name="u1039" unicode="&#x1039;" 
d="M-223 -185h-105v59h105v106h59v-106h105v-59h-105v-105h-59v105z" />
    <glyph glyph-name="u103A" unicode="&#x103a;" horiz-adv-x="55" 
d="M-180 830q-95 0 -95 -95t95 -95l10 -80q-185 0 -185 175t175 175t175 -175h-80q0 95 -95 95z" />
    <glyph glyph-name="u103B" unicode="&#x103b;" horiz-adv-x="163" 
d="M42 -379l-241 125v234h82v-184l159 -88v824h82v-911h-82z" />
    <glyph glyph-name="u103C" unicode="&#x103c;" horiz-adv-x="230" 
d="M80 698q0 213 224 213h270q223 0 223 -213v-84h-82v84q0 131 -141 131h-270q-142 0 -142 -131v-864q0 -131 142 -131h270q141 0 141 131v268h82v-268q0 -213 -223 -213h-270q-224 0 -224 213v864z" />
    <glyph glyph-name="u103D" unicode="&#x103d;" horiz-adv-x="1" 
d="M-217 -102q-97 0 -97 -98q0 -97 97 -97t97 97q0 98 -97 98zM-217 -20q179 0 179 -180q0 -179 -179 -179t-179 179q0 180 179 180z" />
    <glyph glyph-name="u103E" unicode="&#x103e;" 
d="M-197 -384v83h100v280h95v-363h-195z" />
    <glyph glyph-name="u103F" unicode="&#x103f;" horiz-adv-x="1515" 
d="M982 98q-63 -98 -225 -98t-225 98q-64 -98 -226 -98q-228 0 -266 184l81 23q27 -125 185 -125q185 0 185 184q0 185 -185 185q-158 0 -185 -125l-81 22q38 184 266 184q266 0 266 -266q0 -184 185 -184q184 0 184 184q0 185 -184 185q-69 0 -112 -26l-50 71q62 36 162 36
q266 0 266 -266q0 -184 184 -184q185 0 185 184q0 185 -185 185q-68 0 -111 -26l-50 71q62 36 161 36q267 0 267 -266t-267 -266q-161 0 -225 98z" />
    <glyph glyph-name="u1040" unicode="&#x1040;" horiz-adv-x="641" 
d="M274 1q-234 16 -234 265t234 265v-82q-152 -15 -152 -183q0 -167 152 -182v-83zM345 532q237 -15 237 -266t-237 -265v82q156 14 156 183t-156 184v82z" />
    <glyph glyph-name="u1041" unicode="&#x1041;" horiz-adv-x="614" 
d="M572 266q0 -266 -266 -266q-228 0 -266 184l81 23q27 -125 185 -125q185 0 185 184q0 185 -185 185q-158 0 -185 -125l-81 22q38 184 266 184q266 0 266 -266z" />
    <glyph glyph-name="u1042" unicode="&#x1042;" horiz-adv-x="614" 
d="M40 -41h82q0 -184 184 -184q185 0 185 184v573h81v-573q0 -266 -266 -266t-266 266z" />
    <glyph glyph-name="u1043" unicode="&#x1043;" horiz-adv-x="614" 
d="M132 41q-73 46 -92 143l81 23q27 -125 185 -125q185 0 185 184q0 185 -185 185q-158 0 -185 -125l-81 22q38 184 266 184q266 0 266 -266t-266 -266q-14 0 -28 1l208 -210l-57 -57l-302 302z" />
    <glyph glyph-name="u1044" unicode="&#x1044;" horiz-adv-x="614" 
d="M485 36l-302 -302l-57 57l209 210q-14 -1 -29 -1q-266 0 -266 266t266 266q229 0 266 -184l-80 -22q-27 125 -186 125q-184 0 -184 -185q0 -184 184 -184q159 0 186 125l80 -23q-19 -97 -92 -143z" />
    <glyph glyph-name="u1045" unicode="&#x1045;" horiz-adv-x="614" 
d="M148 379h5q112 0 112 -113q0 -112 -112 -112q-113 0 -113 112q0 266 266 266t266 -266v-304q0 -269 -266 -269t-266 269h82q0 -187 184 -187q185 0 185 187v304q0 185 -185 185q-114 0 -158 -72zM194 266q0 41 -41 41t-41 -41t41 -41t41 41z" />
    <glyph glyph-name="u1046" unicode="&#x1046;" horiz-adv-x="614" 
d="M251 420q0 112 113 112q112 0 112 -112q0 -41 -14 -67l8 -4l102 -51v-32q0 -266 -266 -266t-266 266v307q0 267 266 267t266 -267h-81q0 185 -185 185q-184 0 -184 -185v-307q0 -184 184 -184q168 0 183 164l-186 93q-52 25 -52 81zM405 420q0 41 -41 41t-41 -41
q0 -31 41 -31t41 31z" />
    <glyph glyph-name="u1047" unicode="&#x1047;" horiz-adv-x="614" 
d="M491 266q0 185 -185 185q-184 0 -184 -154q0 -101 128 -176l-36 -60q-174 41 -174 236q0 235 266 235t266 -266q0 -137 -168.5 -249t-168.5 -222q0 -71 66 -71q67 0 67 71v51h82v-51q0 -153 -149 -153q-148 0 -148 153q0 135 169 247.5t169 223.5z" />
    <glyph glyph-name="u1048" unicode="&#x1048;" horiz-adv-x="614" 
d="M286 86q0 -46 -13 -66t-38 -20h-11q-184 38 -184 266q0 266 266 266t266 -266q0 -228 -184 -266l-22 81q125 27 125 185q0 185 -185 185q-111 0 -155 -68q135 -126 135 -297zM122 266q0 -150 113 -182q-5 156 -106 250q-7 -30 -7 -68z" />
    <glyph glyph-name="u1049" unicode="&#x1049;" horiz-adv-x="614" 
d="M303 194l186 93q-15 164 -183 164q-184 0 -184 -185v-307q0 -184 184 -184q185 0 185 184h81q0 -266 -266 -266t-266 266v307q0 266 266 266t266 -266v-32l-102 -51l-8 -4q14 -25 14 -66q0 -113 -112 -113q-113 0 -113 113q0 56 52 81zM364 143q-41 0 -41 -30
q0 -41 41 -41t41 41q0 30 -41 30z" />
    <glyph glyph-name="u104A" unicode="&#x104a;" horiz-adv-x="163" 
d="M122 532v-532h-82v532h82z" />
    <glyph glyph-name="u104B" unicode="&#x104b;" horiz-adv-x="307" 
d="M265 532v-532h-82v532h82zM122 532v-532h-82v532h82z" />
    <glyph glyph-name="u104C" unicode="&#x104c;" horiz-adv-x="614" 
d="M306 829q-97 0 -97 -97t97 -97v-82q-179 0 -179 179t179 179t179 -179h-81q0 97 -98 97zM40 184l81 23q27 -125 185 -125q185 0 185 184q0 185 -185 185q-158 0 -185 -125l-81 22q38 184 266 184q266 0 266 -266t-266 -266q-118 0 -184 48v-90q88 -40 184 -40
q150 0 229 71l37 -8v-188q0 -172 -193 -172h-146q-193 0 -193 172h82q0 -90 111 -90h146q112 0 112 90v78q-92 -35 -185 -35q-174 0 -266 83v265z" />
    <glyph glyph-name="u104D" unicode="&#x104d;" horiz-adv-x="778" 
d="M234 -379q-194 0 -194 163t194 163h177v-82h-177q-112 0 -112 -81t112 -81h310q110 0 110 121v565q0 164 -163 164q-180 0 -180 179t180 179q179 0 179 -179h-82q0 97 -97 97q-98 0 -98 -97t98 -97q245 0 245 -246v-565q0 -203 -192 -203h-310zM491 266q0 185 -185 185
q-184 0 -184 -185q0 -14 1 -26q26 6 46 6q95 0 159 -42q31 -21 53 -52q21 -31 21 -87q0 -24 -21.5 -44.5t-74.5 -20.5q-266 0 -266 266t266 266t266 -266v-469h-81v469zM342 84q-6 40 -20 55q-19 19 -42 31q-49 25 -111 25q-16 0 -37 -7q34 -106 174 -106q20 0 36 2z" />
    <glyph glyph-name="u104E" unicode="&#x104e;" horiz-adv-x="614" 
d="M572 -379h-81v427q-67 -48 -185 -48q-266 0 -266 266t266 266q229 0 266 -184l-80 -22q-27 125 -186 125q-184 0 -184 -185q0 -184 184 -184q159 0 186 125l80 -23v-563z" />
    <glyph glyph-name="u104F" unicode="&#x104f;" horiz-adv-x="942" 
d="M818 389q0 184 -164 184q-179 0 -179 159q0 179 179 179q180 0 180 -179h-82q0 97 -98 97q-97 0 -97 -97q0 -77 97 -77q246 0 246 -266v-389h-82v389zM482 175l-14 -1q-141 -4 -235 -83q31 -9 73 -9q137 0 176 93zM233 441q94 -79 235 -83l14 -1q-39 94 -176 94
q-42 0 -73 -10zM494 481q38 51 109 51q133 0 133 -187v-345h-82v345q0 106 -51 106q-41 0 -56 -32q17 -31 25 -71q0 -15 -19.5 -28t-69.5 -13q-172 0 -299 111q-62 -44 -62 -152q0 -107 62 -151q127 110 299 110q50 0 69.5 -12.5t19.5 -28.5q-37 -184 -266 -184
q-266 0 -266 266t266 266q120 0 188 -51z" />
    <glyph glyph-name="u1050" unicode="&#x1050;" horiz-adv-x="614" 
d="M306 317q51 0 51 -51t-51 -51t-51 51t51 51zM306 532q266 0 266 -266q0 -228 -184 -266l-22 81q125 27 125 185q0 185 -185 185q-184 0 -184 -185q0 -158 125 -185l-23 -81q-184 38 -184 266q0 266 266 266z" />
    <glyph glyph-name="u1051" unicode="&#x1051;" horiz-adv-x="614" 
d="M255 266q0 51 51 51t51 -51t-51 -51t-51 51zM40 266q0 229 184 266l23 -80q-125 -27 -125 -186q0 -184 184 -184q185 0 185 184q0 159 -125 186l22 80q184 -37 184 -266q0 -266 -266 -266t-266 266z" />
    <glyph glyph-name="u1052" unicode="&#x1052;" horiz-adv-x="614" 
d="M306 0q-266 0 -266 266q0 229 184 266l23 -80q-125 -27 -125 -186q0 -184 184 -184q185 0 185 184q0 50 -66 78t-66 93q0 95 103 95h110v-81h-110q-21 0 -21 -16t20 -24q58 -24 84.5 -65t26.5 -80q0 -266 -266 -266z" />
    <glyph glyph-name="u1053" unicode="&#x1053;" horiz-adv-x="614" 
d="M306 0q-266 0 -266 266q0 39 26.5 80t85.5 65q19 8 19 24t-20 16h-111v81h111q102 0 102 -95q0 -65 -66 -93q-65 -28 -65 -78q0 -184 184 -184q185 0 185 184q0 50 -66 78t-66 93q0 95 103 95h110v-81h-110q-21 0 -21 -16t20 -24q58 -24 84.5 -65t26.5 -80
q0 -266 -266 -266z" />
    <glyph glyph-name="u1054" unicode="&#x1054;" horiz-adv-x="614" 
d="M122 266q0 -184 184 -184q159 0 186 125l80 -23q-37 -184 -266 -184q-266 0 -266 266t266 266q229 0 266 -184v-10q0 -26 -19.5 -38.5t-69.5 -12.5q-172 0 -299 131q-62 -45 -62 -152zM306 451q-42 0 -75 -10q96 -99 237 -103h21q-32 113 -183 113z" />
    <glyph glyph-name="u1055" unicode="&#x1055;" horiz-adv-x="614" 
d="M306 451q-42 0 -75 -10q96 -99 237 -103h21q-32 113 -183 113zM122 266q0 -184 80 -184q49 0 86 73q-2 18 -2 40h71q0 -113 65 -113q54 0 70 123l80 -16q-32 -189 -149 -189q-66 0 -103 76q-49 -76 -113 -76q-167 0 -167 266t266 266q229 0 266 -184v-10
q0 -26 -19.5 -38.5t-69.5 -12.5q-172 0 -299 131q-62 -45 -62 -152z" />
    <glyph glyph-name="u1056" unicode="&#x1056;" horiz-adv-x="450" 
d="M144 0q-266 0 -266 266h82q0 -184 184 -184q185 0 185 184q0 50 -66 78t-66 93q0 95 103 95h110v-81h-110q-21 0 -21 -16t20 -24q58 -24 84.5 -65t26.5 -80q0 -266 -266 -266z" />
    <glyph glyph-name="u1057" unicode="&#x1057;" horiz-adv-x="430" 
d="M389 266q0 -266 -166 -266q-65 0 -113 76q-38 -76 -103 -76q-117 0 -150 189l81 16q15 -113 70 -113q64 0 64 103h72q0 -22 -2 -40q37 -63 86 -63q80 0 80 174q0 50 -66 78t-66 93q0 95 103 95h110v-81h-110q-21 0 -21 -16t20 -24q58 -24 84.5 -65t26.5 -80z" />
    <glyph glyph-name="u1058" unicode="&#x1058;" 
d="M-136 -132q0 -24 -94 -65q-32 -13 -77 -13t-97 13v-3q0 -97 97 -97q79 0 93 65l79 -31q-28 -116 -172 -116q-179 0 -179 179q0 180 179 180q142 0 171 -112zM-307 -159q42 0 87 18q-17 49 -87 49q-69 0 -87 -49q45 -18 87 -18z" />
    <glyph glyph-name="u1059" unicode="&#x1059;" 
d="M-307 -159q42 0 87 18q-17 49 -87 49q-69 0 -87 -49q45 -18 87 -18zM-486 -200q0 180 179 180q142 0 171 -112q0 -24 -94 -65q-32 -13 -77 -13t-97 13v-3q0 -117 51 -117q31 0 31 66h51q0 -66 41 -66t41 66h61q0 -128 -102 -128q-41 0 -67 32q-25 -32 -66 -32
q-123 0 -123 179z" />
    <glyph glyph-name="u105A" unicode="&#x105a;" horiz-adv-x="614" 
d="M352 -128q0 36 -46 36t-46 -36h-72q0 108 118 108t118 -108q0 -65 -56.5 -97.5t-56.5 -52.5q0 -29 46 -29h34v-72h-34q-117 0 -117 101q0 52 56 81.5t56 68.5zM306 532q229 0 266 -184l-80 -22q-27 125 -186 125q-184 0 -184 -185q0 -184 184 -184q159 0 186 125l80 -23
q-37 -184 -266 -184q-266 0 -266 266t266 266z" />
    <glyph glyph-name="u105B" unicode="&#x105b;" horiz-adv-x="778" 
d="M404 10v-227q0 -80 70 -80h110q70 0 70 80v435q-102 12 -138 69q-27 -28 -83 -28q-112 0 -112 113q0 34 28 75q-20 4 -43 4q-184 0 -184 -185q0 -184 184 -184q159 0 186 125l80 -23q-28 -140 -168 -174zM491 332q-19 75 -87 102q-32 -33 -32 -62q0 -62 61 -62
q28 0 58 22zM322 0h-16q-266 0 -266 266t266 266q229 0 266 -184l-22 -6q15 -61 104 -74v264h82v-749q0 -162 -152 -162h-110q-152 0 -152 162v217z" />
    <glyph glyph-name="u105C" unicode="&#x105c;" horiz-adv-x="614" 
d="M306 451q-184 0 -184 -185q0 -184 184 -184q185 0 185 184q0 185 -185 185zM306 532q266 0 266 -266t-266 -266t-266 266t266 266zM306 369q103 0 103 -103q0 -102 -103 -102q-102 0 -102 102q0 103 102 103zM342 266q0 36 -36 36t-36 -36t36 -36t36 36z" />
    <glyph glyph-name="u105D" unicode="&#x105d;" horiz-adv-x="614" 
d="M141 166q40 -84 165 -84t165 84q-53 49 -165 49q-111 0 -165 -49zM506 67q66 -43 66 -157v-107q0 -182 -192 -182h-146q-194 0 -194 153q0 152 194 152h105v-82h-105q-112 0 -112 -70q0 -71 112 -71h146q111 0 111 100v107q0 87 -34 121q-60 -31 -151 -31
q-266 0 -266 266q0 229 184 266l23 -80q-125 -27 -125 -186q0 -25 3 -47q62 47 181 47t181 -47q4 22 4 47q0 159 -125 186l22 80q184 -37 184 -266q0 -133 -66 -199z" />
    <glyph glyph-name="u105E" unicode="&#x105e;" 
d="M-31 -197q0 -182 -192 -182h-146q-194 0 -194 153q0 152 194 152h257q-4 74 -34 105l49 36q61 -40 66 -141h105v-82h-105v-41zM-112 -156h-257q-112 0 -112 -70q0 -71 112 -71h146q111 0 111 100v41z" />
    <glyph glyph-name="u105F" unicode="&#x105f;" 
d="M-145 -119q-128 0 -128 -88q0 -87 77 -87t77 93h81q0 -179 -158 -179q-159 0 -159 173q0 155 198 169v38l84 -1v-119z" />
    <glyph glyph-name="u1060" unicode="&#x1060;" 
d="M-274 -295h190v-85h-283l-22 54l189 339l53 -64z" />
    <glyph glyph-name="u1061" unicode="&#x1061;" horiz-adv-x="614" 
d="M342 84q-6 40 -20 55q-19 19 -42 31q-49 25 -111 25q-16 0 -37 -7q34 -106 174 -106q20 0 36 2zM391 32v-411h-170v82h88v297h-3q-266 0 -266 266t266 266t266 -266v-563h82v-82h-163v645q0 185 -185 185q-184 0 -184 -185q0 -14 1 -26q26 6 46 6q95 0 159 -42
q31 -21 53 -52q21 -31 21 -87q0 -18 -11 -33z" />
    <glyph glyph-name="u1062" unicode="&#x1062;" horiz-adv-x="205" 
d="M134 0h-82v451h-82v81h164v-532z" />
    <glyph glyph-name="u1063" unicode="&#x1063;" horiz-adv-x="614" 
d="M122 48v-427h-82v563l81 23q27 -125 185 -125q185 0 185 184q0 185 -185 185q-158 0 -185 -125l-81 22q38 184 266 184q266 0 266 -266t-266 -266q-118 0 -184 48z" />
    <glyph glyph-name="u1064" unicode="&#x1064;" horiz-adv-x="163" 
d="M124 82h82v-82h-164v451h-82v81h164v-450z" />
    <glyph glyph-name="u1065" unicode="&#x1065;" horiz-adv-x="614" 
d="M572 266q0 -266 -266 -266q-228 0 -266 184l81 23q27 -125 185 -125q185 0 185 184q0 185 -185 185q-158 0 -185 -125l-81 22q38 184 266 184q266 0 266 -266z" />
    <glyph glyph-name="u1066" unicode="&#x1066;" horiz-adv-x="614" 
d="M471 39v-418h-190v82h108v305q-38 -8 -83 -8q-266 0 -266 266q0 229 184 266l23 -80q-125 -27 -125 -186q0 -184 184 -184q185 0 185 184q0 159 -125 186l22 80q184 -37 184 -266q0 -164 -101 -227z" />
    <glyph glyph-name="u1067" unicode="&#x1067;" horiz-adv-x="245" 
d="M118 102q0 36 -36 36q-35 0 -35 -36q0 -35 35 -35q36 0 36 35zM103 205v327h82v-430q0 -102 -103 -102q-102 0 -102 102q0 103 123 103z" />
    <glyph glyph-name="u1068" unicode="&#x1068;" horiz-adv-x="264" 
d="M154 0h-174v92h92v440h82v-532zM113 758q103 0 103 -103q0 -102 -103 -102q-102 0 -102 102q0 103 102 103zM149 655q0 36 -36 36t-36 -36q0 -35 36 -35t36 35z" />
    <glyph glyph-name="u1069" unicode="&#x1069;" horiz-adv-x="299" 
d="M122 146q0 -64 89 -64h46v-82h-46q-171 0 -171 146q0 81 67.5 131t67.5 108q0 66 -89 66h-46v81h46q171 0 171 -147q0 -81 -67.5 -130.5t-67.5 -108.5z" />
    <glyph glyph-name="u106A" unicode="&#x106a;" horiz-adv-x="163" 
d="M-15 82q57 0 57 95v355h81v-355q0 -177 -138 -177t-138 177h82q0 -95 56 -95z" />
    <glyph glyph-name="u106B" unicode="&#x106b;" horiz-adv-x="163" 
d="M-71 355h-82q0 177 138 177t138 -177v-355h-81v355q0 96 -57 96q-56 0 -56 -96z" />
    <glyph glyph-name="u106C" unicode="&#x106c;" horiz-adv-x="163" 
d="M235 177h81q0 -177 -138 -177t-138 177v355h82v-355q0 -95 56 -95q57 0 57 95z" />
    <glyph glyph-name="u106D" unicode="&#x106d;" horiz-adv-x="299" 
d="M40 385q0 147 171 147h46v-81h-46q-89 0 -89 -66q0 -58 67.5 -108t67.5 -131q0 -146 -171 -146h-46v82h46q89 0 89 64q0 59 -67.5 108.5t-67.5 130.5z" />
    <glyph glyph-name="u106E" unicode="&#x106e;" horiz-adv-x="1249" 
d="M398 522q41 10 93 10q161 0 225 -98q63 98 225 98q266 0 266 -266t-266 -266q-99 0 -162 37l51 71q43 -26 111 -26q184 0 184 184q0 185 -184 185t-184 -185q0 -228 -185 -266l-22 81q125 27 125 185q0 169 -154 184q51 -66 51 -184q0 -228 -184 -266l-22 81
q125 27 125 185q0 185 -185 185q-184 0 -184 -185q0 -158 125 -185l-23 -81q-184 38 -184 266q0 266 266 266q51 0 92 -10z" />
    <glyph glyph-name="u106F" unicode="&#x106f;" horiz-adv-x="1064" 
d="M813 3v-382h-180v82h98v298q-82 4 -136 36l50 71q43 -26 112 -26q184 0 184 184q0 185 -184 185q-185 0 -185 -185q0 -266 -266 -266t-266 266q0 229 184 266l23 -80q-125 -27 -125 -186q0 -184 184 -184q185 0 185 184q0 159 -125 186l22 80q99 -20 146 -96
q63 96 223 96q266 0 266 -266q0 -236 -210 -263z" />
    <glyph glyph-name="u1070" unicode="&#x1070;" horiz-adv-x="1064" 
d="M813 3v-382h-180v82h98v298q-141 7 -199 97q-64 -98 -226 -98q-266 0 -266 266q0 39 26.5 80t85.5 65q19 8 19 24t-20 16h-111v81h111q102 0 102 -95q0 -65 -66 -93q-65 -28 -65 -78q0 -184 184 -184q185 0 185 184q0 159 -125 186l22 80q184 -37 184 -266
q0 -184 185 -184q184 0 184 184q0 185 -184 185q-69 0 -112 -26l-50 71q62 36 162 36q266 0 266 -266q0 -236 -210 -263z" />
    <glyph glyph-name="u1071" unicode="&#x1071;" 
d="M-128 845q96 0 96 -103q0 -102 -96 -102q-95 0 -95 102q0 103 95 103zM-92 742q0 36 -36 36q-35 0 -35 -36q0 -35 35 -35q36 0 36 35zM-347 845q95 0 95 -103q0 -102 -95 -102t-95 102q0 103 95 103zM-311 742q0 36 -36 36t-36 -36q0 -35 36 -35t36 35z" />
    <glyph glyph-name="u1072" unicode="&#x1072;" 
d="M-195 830q-95 0 -95 -95t95 -95l10 -80q-185 0 -185 175t175 175t175 -175h-80q0 95 -95 95z" />
    <glyph glyph-name="u1073" unicode="&#x1073;" 
d="M-307 889l271 -270l-68 -56l-203 202l-203 -202l-67 56z" />
    <glyph glyph-name="u1074" unicode="&#x1074;" 
d="M-568 873l67 56l203 -202l203 202l68 -56l-271 -270z" />
    <glyph glyph-name="u1075" unicode="&#x1075;" horiz-adv-x="614" 
d="M306 532q266 0 266 -266q0 -228 -184 -266l-22 81q125 27 125 185q0 185 -185 185q-184 0 -184 -185q0 -50 65 -78q66 -27 66 -93q0 -95 -102 -95h-111v82h111q20 0 20 15q0 17 -19 25q-59 23 -85.5 64t-26.5 80q0 266 266 266z" />
    <glyph glyph-name="u1076" unicode="&#x1076;" horiz-adv-x="614" 
d="M376 89q-95 101 -250 106q31 -113 182 -113q38 0 68 7zM45 360q-75 20 -75 122v50h51v-50q0 -57 42 -70q61 120 245 120q266 0 266 -266t-266 -266q-228 0 -266 184v11q0 25 20 38t66 13q171 0 297 -135q67 44 67 155q0 185 -184 185q-159 0 -185 -125l-81 22q1 6 3 12z
" />
    <glyph glyph-name="u1077" unicode="&#x1077;" horiz-adv-x="614" 
d="M491 266q0 38 -9 68q-100 -100 -104 -230v-20q113 32 113 182zM306 451q-184 0 -184 -185q0 -50 65 -78q66 -27 66 -93q0 -95 -102 -95h-111v82h111q20 0 20 15q0 17 -19 25q-59 23 -85.5 64t-26.5 80q0 266 266 266t266 -266q0 -228 -184 -266q-36 0 -48.5 20t-12.5 69
q0 162 135 294q-44 68 -156 68z" />
    <glyph glyph-name="u1078" unicode="&#x1078;" horiz-adv-x="1064" 
d="M572 266q0 -184 185 -184q184 0 184 184q0 185 -184 185q-185 0 -185 -185zM306 451q-184 0 -184 -185q0 -184 184 -184q69 0 112 26l50 -71q-62 -37 -162 -37q-266 0 -266 266t266 266q162 0 226 -98q63 98 225 98q266 0 266 -266t-266 -266t-266 266q0 185 -185 185z
" />
    <glyph glyph-name="u1079" unicode="&#x1079;" horiz-adv-x="1064" 
d="M572 266q0 -184 185 -184q184 0 184 184q0 185 -184 185q-185 0 -185 -185zM342 84q-6 40 -20 55q-19 19 -42 31q-49 25 -111 25q-16 0 -37 -7q34 -106 174 -106q20 0 36 2zM40 266q0 266 266 266q162 0 226 -98q63 98 225 98q266 0 266 -266t-266 -266t-266 266
q0 185 -185 185q-184 0 -184 -185q0 -14 1 -26q26 6 46 6q95 0 159 -42q31 -21 53 -52q21 -31 21 -87q0 -24 -21.5 -44.5t-74.5 -20.5q-266 0 -266 266z" />
    <glyph glyph-name="u107A" unicode="&#x107a;" horiz-adv-x="1064" 
d="M572 53v-350h89v-82h-170v645q0 185 -185 185q-184 0 -184 -185q0 -184 184 -184q69 0 112 26l50 -71q-62 -37 -162 -37q-266 0 -266 266t266 266t266 -266q0 -184 185 -184q184 0 184 184q0 185 -184 185q-69 0 -112 -26l-50 71q62 36 162 36q266 0 266 -266t-266 -266
q-119 0 -185 53z" />
    <glyph glyph-name="u107B" unicode="&#x107b;" horiz-adv-x="1064" 
d="M306 451q-184 0 -184 -185q0 -184 184 -184q185 0 185 184q0 185 -185 185zM757 82q140 0 174 106q-21 7 -37 7q-62 0 -111 -25q-23 -12 -42 -31q-14 -15 -20 -55q16 -2 36 -2zM757 0q-53 0 -74.5 20.5t-21.5 44.5q0 56 21 87q22 31 53 52q64 42 159 42q20 0 46 -6
q1 12 1 26q0 185 -184 185q-185 0 -185 -185q0 -266 -266 -266t-266 266t266 266q162 0 226 -98q63 98 225 98q266 0 266 -266t-266 -266z" />
    <glyph glyph-name="u107C" unicode="&#x107c;" horiz-adv-x="1064" 
d="M757 82q150 0 182 113q-156 -5 -250 -106q30 -7 68 -7zM374 89q-94 101 -250 106q32 -113 182 -113q38 0 68 7zM572 266q0 -111 68 -155q126 135 297 135q46 0 66 -13t20 -38v-11q-38 -184 -266 -184q-162 0 -225 98q-64 -98 -226 -98q-228 0 -266 184v11q0 25 20 38
t66 13q171 0 297 -135q68 44 68 155q0 185 -185 185q-158 0 -185 -125l-81 22q38 184 266 184q162 0 226 -98q63 98 225 98q228 0 266 -184l-81 -22q-26 125 -185 125q-185 0 -185 -185z" />
    <glyph glyph-name="u107D" unicode="&#x107d;" horiz-adv-x="1064" 
d="M757 82q150 0 182 113q-156 -5 -250 -106q30 -7 68 -7zM532 98q-64 -98 -226 -98q-266 0 -266 266q0 39 26.5 80t85.5 65q19 8 19 24t-20 16h-111v81h111q102 0 102 -95q0 -65 -66 -93q-65 -28 -65 -78q0 -184 184 -184q185 0 185 184q0 266 266 266q228 0 266 -184
l-81 -22q-26 125 -185 125q-185 0 -185 -185q0 -111 68 -155q126 135 297 135q46 0 66 -13t20 -38v-11q-38 -184 -266 -184q-162 0 -225 98z" />
    <glyph glyph-name="u107E" unicode="&#x107e;" horiz-adv-x="1064" 
d="M757 82q150 0 182 113q-156 -5 -250 -106q30 -7 68 -7zM793 1v-380h-170v82h88v299q-125 12 -179 96q-64 -98 -226 -98q-266 0 -266 266q0 39 26.5 80t85.5 65q19 8 19 24t-20 16h-111v81h111q102 0 102 -95q0 -65 -66 -93q-65 -28 -65 -78q0 -184 184 -184
q185 0 185 184q0 266 266 266q228 0 266 -184l-81 -22q-26 125 -185 125q-185 0 -185 -185q0 -111 68 -155q126 135 297 135q46 0 66 -13t20 -38v-11q-35 -169 -230 -183z" />
    <glyph glyph-name="u107F" unicode="&#x107f;" horiz-adv-x="614" 
d="M151 150q44 -68 155 -68q185 0 185 184q0 159 -125 186l22 80q184 -37 184 -266q0 -266 -266 -266t-266 266q0 229 184 266h11q25 0 38 -19.5t13 -66.5q0 -171 -135 -296zM129 199q101 94 106 250q-113 -32 -113 -183q0 -38 7 -67z" />
    <glyph glyph-name="u1080" unicode="&#x1080;" horiz-adv-x="1064" 
d="M374 89q-94 101 -250 106q32 -113 182 -113q38 0 68 7zM532 98q-64 -98 -226 -98q-228 0 -266 184v11q0 25 20 38t66 13q171 0 297 -135q68 44 68 155q0 185 -185 185q-158 0 -185 -125l-81 22q38 184 266 184q266 0 266 -266q0 -184 185 -184q184 0 184 184
q0 185 -184 185q-69 0 -112 -26l-50 71q62 36 162 36q266 0 266 -266t-266 -266q-162 0 -225 98z" />
    <glyph glyph-name="u1081" unicode="&#x1081;" horiz-adv-x="614" 
d="M247 -379h-191v82h109v316q-125 59 -125 247q0 266 266 266t266 -266q0 -228 -184 -266l-22 81q125 27 125 185q0 185 -185 185q-184 0 -184 -185q0 -158 125 -185v-460z" />
    <glyph glyph-name="u1082" unicode="&#x1082;" 
d="M-217 -102q-97 0 -97 -98q0 -97 97 -97t97 97h82q0 -179 -179 -179t-179 179q0 180 179 180q90 0 135 -46l-55 -58q-19 22 -80 22z" />
    <glyph glyph-name="u1083" unicode="&#x1083;" horiz-adv-x="163" 
d="M42 451h-82v81h164v-829h82v-82h-164v830z" />
    <glyph glyph-name="u1084" unicode="&#x1084;" horiz-adv-x="614" 
d="M306 307v-82h-30q-154 -6 -154 -68q0 -75 184 -75q185 0 185 85h81q0 -167 -266 -167t-266 157q0 74 89 109q-89 36 -89 110q0 156 266 156t266 -166h-81q0 85 -185 85q-184 0 -184 -75q0 -63 154 -69h30z" />
    <glyph glyph-name="u1085" unicode="&#x1085;" 
d="M-263 732q-45 26 -45 77q0 102 179 102q48 0 83 -7l-9 -50q-29 6 -74 6q-107 0 -107 -51t107 -51v-51q-107 0 -107 -52q0 -51 107 -51q45 0 74 6l9 -50q-35 -7 -83 -7q-179 0 -179 102q0 52 45 77z" />
    <glyph glyph-name="u1086" unicode="&#x1086;" 
d="M-121 778q0 36 -36 36q-35 0 -35 -36t35 -36q36 0 36 36zM-54 745q0 -179 -199 -234l18 72q59 31 82 94q-106 7 -106 101q0 103 102 103q103 0 103 -103v-33z" />
    <glyph glyph-name="u1087" unicode="&#x1087;" horiz-adv-x="377" 
d="M243 102q0 36 -35 36q-36 0 -36 -36q0 -35 36 -35q35 0 35 35zM310 70q-17 -177 -158 -235l-142 -53q178 157 182 219q-87 7 -87 101q0 103 103 103q102 0 102 -103v-32z" />
    <glyph glyph-name="u1088" unicode="&#x1088;" horiz-adv-x="382" 
d="M212 532q103 0 103 -102t-103 -102q-102 0 -102 102t102 102zM248 430q0 36 -36 36q-35 0 -35 -36t35 -36q36 0 36 36zM253 102q0 36 -35 36q-36 0 -36 -36q0 -35 36 -35q35 0 35 35zM320 70q-17 -177 -158 -235l-142 -53q178 157 182 219q-87 7 -87 101q0 103 103 103
q102 0 102 -103v-32z" />
    <glyph glyph-name="u1089" unicode="&#x1089;" horiz-adv-x="286" 
d="M142 205q103 0 103 -103q0 -102 -103 -102q-102 0 -102 102q0 103 102 103zM178 102q0 36 -36 36q-35 0 -35 -36q0 -35 35 -35q36 0 36 35z" />
    <glyph glyph-name="u108A" unicode="&#x108a;" horiz-adv-x="533" 
d="M177 456q0 36 -35 36q-36 0 -36 -36q0 -35 36 -35q35 0 35 35zM142 354q-103 0 -103 102q0 103 103 103q94 0 101 -87q62 4 219 182l-53 -142q-58 -141 -235 -158h-32zM177 96q0 36 -35 36q-36 0 -36 -36q0 -35 36 -35q35 0 35 35zM142 -6q-103 0 -103 102q0 103 103 103
q94 0 101 -87q62 4 219 182l-53 -142q-58 -141 -235 -158h-32z" />
    <glyph glyph-name="u108B" unicode="&#x108b;" horiz-adv-x="305" 
d="M142 369q103 0 103 -103q0 -102 -103 -102q-102 0 -102 102q0 103 102 103zM178 266q0 36 -36 36q-35 0 -35 -36t35 -36q36 0 36 36z" />
    <glyph glyph-name="u108C" unicode="&#x108c;" horiz-adv-x="552" 
d="M388 369q103 0 103 -103q0 -102 -103 -102q-102 0 -102 102q0 103 102 103zM424 266q0 36 -36 36t-36 -36t36 -36t36 36zM142 369q103 0 103 -103q0 -102 -103 -102q-102 0 -102 102q0 103 102 103zM178 266q0 36 -36 36q-35 0 -35 -36t35 -36q36 0 36 36z" />
    <glyph glyph-name="u108D" unicode="&#x108d;" horiz-adv-x="1" 
d="M-528 -135v51h470v-51h-470z" />
    <glyph glyph-name="u108E" unicode="&#x108e;" horiz-adv-x="614" 
d="M306 266q-119 0 -181 47q-3 -21 -3 -47q0 -184 184 -184q185 0 185 184q0 26 -4 47q-62 -47 -181 -47zM306 317q112 0 165 50q-40 84 -165 84t-165 -84q54 -50 165 -50zM40 266q0 266 266 266t266 -266t-266 -266t-266 266z" />
    <glyph glyph-name="u108F" unicode="&#x108f;" horiz-adv-x="381" 
d="M142 532q103 0 103 -102t-103 -102q-102 0 -102 102t102 102zM178 430q0 36 -36 36q-35 0 -35 -36t35 -36q36 0 36 36zM142 67q36 0 36 35q0 36 -36 36q-35 0 -35 -36q0 -35 35 -35zM40 102q0 103 102 103q103 0 103 -103q0 -94 -87 -101q4 -62 182 -219l-142 53
q-141 58 -158 235v32z" />
    <glyph glyph-name="u1090" unicode="&#x1090;" horiz-adv-x="614" 
d="M306 451q-184 0 -184 -185q0 -184 184 -184q185 0 185 184q0 185 -185 185zM306 532q266 0 266 -266t-266 -266t-266 266t266 266z" />
    <glyph glyph-name="u1091" unicode="&#x1091;" horiz-adv-x="358" 
d="M219 101l71 42l26 -74l-114 -69h-65v431l-70 -42l-27 75l115 68h64v-431z" />
    <glyph glyph-name="u1092" unicode="&#x1092;" horiz-adv-x="614" 
d="M122 478q45 54 184 54q266 0 266 -266q0 -137 -163.5 -249t-163.5 -222h-82q0 135 164 247.5t164 223.5q0 185 -185 185q-184 0 -184 -154h-82v276h82v-95z" />
    <glyph glyph-name="u1093" unicode="&#x1093;" horiz-adv-x="527" 
d="M321 461l-203 -461l-78 20l335 749l78 -20l-98 -219q130 -14 130 -175v-355h-81v355q0 106 -67 106h-16z" />
    <glyph glyph-name="u1094" unicode="&#x1094;" horiz-adv-x="520" 
d="M269 532h112v-431l71 42l26 -74l-114 -69h-65v406l-181 -406l-78 20z" />
    <glyph glyph-name="u1095" unicode="&#x1095;" horiz-adv-x="491" 
d="M368 348h-98q-148 0 -148 -133t123 -133t123 184v82zM450 430h51v-82h-51v-82q0 -266 -205 -266t-205 215t230 215h98v287h82v-287z" />
    <glyph glyph-name="u1096" unicode="&#x1096;" horiz-adv-x="491" 
d="M368 266q0 185 -123 185t-123 -134q0 -133 148 -133h98v82zM450 -184h-82v286h-98q-230 0 -230 215t205 215t205 -266v-82h51v-82h-51v-286z" />
    <glyph glyph-name="u1097" unicode="&#x1097;" horiz-adv-x="491" 
d="M170 82h280v-82h-410v32l282 419h-282v81h410v-33z" />
    <glyph glyph-name="u1098" unicode="&#x1098;" horiz-adv-x="614" 
d="M306 451q-184 0 -184 -185q0 -184 184 -184q185 0 185 184q0 185 -185 185zM306 563q185 0 185 185h81q0 -184 -126 -241q126 -57 126 -241q0 -266 -266 -266t-266 266q0 184 127 241q-127 57 -127 241h82q0 -185 184 -185z" />
    <glyph glyph-name="u1099" unicode="&#x1099;" horiz-adv-x="614" 
d="M491 481q0 185 -185 185q-184 0 -184 -185q0 -184 184 -184q185 0 185 184zM122 0h-82q0 183 127 241q-127 57 -127 240q0 267 266 267t266 -267q0 -183 -126 -240q126 -58 126 -241h-81q0 184 -185 184q-184 0 -184 -184z" />
    <glyph glyph-name="u109A" unicode="&#x109a;" horiz-adv-x="286" 
d="M142 532q103 0 103 -102t-103 -102q-102 0 -102 102t102 102zM178 430q0 36 -36 36q-35 0 -35 -36t35 -36q36 0 36 36z" />
    <glyph glyph-name="u109B" unicode="&#x109b;" horiz-adv-x="352" 
d="M223 472q0 36 -35 36q-36 0 -36 -36q0 -35 36 -35q35 0 35 35zM290 440q-17 -177 -158 -235l-101 -1q137 105 141 167q-87 7 -87 101q0 103 103 103q102 0 102 -103v-32z" />
    <glyph glyph-name="u109C" unicode="&#x109c;" horiz-adv-x="533" 
d="M142 77q-36 0 -36 -35q0 -36 36 -36q35 0 35 36q0 35 -35 35zM174 144q177 -17 235 -158l53 -142q-157 178 -219 182q-7 -87 -101 -87q-103 0 -103 103q0 102 103 102h32zM142 487q-36 0 -36 -35q0 -36 36 -36q35 0 35 36q0 35 -35 35zM174 554q177 -17 235 -158l53 -142
q-157 178 -219 182q-7 -87 -101 -87q-103 0 -103 103q0 102 103 102h32z" />
    <glyph glyph-name="u109D" unicode="&#x109d;" 
d="M-189 676q-66 0 -66 -65h-82q0 147 148 147q149 0 149 -188v-160h-82v160q0 106 -67 106z" />
    <glyph glyph-name="u109E" unicode="&#x109e;" horiz-adv-x="184" 
d="M52 451h-92v81h174v-829h92v-82h-174v830zM93 758q103 0 103 -103q0 -102 -103 -102q-102 0 -102 102q0 103 102 103zM129 655q0 36 -36 36t-36 -36q0 -35 36 -35t36 35z" />
    <glyph glyph-name="u109F" unicode="&#x109f;" horiz-adv-x="778" 
d="M572 -246q0 -51 41 -51t41 51v635q0 164 -163 164q-180 0 -180 179t180 179q179 0 179 -179h-82q0 97 -97 97q-98 0 -98 -97t98 -97q245 0 245 -246v-635q0 -133 -123 -133q-122 0 -122 133v512q0 185 -185 185q-184 0 -184 -185q0 -184 184 -184q51 0 88 14l34 -78
q-52 -18 -122 -18q-266 0 -266 266t266 266t266 -266v-512z" />
    <glyph glyph-name="u1700" unicode="&#x1700;" horiz-adv-x="149" 
d="M76 162q0 -2 -1 -2q-2 0 -2 2q0 1 2 1q1 0 1 -1z" />
    <glyph glyph-name="$1A20" unicode="&#x1a20;" horiz-adv-x="626" 
d="M345 222h211v-67h-198l198 -425l-61 -31l-184 403l-182 -404l-61 31l16 30l180 396h-194v67h207v446h68v-446z" />
    <glyph glyph-name="$1A21" unicode="&#x1a21;" horiz-adv-x="620" 
d="M308 155l-24 57l163 186h-313v-700h-68v972h68v-205h395l24 -57l-163 -186h163v-67h-245z" />
    <glyph glyph-name="$1A22" unicode="&#x1a22;" horiz-adv-x="628" 
d="M128 222h386l34 -33v-491h-68v457h-352v-457h-68v972h68v-448z" />
    <glyph glyph-name="$1A23" unicode="&#x1a23;" horiz-adv-x="631" 
d="M128 -180v-54h354v162l-201 224v48l107 107l-106 95l-11 25v241h68v-225l121 -109l1 -49l-108 -108l186 -211l11 -24v-210l-34 -34h-422l-34 34v122l34 34h245v-68h-211z" />
    <glyph glyph-name="$1A24" unicode="&#x1a24;" horiz-adv-x="628" 
d="M269 461v209h68v-209h211v-68h-211v-627h88v-68h-242v68h86v627h-209v68h209z" />
    <glyph glyph-name="$1A25" unicode="&#x1a25;" horiz-adv-x="610" 
d="M512 461l34 -34v-485l-34 -34h-177v-142h88v-68h-244v68h88v142h-175l-34 34v485l34 34h175v210h68v-210h177zM267 393h-141v-417h141v417zM478 393h-143v-417h143v417z" />
    <glyph glyph-name="$1A26" unicode="&#x1a26;" horiz-adv-x="615" 
d="M267 155h-122l122 -297v297zM335 222h211v-67h-211v-442l-65 -16l-210 476l31 49h176v448h68v-448z" />
    <glyph glyph-name="$1A27" unicode="&#x1a27;" horiz-adv-x="618" 
d="M128 222h384l34 -33v-491h-68v457h-384l-34 34v481h68v-448zM335 602v-870l-34 -34h-241v68h207v870l34 34h245v-68h-211z" />
    <glyph glyph-name="$1A28" unicode="&#x1a28;" horiz-adv-x="612" 
d="M269 461v209h68v-209h210v-68h-210v-417h210v-68h-210v-142h88v-68h-243v68h87v142h-209v68h209v417h-209v68h209z" />
    <glyph glyph-name="$1A29" unicode="&#x1a29;" horiz-adv-x="615" 
d="M471 -272l-148 407l-198 -452l-65 15v971h68v-827l358 828l61 -31l-184 -416l184 -494l-61 -31z" />
    <glyph glyph-name="$1A2A" unicode="&#x1a2a;" horiz-adv-x="607" 
d="M258 -234l-205 888l66 16l8 -33l173 -766l176 794l66 -17l-200 -882h114v-68h-311v68h113z" />
    <glyph glyph-name="$1A2B" unicode="&#x1a2b;" horiz-adv-x="620" 
d="M274 222v292l-126 -292h126zM274 -234v389h-181l-30 49l214 468l65 -15v-435h143v448h68v-481l-34 -34h-177v-389h122v-68h-311v68h121z" />
    <glyph glyph-name="$1A2C" unicode="&#x1a2c;" horiz-adv-x="626" 
d="M525 670l30 -49l-421 -923l-64 16v467l34 34h119v-67h-85v-292l332 746h-402v68h457z" />
    <glyph glyph-name="$1A2D" unicode="&#x1a2d;" horiz-adv-x="620" 
d="M128 -302h-68v972h68v-972zM337 -302h-68v972h68v-972zM548 -302h-68v972h68v-972z" />
    <glyph glyph-name="$1A2E" unicode="&#x1a2e;" horiz-adv-x="615" 
d="M266 155h-138v-389h138v389zM334 222h177l34 -33v-491h-68v457h-143v-423l-34 -34h-206l-34 34v457l34 33h172v448h68v-448z" />
    <glyph glyph-name="$1A2F" unicode="&#x1a2f;" horiz-adv-x="618" 
d="M88 -241l72 213h62l56 -114v746h-210v68h489v-68h-211v-890l-65 -16l-90 157l-43 -126l-15 -31l-61 30z" />
    <glyph glyph-name="$1A30" unicode="&#x1a30;" horiz-adv-x="591" 
d="M64 263l180 179v228h68v-228l211 -202l-48 -48l-163 156v-372h121v-68h-121v-142h88v-68h-241v68h85v142h-121v68h121v370l-157 -154l-47 48z" />
    <glyph glyph-name="$1A31" unicode="&#x1a31;" horiz-adv-x="628" 
d="M347 -284l-65 -16l-212 473l31 49h389v447h68v-480l-34 -34h-369l124 -294v808h68v-953z" />
    <glyph glyph-name="$1A32" unicode="&#x1a32;" horiz-adv-x="626" 
d="M63 637l34 34h419l34 -34v-573h-68v539h-351v-539h-68v573zM427 222v-67h-88v-433l-59 -24l-96 97q-16 -15 -39 -48q-24 -36 -37 -49l-48 47l24 25l76 97h48l63 -63v351h-87v67h243z" />
    <glyph glyph-name="$1A33" unicode="&#x1a33;" horiz-adv-x="628" 
d="M345 155v-456h-68v456h-149v-211h-68v484h68v-206h149v447h68v-447h202v-67h-202z" />
    <glyph glyph-name="$1A34" unicode="&#x1a34;" horiz-adv-x="639" 
d="M307 222l160 380h-403v68h458l30 -49l-169 -399h135l34 -33v-491h-68v457h-135l-228 -457l-61 31l213 426h-209v67h243z" />
    <glyph glyph-name="$1A35" unicode="&#x1a35;" horiz-adv-x="634" 
d="M548 189l-11 -24l-185 -206l199 -214l-48 -47l-196 211l-191 -211l-49 47l193 214l-190 205l-10 24v480h68v-466l178 -193l174 194v466h68v-480z" />
    <glyph glyph-name="$1A36" unicode="&#x1a36;" horiz-adv-x="620" 
d="M303 580l-158 -324h322zM337 189v-423h88v-68h-243v68h87v423h-179l-30 49l213 432h61l218 -432l-31 -49h-184z" />
    <glyph glyph-name="uni1A37" unicode="&#x1a37;" horiz-adv-x="626" 
d="M132 -156l50 -44v801h-121v68h487v-68h-123v-802l51 47l24 23l47 -48l-24 -24l-108 -104l-58 24v884h-107v-884l-58 -24l-132 127l48 47z" />
    <glyph glyph-name="$1A38" unicode="&#x1a38;" horiz-adv-x="634" 
d="M271 -234v142h-177l-34 34v721h68v-687h143v687h68v-687h143v687h68v-721l-34 -34h-177v-142h122v-68h-311v68h121z" />
    <glyph glyph-name="$1A39" unicode="&#x1a39;" horiz-adv-x="623" 
d="M128 -30v-272h-68v972h68v-448h349v448h68v-481l-34 -34h-383v-118h417v-67h-417z" />
    <glyph glyph-name="$1A3A" unicode="&#x1a3a;" horiz-adv-x="610" 
d="M503 668l34 -34v-902l-34 -34h-419l-34 34v902l34 34h419zM469 600h-351v-834h351v834zM380 485l34 -34v-536l-34 -34h-175l-34 34v536l34 34h175zM346 417h-107v-468h107v468z" />
    <glyph glyph-name="$1A3B" unicode="&#x1a3b;" horiz-adv-x="623" 
d="M277 155h-139v-387h139v387zM488 155h-143v-387h143v387zM556 -266l-34 -34h-418l-34 34v902l34 34h418l34 -34v-902zM345 222h143v380h-143v-380zM138 222h139v380h-139v-380z" />
    <glyph glyph-name="$1A3C" unicode="&#x1a3c;" horiz-adv-x="623" 
d="M269 222v447h68v-447h211v-67h-211v-457h-68v457h-209v67h209z" />
    <glyph glyph-name="$1A3D" unicode="&#x1a3d;" horiz-adv-x="628" 
d="M517 671l31 -49l-402 -856h402v-68h-456l-31 49l402 856h-403v68h457z" />
    <glyph glyph-name="$1A3E" unicode="&#x1a3e;" horiz-adv-x="623" 
d="M128 35l349 400v235h68v-972h-68v635l-349 -397v-238h-68v972h68v-635z" />
    <glyph glyph-name="$1A3F" unicode="&#x1a3f;" horiz-adv-x="623" 
d="M126 155v-351l147 195h48l166 -129l-47 -48l-24 25q0 -1 -2 -1q-12 0 -116 82l-182 -230l-58 24v948h68v-448h416v-67h-416z" />
    <glyph glyph-name="$1A40" unicode="&#x1a40;" horiz-adv-x="618" 
d="M267 -234v895h68v-895h89v-68h-244v68h87zM513 427l34 -34v-417l-34 -34h-120l-34 34v417l34 34h120zM479 360h-52v-351h52v351zM213 427l34 -34v-417l-34 -34h-119l-34 34v417l34 34h119zM179 360h-51v-351h51v351z" />
    <glyph glyph-name="$1A41" unicode="&#x1a41;" horiz-adv-x="615" 
d="M337 -303h-68v973h68v-973zM459 -235v-68h-311v68h311zM84 14l416 417l48 -48l-440 -441l-48 48z" />
    <glyph glyph-name="$1A42" unicode="&#x1a42;" horiz-adv-x="628" 
d="M252 222l-192 417l61 31l15 -31l171 -375l184 408l61 -31l-16 -30l-175 -389h191v-67h-195l195 -425l-61 -31l-184 403l-182 -404l-61 31l194 426h-193v67h187z" />
    <glyph glyph-name="$1A43" unicode="&#x1a43;" horiz-adv-x="620" 
d="M68 -253l98 434l-104 473l66 16l8 -33l64 -303l75 338l66 -16l-108 -481l71 -338l179 827l66 -17l-212 -949h-66l-71 328l-74 -328l-66 17z" />
    <glyph glyph-name="$1A44" unicode="&#x1a44;" horiz-adv-x="623" 
d="M334 342l146 329l65 -15v-464h-68v320l-140 -319l208 -462l-61 -31l-182 414l-182 -416l-61 31l207 466l-140 317v-320h-68v464l65 15l143 -321v89h68v-97z" />
    <glyph glyph-name="$1A45" unicode="&#x1a45;" horiz-adv-x="628" 
d="M277 -232v413l-211 458l61 31l15 -30l135 -301v88h68v-89l150 333l61 -31l-211 -459v-413h88v-68h-242v68h86z" />
    <glyph glyph-name="$1A46" unicode="&#x1a46;" horiz-adv-x="277" 
d="M139 669l34 -34v-937h-67v903h-141v68h174z" />
    <glyph glyph-name="uni1A47" unicode="&#x1a47;" horiz-adv-x="615" 
d="M322 222h211v-67h-198l198 -425l-61 -31l-184 403l-182 -404l-61 31l16 30l180 396h-194v67h207v446h68v-446zM336 -212h89v-57h-113l-34 23v205h58v-171z" />
    <glyph glyph-name="uni1A48" unicode="&#x1a48;" horiz-adv-x="612" 
d="M109 222h386l34 -33v-491h-68v457h-352v-457h-68v972h68v-448zM355 -191h89v-58h-113l-34 24v205h58v-171z" />
    <glyph glyph-name="uni1A49" unicode="&#x1a49;" horiz-adv-x="623" 
d="M253 461v209h68v-209h211v-68h-211v-627h88v-68h-242v68h86v627h-209v68h209zM424 -161h89v-57h-113l-34 24v204h58v-171z" />
    <glyph glyph-name="uni1A4A" unicode="&#x1a4a;" horiz-adv-x="623" 
d="M510 461l34 -34v-485l-34 -34h-177v-142h88v-68h-244v68h88v142h-175l-34 34v485l34 34h175v210h68v-210h177zM265 393h-141v-417h141v417zM476 393h-143v-417h143v417zM451 -161h89v-57h-113l-34 24v174h58v-141z" />
    <glyph glyph-name="uni1A4B" unicode="&#x1a4b;" horiz-adv-x="628" 
d="M470 -212h68v-57h-92l-33 23v205h57v-171zM336 -284l-65 -16l-212 473l31 49h389v447h68v-480l-34 -34h-369l124 -294v808h68v-953z" />
    <glyph glyph-name="uni1A4C" unicode="&#x1a4c;" horiz-adv-x="623" 
d="M465 -272l-148 407l-198 -452l-65 15v971h68v-827l358 828l61 -31l-184 -416l184 -494l-61 -31zM353 -212h89v-57h-113l-34 23v205h58v-171z" />
    <glyph glyph-name="uni1A4D" unicode="&#x1a4d;" horiz-adv-x="615" 
d="M240 -234l-205 888l66 16l8 -33l173 -766l176 794l66 -17l-200 -882h114v-68h-311v68h113zM425 -161h89v-57h-112l-34 24v204h57v-171z" />
    <glyph glyph-name="uni1A4E" unicode="&#x1a4e;" horiz-adv-x="618" 
d="M250 155h-138v-389h138v389zM318 222h177l34 -33v-491h-68v457h-143v-423l-34 -34h-206l-34 34v457l34 33h172v448h68v-448zM378 -222h69v-47h-82l-34 23v205h47q2 -70 2 -117q0 -49 -2 -64z" />
    <glyph glyph-name="uni1A4F" unicode="&#x1a4f;" horiz-adv-x="615" 
d="M64 -241l72 213h62l56 -114v746h-210v68h489v-68h-211v-890l-65 -16l-90 157l-43 -126l-15 -31l-61 30zM440 -212h89v-57h-113l-34 23v205h58v-171z" />
    <glyph glyph-name="$1A50" unicode="&#x1a50;" horiz-adv-x="628" 
d="M57 637l34 34h419l34 -34v-573h-68v539h-351v-539h-68v573zM421 222v-67h-88v-433l-59 -24l-96 97q-16 -15 -39 -48q-24 -36 -37 -49l-48 47l24 25l76 97h48l63 -63v351h-87v67h243zM414 -212h89v-57h-113l-34 23v205h58v-171z" />
    <glyph glyph-name="$1A51" unicode="&#x1a51;" horiz-adv-x="626" 
d="M291 222l160 380h-403v68h458l30 -49l-169 -399h135l34 -33v-491h-68v457h-135l-228 -457l-61 31l213 426h-209v67h243zM363 -212h89v-57h-113l-34 23v205h58v-171z" />
    <glyph glyph-name="$1A52" unicode="&#x1a52;" horiz-adv-x="618" 
d="M122 -92v-210h-68v972h68v-448h349v448h68v-481l-34 -34h-383v-179h417v-68h-417zM409 -212h89v-57h-113l-34 23v205h58v-171z" />
    <glyph glyph-name="$1A53" unicode="&#x1a53;" horiz-adv-x="612" 
d="M501 671l31 -49l-402 -856h402v-68h-456l-31 49l402 856h-403v68h457zM409 -161h89v-57h-113l-34 24v204h58v-171z" />
    <glyph glyph-name="$1A54" unicode="&#x1a54;" horiz-adv-x="620" 
d="M122 35l349 400v235h68v-972h-68v635l-349 -397v-238h-68v972h68v-635zM378 -212h68v-57h-92l-34 23v205h58v-171z" />
    <glyph glyph-name="$1A55" unicode="&#x1a55;" horiz-adv-x="618" 
d="M112 155v-351l147 185h48l180 -134l-47 -48l-25 24l-131 86l-182 -219l-58 24v948h68v-448h416v-67h-416zM358 -232h89v-58h-113l-34 24v205h58v-171z" />
    <glyph glyph-name="$1A56" unicode="&#x1a56;" horiz-adv-x="620" 
d="M246 -232v413l-211 458l61 31l15 -30l135 -301v88h68v-89l150 333l61 -31l-211 -459v-413h88v-68h-242v68h86zM390 -161h89v-57h-113l-34 24v204h58v-171z" />
    <glyph glyph-name="$1A57" unicode="&#x1a57;" horiz-adv-x="628" 
 />
    <glyph glyph-name="$1A58" unicode="&#x1a58;" horiz-adv-x="615" 
 />
    <glyph glyph-name="$1A59" unicode="&#x1a59;" horiz-adv-x="103" 
 />
    <glyph glyph-name="$1A5A" unicode="&#x1a5a;" horiz-adv-x="73" 
 />
    <glyph glyph-name="$1A5B" unicode="&#x1a5b;" horiz-adv-x="86" 
 />
    <glyph glyph-name="$1A5C" unicode="&#x1a5c;" horiz-adv-x="115" 
 />
    <glyph glyph-name="$1A5D" unicode="&#x1a5d;" horiz-adv-x="122" 
 />
    <glyph glyph-name="$1A5E" unicode="&#x1a5e;" horiz-adv-x="91" 
 />
    <glyph glyph-name="$1A5F" unicode="&#x1a5f;" horiz-adv-x="125" 
 />
    <glyph glyph-name="$1A60" unicode="&#x1a60;" horiz-adv-x="115" 
 />
    <glyph glyph-name="$1A61" unicode="&#x1a61;" horiz-adv-x="250" 
 />
    <glyph glyph-name="$1A62" unicode="&#x1a62;" horiz-adv-x="639" 
 />
    <glyph glyph-name="$1A63" unicode="&#x1a63;" horiz-adv-x="620" 
 />
    <glyph glyph-name="$1A64" unicode="&#x1a64;" horiz-adv-x="184" 
 />
    <glyph glyph-name="$1A65" unicode="&#x1a65;" horiz-adv-x="631" 
 />
    <glyph glyph-name="$1A66" unicode="&#x1a66;" horiz-adv-x="626" 
 />
    <glyph glyph-name="$1A67" unicode="&#x1a67;" horiz-adv-x="623" 
 />
    <glyph glyph-name="$1A68" unicode="&#x1a68;" horiz-adv-x="634" 
 />
    <glyph glyph-name="$1A69" unicode="&#x1a69;" horiz-adv-x="628" 
 />
    <glyph glyph-name="$1A6A" unicode="&#x1a6a;" horiz-adv-x="612" 
 />
    <glyph glyph-name="$1A6B" unicode="&#x1a6b;" horiz-adv-x="618" 
 />
    <glyph glyph-name="$1A6C" unicode="&#x1a6c;" horiz-adv-x="623" 
 />
    <glyph glyph-name="$1A6D" unicode="&#x1a6d;" horiz-adv-x="628" 
 />
    <glyph glyph-name="$1A6E" unicode="&#x1a6e;" horiz-adv-x="634" 
 />
    <glyph glyph-name="$1A6F" unicode="&#x1a6f;" horiz-adv-x="618" 
 />
    <glyph glyph-name="$1A70" unicode="&#x1a70;" horiz-adv-x="634" 
 />
    <glyph glyph-name="$1A71" unicode="&#x1a71;" horiz-adv-x="620" 
 />
    <glyph glyph-name="$1A72" unicode="&#x1a72;" horiz-adv-x="623" 
 />
    <glyph glyph-name="$1A73" unicode="&#x1a73;" horiz-adv-x="626" 
 />
    <glyph glyph-name="$1A74" unicode="&#x1a74;" horiz-adv-x="623" 
 />
    <glyph glyph-name="$1A75" unicode="&#x1a75;" horiz-adv-x="623" 
 />
    <glyph glyph-name="$1A76" unicode="&#x1a76;" horiz-adv-x="634" 
 />
    <glyph glyph-name="$1A77" unicode="&#x1a77;" horiz-adv-x="636" 
 />
    <glyph glyph-name="$1A78" unicode="&#x1a78;" horiz-adv-x="636" 
 />
    <glyph glyph-name="$1A79" unicode="&#x1a79;" horiz-adv-x="626" 
 />
    <glyph glyph-name="$1A7A" unicode="&#x1a7a;" horiz-adv-x="636" 
 />
    <glyph glyph-name="$1A7B" unicode="&#x1a7b;" horiz-adv-x="658" 
 />
    <glyph glyph-name="$1A7C" unicode="&#x1a7c;" horiz-adv-x="620" 
 />
    <glyph glyph-name="$1A7D" unicode="&#x1a7d;" horiz-adv-x="628" 
d="M336 670v-209h211v-68h-162l162 -156l-47 -49l-198 192l-192 -189l-47 48l157 154h-160v68h208v209h68z" />
    <glyph glyph-name="$1A7E" unicode="&#x1a7e;" horiz-adv-x="615" 
d="M531 400h-230l-16 63l117 58h-264v-330h-68v479h68v-81h393l15 -64l-102 -58h87v-67z" />
    <glyph glyph-name="$1A7F" unicode="&#x1a7f;" horiz-adv-x="618" 
d="M476 189v204h-348v-204h-68v481h68v-209h382l34 -34v-238h-68z" />
    <glyph glyph-name="$1A80" unicode="&#x1a80;" horiz-adv-x="618" 
d="M118 289v-33h350v87l-193 60l-9 54l75 55l-68 41l-16 30v88h68v-69l88 -54l7 -53l-73 -52l170 -47l19 -31v-143l-34 -33h-418l-34 33v101l34 34h207v-68h-173z" />
    <glyph glyph-name="$1A81" unicode="&#x1a81;" horiz-adv-x="620" 
d="M60 546h208v124h68v-124h211v-68h-211v-222h88v-67h-246v67h90v222h-208v68z" />
    <glyph glyph-name="$1A82" unicode="&#x1a82;" horiz-adv-x="615" 
d="M258 481h-140v-105h139zM469 481h-143l-1 -105h144v105zM257 256v52h-173l-34 34v172l34 34h174v122h68v-122h177l34 -34v-172l-34 -34h-178v-52h89v-67h-243v67h86z" />
    <glyph glyph-name="$1A83" unicode="&#x1a83;" horiz-adv-x="620" 
d="M259 402h-103l103 -105v105zM327 670v-201h211v-67h-211v-187l-59 -23l-218 220l24 57h185v201h68z" />
    <glyph glyph-name="$1A84" unicode="&#x1a84;" horiz-adv-x="623" 
d="M547 602h-211v-141h177l34 -34v-238h-68v204h-143v-171l-34 -33h-242v67h208v137h-173l-34 34v243h68v-209h139v175l34 34h245v-68z" />
    <glyph glyph-name="$1A85" unicode="&#x1a85;" horiz-adv-x="626" 
d="M60 346h208v176h-208v68h208v79h68v-79h211v-68h-211v-176h211v-67h-211v-88h-68v88h-208v67z" />
    <glyph glyph-name="$1A86" unicode="&#x1a86;" horiz-adv-x="631" 
d="M497 190l-190 190l-189 -191l-58 23v458h68v-376l369 375l49 -48l-191 -193l191 -190z" />
    <glyph glyph-name="$1A87" unicode="&#x1a87;" horiz-adv-x="623" 
d="M172 253h55l-177 371l57 38l186 -382l188 381l57 -38l-180 -370h57v-67h-243v67z" />
    <glyph glyph-name="$1A88" unicode="&#x1a88;" horiz-adv-x="639" 
d="M270 461v106l-104 -106h104zM270 256v137h-186l-24 58l220 221l58 -24v-187h143v209h68v-243l-34 -34h-177v-137h88v-67h-242v67h86z" />
    <glyph glyph-name="$1A89" unicode="&#x1a89;" horiz-adv-x="620" 
d="M180 393h-52v-99l312 308h-312v-54h-68v88l34 34h428l24 -57l-428 -424l-58 23v215l34 34h86v-68z" />
    <glyph glyph-name="$1A8A" unicode="&#x1a8a;" horiz-adv-x="620" 
d="M128 670v-481h-68v481h68zM335 670v-481h-68v481h68zM546 670v-481h-68v481h68z" />
    <glyph glyph-name="$1A8B" unicode="&#x1a8b;" horiz-adv-x="631" 
d="M338 670v-451l-34 -33h-209l-35 33v173l34 34h420l34 -34v-203h-68v170h-352v-106h142l-1 106l1 311h68z" />
    <glyph glyph-name="$1A8C" unicode="&#x1a8c;" horiz-adv-x="626" 
d="M50 233l100 120h47l63 -63l-2 312h-208v68h487v-68h-209v-393l-58 -23l-99 94l-74 -95z" />
    <glyph glyph-name="$1A8D" unicode="&#x1a8d;" horiz-adv-x="623" 
d="M91 503l178 69v97h68v-98l176 -68l31 -15l-30 -61l-31 16l-146 55v-122h88v-68h-88v-52h29v-67h-131v67h34v52h-88v68h88v122l-148 -55l-30 -16l-31 61z" />
    <glyph glyph-name="$1A8E" unicode="&#x1a8e;" horiz-adv-x="634" 
d="M551 474h1v-68h-211v-186l-59 -24l-218 220l24 58h185v158h68v-158h142v157h68v-157zM273 406h-103l103 -104v104z" />
    <glyph glyph-name="$1A8F" unicode="&#x1a8f;" horiz-adv-x="628" 
d="M181 331h-87l-34 34v271l34 34l422 -1l34 -34v-271l-34 -34h-89v68h55v203l-354 1v-203h53v-68zM181 493h243v-68h-243v68zM55 252l110 45l29 -1l71 -37l3 200h68l-3 -255l-49 -30l-108 55l-106 -43l-20 48z" />
    <glyph glyph-name="$1A90" unicode="&#x1a90;" horiz-adv-x="612" 
d="M345 393v-204h-68v204h-149v-85h-68v245h68v-92h149v209h68v-209h202v-68h-202z" />
    <glyph glyph-name="$1A91" unicode="&#x1a91;" horiz-adv-x="618" 
d="M63 461h217l134 138h-357v71h453l23 -57l-147 -153l117 1l33 -34v-228h-67v194h-157l-188 -189l-47 48l141 141h-155v68z" />
    <glyph glyph-name="$1A92" unicode="&#x1a92;" horiz-adv-x="623" 
d="M70 254l149 68l-140 64l-19 31v251h68v-231l172 -78l178 81v228h68v-249l-19 -31l-146 -66l160 -73l-31 -60l-210 96l-199 -91z" />
    <glyph glyph-name="$1A93" unicode="&#x1a93;" horiz-adv-x="628" 
d="M178 464h270l-145 147zM335 397v-143h88v-67h-244v67h88v143h-186l-21 60l222 223h41l223 -223l-21 -60h-190z" />
    <glyph glyph-name="$1A94" unicode="&#x1a94;" horiz-adv-x="634" 
d="M547 293l-99 -104l-58 24v389h-175v-389l-56 -24l-99 93l47 48l40 -36v308h-87v68h487v-68h-89v-309l42 48z" />
    <glyph glyph-name="$1A95" unicode="&#x1a95;" horiz-adv-x="618" 
d="M128 558v-87h54v161l34 34h322v-68h-288v-127h288v-67h-288v-144h288v-67h-322l-34 34v177h-54v-88h-68v242h68z" />
    <glyph glyph-name="$1A96" unicode="&#x1a96;" horiz-adv-x="634" 
d="M128 337h410v-67h-410v-81h-68v481h68v-209h343v209h67v-243l-33 -34h-377v-56z" />
    <glyph glyph-name="$1A97" unicode="&#x1a97;" horiz-adv-x="620" 
d="M513 669l34 -34v-413l-34 -33h-419l-34 33v413l34 34h419zM479 601h-351v-345h351v345zM369 516l34 -33v-120l-34 -34h-134l-33 34v120l33 33h134zM336 449h-67v-52h67v52z" />
    <glyph glyph-name="$1A98" unicode="&#x1a98;" horiz-adv-x="623" 
d="M267 393h-139v-138h139v138zM478 393h-143v-138h143v138zM546 221l-34 -33h-418l-34 33v414l34 34h418l34 -34v-414zM335 461h143v140h-143v-140zM128 461h139v140h-139v-140z" />
    <glyph glyph-name="$1A99" unicode="&#x1a99;" horiz-adv-x="626" 
d="M266 461v200h67v-200h99v-68h-99v-203h-67v203h-107v68h107z" />
    <glyph glyph-name="$1A9A" unicode="&#x1a9a;" horiz-adv-x="623" 
d="M50 670h487v-76l-405 -338h405v-67h-487v75l405 338h-405v68z" />
    <glyph glyph-name="$1A9B" unicode="&#x1a9b;" horiz-adv-x="623" 
d="M128 377l351 200v93h68v-478h-68v307l-351 -200v-102h-68l1 473h67v-293z" />
    <glyph glyph-name="$1A9C" unicode="&#x1a9c;" horiz-adv-x="634" 
d="M128 392v-124l157 66l32 -1l49 -39l26 -25l-35 -58l-25 27l-34 27l-189 -82l-49 29v458h68v-210h417v-68h-417z" />
    <glyph glyph-name="$1A9D" unicode="&#x1a9d;" horiz-adv-x="636" 
d="M267 256v414h68v-414h122v-67h-311v67h121zM207 545l33 -34v-169l-33 -34h-113l-34 34v169l34 34h113zM173 477h-45v-101h45v101zM512 547l34 -34v-169l-34 -33h-113l-34 33v169l34 34h113zM478 479h-45v-101h45v101z" />
    <glyph glyph-name="$1A9E" unicode="&#x1a9e;" horiz-adv-x="636" 
d="M103 399l173 102v137h68v-98l174 101l37 -56l-211 -124v-191h88v-67h-244v67h88v151l-165 -96l-37 56z" />
    <glyph glyph-name="$1A9F" unicode="&#x1a9f;" horiz-adv-x="626" 
d="M225 461l-164 161l48 48l24 -24q-3 3 -6 8v0q20 -19 180 -179l194 195l48 -48l-161 -161h161v-68h-159l159 -158l-48 -48l-194 193l-191 -191l-49 48l158 156h-165v68h165z" />
    <glyph glyph-name="$1AA0" unicode="&#x1aa0;" horiz-adv-x="636" 
d="M281 612l-65 -164l79 -169l185 389l61 -31l-216 -448h-61l-82 174l-69 -174l-61 30l91 225l-93 195l61 31l15 -30l52 -111l58 143l60 -31z" />
    <glyph glyph-name="$1AA1" unicode="&#x1aa1;" horiz-adv-x="658" 
d="M345 566v-50l124 137h87v-214h-68v133l-129 -142l184 -183l-47 -48l-182 181l-196 -181l-47 48l197 183l-132 142v-133h-68v214h84l125 -135v48h68z" />
    <glyph glyph-name="$1AA2" unicode="&#x1aa2;" horiz-adv-x="620" 
d="M259 256v157l-209 209l48 48l161 -161v39h68v-40l163 162l48 -48l-211 -209v-157h88v-67h-243v67h87z" />
    <glyph glyph-name="$1AA3" unicode="&#x1aa3;" 
 />
    <glyph glyph-name="$1AA4" unicode="&#x1aa4;" horiz-adv-x="390" 
d="M254 68l34 -34v-180l-34 -34h-174l-34 34v180l34 34h174zM221 0h-107v-112h107v112zM256 479l34 -34v-180l-34 -34h-174l-33 34v180l33 34h174zM223 412h-107v-113h107v113z" />
    <glyph glyph-name="$1AA5" unicode="&#x1aa5;" horiz-adv-x="623" 
d="M50 -301v970h64v-1h423v-970h-64v1h-423zM114 604v-841h359v841h-359z" />
    <glyph glyph-name="$1AA6" unicode="&#x1aa6;" horiz-adv-x="620" 
d="M326 -234h213v-68h-489v68h208l2 904h68v-34z" />
    <glyph glyph-name="$1AA7" unicode="&#x1aa7;" horiz-adv-x="615" 
d="M330 -289l-64 -15l-216 463l9 42l271 228l174 135l41 -53l-27 -20l-256 -198l-139 -129l139 -325v830h68v-958z" />
    <glyph glyph-name="$1AA8" unicode="&#x1aa8;" horiz-adv-x="628" 
d="M551 610l-412 -912l-64 16v277h67v-135l138 329l-230 454l61 31l207 -411l188 411l60 -30z" />
    <glyph glyph-name="$1AA9" unicode="&#x1aa9;" horiz-adv-x="612" 
d="M118 -145l148 321h60q214 -444 210 -449l-60 -31q11 0 -180 390l-182 -388l-64 16v955h68v-814z" />
    <glyph glyph-name="$1AAA" unicode="&#x1aaa;" horiz-adv-x="623" 
d="M50 153v520h64v-457h360v454h64v-977h-484v64h420v396h-424z" />
    <glyph glyph-name="$1AAB" unicode="&#x1aab;" horiz-adv-x="618" 
d="M326 548l33 -34l-1 -172l-33 -34h-172l315 -493v857h68v-953l-61 -22l-419 624l27 55h208l1 105h-242v67h276z" />
    <glyph glyph-name="$1AAC" unicode="&#x1aac;" horiz-adv-x="620" 
d="M293 324q-27 -34 -53 -70h106zM50 647l61 21l183 -241l188 244l55 -41q-29 -38 -203 -254l106 -135l-26 -54h-243l-27 54l110 137l-136 190v-871h-68v950z" />
    <glyph glyph-name="$1AAD" unicode="&#x1aad;" horiz-adv-x="618" 
d="M325 -24h143v179h-143v-179zM257 222v380h-139v-380h139zM257 -92h-207v68h207v179h-173l-34 34v447l34 34h207l34 -34v-414h177l34 -33v-247l-34 -34h-177v-210h-68v210z" />
    <glyph glyph-name="$1AAE" unicode="&#x1aae;" horiz-adv-x="620" 
d="M223 258v135h-139l-34 34v209l34 34h418l34 -34v-937h-68v903h-350v-141h139l34 -34v-202l-34 -34h-207v67h173z" />
    <glyph glyph-name="$1AAF" unicode="&#x1aaf;" horiz-adv-x="559" 
d="M128 -64v-238h-68v972h68v-635l349 400v-102z" />
    <glyph glyph-name="uni1AB0" unicode="&#x1ab0;" 
d="M-292 206v-208h211v-68h-162l162 -157l-47 -49l-198 193l-192 -190l-47 48l157 155h-160v68h208v208h68z" />
    <glyph glyph-name="uni1AB1" unicode="&#x1ab1;" 
d="M-70 -136h-230l-16 64l117 58h-264v-331h-68v479h68v-80h393l15 -65l-102 -57h87v-68z" />
    <glyph glyph-name="uni1AB2" unicode="&#x1ab2;" 
d="M-144 -301v204h-348v-204h-68v481h68v-209h382l34 -34v-238h-68z" />
    <glyph glyph-name="uni1AB3" unicode="&#x1ab3;" 
d="M-471 -201v-33h350v87l-193 59l-9 54l75 56l-68 41l-16 20l2 15l-2 43h68l1 -46l87 -37l7 -54l-73 -52l170 -47l19 -31v-142l-34 -34h-418l-34 34v100l34 34h207v-67h-173z" />
    <glyph glyph-name="uni1AB4" unicode="&#x1ab4;" 
d="M-563 51h208v123h68v-123h211v-68h-211v-222h88v-68h-246v68h90v222h-208v68z" />
    <glyph glyph-name="uni1AB5" unicode="&#x1ab5;" 
d="M-349 -11h-140v-104h139zM-138 -11h-143l-1 -104h144v104zM-350 -235v52h-173l-34 34v172l34 34h174v76h68v-76h177l34 -34v-172l-34 -34h-178v-52h89v-68h-243v68h86z" />
    <glyph glyph-name="uni1AB6" unicode="&#x1ab6;" 
d="M-349 -92h-103l103 -104v104zM-281 133v-157h211v-68h-211v-186l-59 -24l-218 220l24 58h185v157h68z" />
    <glyph glyph-name="uni1AB7" unicode="&#x1ab7;" 
d="M-492 131v-186h384l34 -34v-213h-68v179h-384l-34 34v220h68zM-74 64h-211v-332l-34 -34h-242v68h208v332l34 33h245v-67z" />
    <glyph glyph-name="uni1AB8" unicode="&#x1ab8;" 
d="M-550 -146h208v146h-208v68h208v65h68v-65h211v-68h-211v-146h211q-3 -17 -3 -34q0 -16 3 -34h-211v-88h-68v88h-208v68zM-382 -263h147v-39h-147v39z" />
    <glyph glyph-name="uni1AB9" unicode="&#x1ab9;" 
d="M-121 -302l-190 191l-189 -192l-58 24v412h68v-331l330 333l47 -48l-150 -150l191 -191z" />
    <glyph glyph-name="uni1AC0" unicode="&#x1ac0;" 
d="M-436 -234h55l-177 248l57 37l186 -259l188 258l57 -37l-180 -247h57v-68h-243v68z" />
    <glyph glyph-name="uni1AC1" unicode="&#x1ac1;" 
d="M-354 -24v73l-95 -73h95zM-441 -236h87v144l-192 -1l-16 64l227 163l49 -29v-129h143v129h68v-163l-34 -34h-177v-144h88v-68h-243v68z" />
    <glyph glyph-name="uni1AC2" unicode="&#x1ac2;" 
d="M-437 -126h-52v-70l311 260h-311v-55h-68v89l34 33h428l24 -57l-428 -376l-58 24v186l34 34h86v-68z" />
    <glyph glyph-name="uni1AC3" unicode="&#x1ac3;" 
d="M-165 -325v481h67v-481h-67zM-341 -325v481h67v-481h-67zM-532 -325v481h68v-481h-68z" />
    <glyph glyph-name="uni1AC4" unicode="&#x1ac4;" 
d="M-556 -234h482v-68h-482v68zM-556 -58h482v-68h-482v68zM-556 132h482v-67h-482v67z" />
    <glyph glyph-name="uni1AC5" unicode="&#x1ac5;" 
d="M-284 133v-404l-34 -34h-209l-34 34l-1 173l34 34h420l34 -34v-204h-68v170h-352l1 -105h141l-1 105l1 265h68z" />
    <glyph glyph-name="uni1AC6" unicode="&#x1ac6;" 
d="M-551 -260l100 120h47l62 -63v267h-208v67h487v-67h-209l-1 -347l-58 -24l-99 94l-74 -95z" />
    <glyph glyph-name="uni1AC7" unicode="&#x1ac7;" 
d="M-527 16l178 67v50h68v-50l176 -67l31 -16l-30 -60l-31 14l-146 56v-121h88v-68h-88v-52h29v-68h-131v68h34v52h-88v68h88v121l-148 -55l-30 -15l-31 60z" />
    <glyph glyph-name="uni1AC8" unicode="&#x1ac8;" 
d="M-71 -24h1v-68h-211v-186l-59 -24l-218 220l24 58h185v158h68v-158h142v157h68v-157zM-349 -92h-103l103 -104v104z" />
    <glyph glyph-name="uni1AC9" unicode="&#x1ac9;" 
d="M-438 -167h-76l-34 34v232l34 33l411 -1l34 -33v-232l-34 -34h-89v68h55v164l-343 1v-164h42v-68zM-453 -200l99 -38l2 166h-86v67h243v-67h-88l-4 -205l-49 -30l-107 38l-110 -33v58z" />
    <glyph glyph-name="uni1AD0" unicode="&#x1ad0;" 
d="M-266 -96v-205h-67v205h-160v-85h-68v245h68v-92h160v162h67v-162h192v-68h-192z" />
    <glyph glyph-name="uni1AD1" unicode="&#x1ad1;" 
d="M-558 -29h248l116 92l-357 3v67h453l24 -57l-125 -103l94 -2l34 -34v-239h-68v205l-130 2l-238 -207l-47 48l174 157h-178v68z" />
    <glyph glyph-name="uni1AD2" unicode="&#x1ad2;" 
d="M-542 -248l149 64l-140 61l-19 30v237h68v-218l172 -75l178 77v216h68v-235l-19 -30l-146 -63l160 -68l-31 -58l-210 91l-199 -86z" />
    <glyph glyph-name="uni1AD3" unicode="&#x1ad3;" 
d="M-442 -25h269l-146 139zM-285 -93v-142h88v-68h-244v68h88v142h-186l-21 60l220 217h41l225 -217l-21 -60h-190z" />
    <glyph glyph-name="uni1AD4" unicode="&#x1ad4;" 
d="M-71 -197l-99 -105l-67 25l-1 351h-155v-351l-66 -25l-99 93l47 48l41 -35l-1 270h-87v68h487v-68h-89v-271l42 48z" />
    <glyph glyph-name="uni1AD5" unicode="&#x1ad5;" 
d="M-484 29v-87h54v156l34 33h322v-67h-288v-122h288v-68h-288v-108h288v-68h-322l-34 34v142h-54v-88h-68v243h68z" />
    <glyph glyph-name="uni1AD6" unicode="&#x1ad6;" 
d="M-484 -155h421v-68h-421v-79h-66l-2 435h68v-164h353v164h68v-198l-34 -34h-387v-56z" />
    <glyph glyph-name="uni1AD7" unicode="&#x1ad7;" 
d="M-87 133l34 -33v-370l-34 -34h-419l-34 34v370l34 33h419zM-121 66h-351v-302h351v302zM-210 12l34 -34v-128l-34 -34h-175l-34 34v128l34 34h175zM-244 -56h-107v-60h107v60z" />
    <glyph glyph-name="uni1AD8" unicode="&#x1ad8;" 
d="M-332 -126h-139v-108h139v108zM-121 -126h-143v-108h143v108zM-53 -268l-34 -34h-418l-34 34v370l34 33h418l34 -33v-370zM-264 -58h143v126h-143v-126zM-471 -58h139v126h-139v-126z" />
    <glyph glyph-name="uni1AD9" unicode="&#x1ad9;" 
d="M-322 -58v191h67v-191h109v-68h-109v-179h-67v179h-107v68h107z" />
    <glyph glyph-name="uni1AE0" unicode="&#x1ae0;" 
d="M-550 128h476v-76l-404 -286h404v-68h-476v76l394 287h-394v67z" />
    <glyph glyph-name="uni1AE1" unicode="&#x1ae1;" 
d="M-479 -127l351 200v62h68v-437h-68v297l-351 -200v-92h-68v438h68v-268z" />
    <glyph glyph-name="uni1AE2" unicode="&#x1ae2;" 
d="M-489 -92v-125l157 67l32 -1l79 -68l26 -25l-35 -58l-26 27l-63 56l-189 -83l-49 30v403h68v-155h417v-68h-417z" />
    <glyph glyph-name="uni1AE3" unicode="&#x1ae3;" 
d="M-332 -234v390h68v-390h122v-68h-311v68h121zM-392 56l33 -34v-169l-33 -34h-113l-34 34v169l34 34h113zM-426 -12h-45v-101h45v101zM-87 58l34 -34v-169l-34 -34h-113l-34 34v169l34 34h113zM-121 -10h-45v-101h45v101z" />
    <glyph glyph-name="uni1AE4" unicode="&#x1ae4;" 
d="M-505 -105l173 101v137h68v-98l174 101l37 -56l-211 -124v-190h88v-68h-244v68h88v150l-165 -96l-37 56z" />
    <glyph glyph-name="uni1AE5" unicode="&#x1ae5;" 
d="M-392 -43l-164 154l48 46l24 -22q-3 3 -6 7v0q20 -18 180 -171l194 186l48 -46l-161 -154h161v-65h-159l159 -152l-48 -46l-194 186l-191 -184l-49 46l158 150h-165v65h165z" />
    <glyph glyph-name="uni1AE6" unicode="&#x1ae6;" 
d="M-320 76l-60 -136l78 -152l181 365l61 -31l-212 -424h-61l-81 157l-70 -157l-61 31l93 207l-99 188l61 31l15 -30l49 -97l61 129l60 -31z" />
    <glyph glyph-name="uni1AE7" unicode="&#x1ae7;" 
d="M-281 63v-50l124 137h87v-214h-68v133l-129 -142l184 -184l-47 -48l-182 181l-196 -181l-47 48l197 184l-132 142v-133h-68v214h84l125 -135v48h68z" />
    <glyph glyph-name="uni1AE8" unicode="&#x1ae8;" 
d="M-338 -234v136l-209 209l48 48l161 -161v60h68v-61l163 162l48 -48l-211 -209v-136h88v-68h-243v68h87z" />
    <glyph glyph-name="uni1AE9" unicode="&#x1ae9;" horiz-adv-x="615" 
d="M257 477l-126 -56l127 -124zM537 612l-140 -76l-70 -33l-1 -288l-58 -23l-218 215l9 54l199 98v111h68v-93l181 95z" />
    <glyph glyph-name="uni1AF0" unicode="&#x1af0;" horiz-adv-x="626" 
d="M118 667v-326l152 158l49 1l225 -220l-48 -48l-201 196l-187 -193l-58 23v409h68z" />
    <glyph glyph-name="uni1AF1" unicode="&#x1af1;" horiz-adv-x="623" 
d="M118 670v-99h353v99h68v-398l-34 -34h-421l-34 34v62h68v-29h353v198h-387l-34 34v133h68z" />
    <glyph glyph-name="uni1AF2" unicode="&#x1af2;" horiz-adv-x="628" 
d="M89 671l211 -197l192 194l45 -50l-423 -427l-57 24v122h68v-46l125 136l-200 189z" />
    <glyph glyph-name="uni1AF3" unicode="&#x1af3;" horiz-adv-x="626" 
d="M50 669h121l34 -34v-98l-34 -34l298 -178v345h68v-407l-52 -28l-435 264l27 72h60v30h-87v68z" />
    <glyph glyph-name="uni1AF4" unicode="&#x1af4;" horiz-adv-x="615" 
d="M295 453l-31 -26h61zM539 626l-188 -132l65 -75l-23 -59h-199l-22 59l70 70l-124 85v-336h-68v409l57 26l196 -137l190 137z" />
    <glyph glyph-name="uni1AF5" unicode="&#x1af5;" horiz-adv-x="620" 
d="M258 511v89h-140v-89h140zM326 389h144v55h-144v-55zM50 389h208v55h-174l-34 33v157l34 34h208l34 -34v-123h178l34 -34v-121l-34 -34h-178v-88h-68v88h-208v67z" />
    <glyph glyph-name="uni1AF6" unicode="&#x1af6;" horiz-adv-x="663" 
d="M82 507h87v21h-53l-34 33v89l34 33h419l34 -33v-402h-68v368h-351v-21h53l34 -34v-88l-34 -33h-121v67z" />
    <glyph glyph-name="uni1AF7" unicode="&#x1af7;" horiz-adv-x="292" 
d="M157 -98l33 -34v-98l-33 -34h-113l-34 34v98l34 34h113zM123 -155h-45v-52h45v52z" />
    <glyph glyph-name="uni1AF8" unicode="&#x1af8;" horiz-adv-x="96" 
d="M-21 -222h-79v-68h118l33 34v389h-72v-355z" />
    <glyph glyph-name="uni1AF9" unicode="&#x1af9;" 
d="M-196 600v-90h-214v90h214z" />
    <glyph glyph-name="$1B02" unicode="&#x1b02;" horiz-adv-x="556" 
d="M173 635l34 34h188l34 -34v-632h-67v598h-122v-293h-67v327zM420 -143l34 -34v-60l-34 -34h-61l-34 34v60l34 34h61zM416 -180h-54v-54h54v54z" />
    <glyph glyph-name="$1B03" unicode="&#x1b03;" horiz-adv-x="618" 
d="M293 -11l-45 -223h93zM369 313l-45 -194l89 -353h56zM176 -234l84 359l-50 197l-88 -556h54zM117 134l80 478l-80 -1v-477zM374 602l167 -866l-33 -38h-424l-2 3h-32l-1 910h-1v67h467v-67h-139zM372 611l-170 1l89 -393zM322 613v-2h4l1 6z" />
    <glyph glyph-name="$1B04" unicode="&#x1b04;" horiz-adv-x="620" 
d="M293 30l-45 -264h93zM369 476l-45 -265l89 -445h56zM176 -234l84 441l-50 268l-88 -709h54zM413 664l128 -928l-33 -38h-424l-34 38l116 928l65 4l60 -295l55 295z" />
    <glyph glyph-name="$1B05" unicode="&#x1b05;" horiz-adv-x="762" 
d="M711 379q0 -149 -90 -238.5t-241 -89.5t-240.5 90t-89.5 240t89 239t240 89q152 0 242 -89.5t90 -240.5zM320 357zM585 606q0 12 -10.5 23t-21.5 11q-16 0 -40 -44q-7 -14 -31 -56l-64 -113q18 24 95 97q72 66 72 82zM637 554q0 32 -32 32q-9 0 -17 -8l-69 -70
q-86 -87 -92 -90q14 7 111 63q13 7 77 43q22 12 22 30zM523 646q-5 30 -33 30q-22 0 -37 -49q0 -22 -50 -195zM675 486q0 31 -29 35l-212 -118q28 11 127 36q42 10 87 22q27 7 27 25zM451 668q-15 27 -35 27q-11 0 -19.5 -8t-8.5 -17v-236zM693 412q0 30 -27 38l-230 -62
h241q16 20 16 24zM693 349q0 6 -8.5 15.5t-14.5 9.5h-231l226 -60q28 3 28 35zM372 444v232q0 19 -27 19q-13 0 -20 -5q-1 -3 -14 -19zM675 275q0 17 -29 27q-11 4 -82 21q-39 10 -127 34q13 -3 108 -62q87 -53 101 -53q29 0 29 33zM358 432q-23 83 -34 127l-22 84
q-9 33 -31 33t-31 -31zM344 427l-64 113l-40 73q-16 27 -34 27q-9 0 -21 -13t-12 -22q0 -7 43 -49q102 -99 128 -129zM637 206q0 23 -41 43q-34 17 -57 31l-112 65q14 -12 93 -93q73 -74 85 -74q32 0 32 28zM412 381q0 33 -32 33q-10 0 -22.5 -11.5t-12.5 -21.5
q0 -12 11.5 -23t23.5 -11q32 0 32 34zM332 418q-53 51 -128 130q-36 38 -50 38q-10 0 -21 -11.5t-11 -20.5q0 -16 17 -27q2 -1 81 -44q90 -49 112 -65zM585 154q0 12 -46 57q-106 103 -121 122l61 -111q42 -75 56 -91q5 -6 17 -6q33 0 33 29zM523 115l-120 213
q5 -11 34 -129q18 -69 23 -84q11 -29 27 -29q29 0 36 29zM327 403l-213 118q-11 0 -19.5 -11t-8.5 -21q0 -18 24 -27q130 -33 217 -59zM325 388l-230 62q-30 -10 -30 -35q0 -6 8.5 -16.5t14.5 -10.5h237zM451 92l-63 236v-237q0 -24 30 -24q18 0 33 25zM373 89v239l-62 -239
q12 -22 33 -22q8 0 18.5 7.5t10.5 14.5zM312 371h-225q-12 0 -22 -26q0 -16 26 -34zM358 328l-118 -211q9 -31 31 -31q20 0 28 20q4 12 25 93q30 124 34 129zM318 355q-27 -8 -123 -32q-109 -26 -109 -49q0 -13 8.5 -22.5t20.5 -9.5q11 0 82 42zM331 342q-7 -3 -111 -62
q-77 -44 -84 -49q-14 -11 -14 -23q0 -11 10 -20.5t22 -9.5q15 0 29 14zM344 333l-171 -173q9 -19 12 -23q11 -12 31 -12q13 0 24 20q30 58 104 188z" />
    <glyph glyph-name="$1B06" unicode="&#x1b06;" horiz-adv-x="859" 
d="M391 670q183 0 295 -161q102 -144 102 -333q0 -183 -105 -323q-114 -155 -292 -155q-166 0 -284 160q-107 145 -107 318q0 184 102 330q113 164 289 164zM547 552v-736q86 58 131 158q42 92 42 202q0 115 -41 210q-45 106 -132 166zM237 -176v723q-83 -60 -128 -165
q-41 -95 -41 -206q0 -105 43 -196q44 -94 126 -156zM304 -215q45 -19 87 -19q44 0 88 16v805q-43 15 -88 15q-43 0 -87 -17v-800z" />
    <glyph glyph-name="$1B07" unicode="&#x1b07;" horiz-adv-x="560" 
d="M243 205q-83 37 -83 94q0 80 106 80q21 0 45 -3l-19 -62q15 0 -11 1l-27 1q-14 -2 -20 -10q-2 -4 -4 -12q3 -26 11 -36q15 -17 58 -19l-10 -54zM69 -196q98 82 194 154q152 114 177 429v0q1 9 1 19q0 75 -58 128q-48 45 -127 68q-13 4 -27 4q-64 0 -112.5 -57t-48.5 -122
q0 -171 227 -211l-11 -66q-284 49 -284 277q0 109 75 176q72 67 181 67q110 0 171 -68q82 -91 82 -179q0 -22 -2 -36q-10 -182 -44 -279q-43 -125 -173 -228l-230 -182l-59 24v278q16 2 33 2q16 0 35 -2v-196z" />
    <glyph glyph-name="$1B08" unicode="&#x1b08;" horiz-adv-x="618" 
d="M112 155v-351l147 185h48l180 -134l-47 -48l-25 24l-131 86l-182 -219l-58 24v948h68v-448h416v-67h-416zM358 -232h89v-58h-113l-34 24v205h58v-171z" />
    <glyph glyph-name="$1B09" unicode="&#x1b09;" horiz-adv-x="620" 
d="M246 -232v413l-211 458l61 31l15 -30l135 -301v88h68v-89l150 333l61 -31l-211 -459v-413h88v-68h-242v68h86zM390 -161h89v-57h-113l-34 24v204h58v-171z" />
    <glyph glyph-name="$1B0A" unicode="&#x1b0a;" 
d="M-500 542l168 143h47l175 -160l-47 -58l-25 24l-127 112l-143 -119l-24 -24l-48 58z" />
    <glyph glyph-name="$1B0B" unicode="&#x1b0b;" 
d="M-264 406l-124 104l-132 -91l-38 73l19 11l286 186l35 -70l-100 -67l116 -97l-40 -66z" />
    <glyph glyph-name="$1B0C" unicode="&#x1b0c;" 
d="M-395 433l-117 186l-17 32l69 39l17 -32l111 -177l21 -28l-62 -49z" />
    <glyph glyph-name="$1B0D" unicode="&#x1b0d;" 
d="M-348 450l145 229l80 -32l-16 -19l-145 -240l-81 32z" />
    <glyph glyph-name="$1B0E" unicode="&#x1b0e;" horiz-adv-x="205" 
d="M-78 450l136 239l80 -31l-16 -30l-136 -240l-80 32z" />
    <glyph glyph-name="$1B0F" unicode="&#x1b0f;" horiz-adv-x="292" 
d="M157 -98l33 -34v-98l-33 -34h-113l-34 34v98l34 34h113zM123 -155h-45v-52h45v52z" />
    <glyph glyph-name="$1B10" unicode="&#x1b10;" horiz-adv-x="96" 
d="M-21 -222h-79v-68h118l33 34v389h-72v-355z" />
    <glyph glyph-name="$1B11" unicode="&#x1b11;" 
d="M-196 600v-90h-214v90h214z" />
    <glyph glyph-name="$1B12" unicode="&#x1b12;" horiz-adv-x="346" 
d="M227 253l-57 -24l-185 184l47 48l25 -24l104 -116l-2 30v34h68v-132zM227 -238l-57 -24l-186 191l48 47l24 -24l103 -119v64h68v-135z" />
    <glyph glyph-name="$1B13" unicode="&#x1b13;" horiz-adv-x="340" 
d="M-23 -145h166v-72h-205l-34 34v327h73v-289z" />
    <glyph glyph-name="$1B14" unicode="&#x1b14;" horiz-adv-x="71" 
d="M-204 -169h119v-72h-143l-49 34v250h73v-212z" />
    <glyph glyph-name="$1B15" unicode="&#x1b15;" horiz-adv-x="112" 
d="M251 52l-135 -242l-86 -3l-42 142l76 17l8 -53l6 -18l116 220l73 -34z" />
    <glyph glyph-name="$1B16" unicode="&#x1b16;" 
d="M-186 690v-88h-264v88h264z" />
    <glyph glyph-name="$1B17" unicode="&#x1b17;" horiz-adv-x="216" 
d="M103 -218l-63 -8l-169 262l60 48l126 -199l18 61l65 -19z" />
    <glyph glyph-name="$1B18" unicode="&#x1b18;" horiz-adv-x="380" 
d="M211 600l-145 -228l172 -412l-6 -39l-168 -199l-24 -24l-48 47l24 25l150 182l-172 412l6 39l163 245l25 24l47 -48z" />
    <glyph glyph-name="$1B19" unicode="&#x1b19;" horiz-adv-x="353" 
d="M96 313v96l-32 -38zM146 4v-101l29 35zM146 615l18 28l25 24l47 -48l-24 -24l-66 -104v-313l93 -223l-6 -39l-87 -103v-115h-68v34l-13 -15l-24 -24l-48 47l24 25l61 73v323l-83 198l6 39l77 114v158h68v-55z" />
    <glyph glyph-name="$1B1A" unicode="&#x1b1a;" horiz-adv-x="615" 
d="M532 222v-68h-483v68h483zM374 67l34 -33v-180l-34 -34h-174l-34 34v180l34 33h174zM340 0h-106v-112h106v112zM376 554l34 -33v-181l-34 -34h-174l-34 34v181l34 33h174zM342 487h-107v-113h107v113z" />
    <glyph glyph-name="$1B1B" unicode="&#x1b1b;" horiz-adv-x="626" 
d="M219 599l-145 -228l172 -412l-6 -39l-192 -224l-48 48l24 25l150 182l-172 411l6 40l163 245l25 24l47 -48zM423 -186l20 -24v49zM511 -276l-58 -24l-70 73l-45 -54l-24 -24l-48 47l25 25l45 54l-43 45l-25 25l48 47l24 -24l37 -43l64 78l-173 412l3 13l-2 1l2 1l4 24
l163 245l24 24l48 -48l-25 -24l-133 -210l93 -104l-2 31v33h68v-132l-58 -24l-67 67l126 -301l-6 -39l-51 -59h56v-135z" />
    <glyph glyph-name="$1B1C" unicode="&#x1b1c;" horiz-adv-x="399" 
d="M151 533v68h-83v-68h83zM218 344v-646h-67v767h-117l-34 34v136l34 34h151l33 -34v-102h88v-68h-88v-53h90v-68h-90z" />
    <glyph glyph-name="$1B1D" unicode="&#x1b1d;" horiz-adv-x="290" 
d="M206 -289l-70 -13l-78 144l-52 -106l-21 -37l-47 48l20 32l74 163h48l58 -122v851h68v-960z" />
    <glyph glyph-name="$1B1E" unicode="&#x1b1e;" horiz-adv-x="154" 
d="M119 627v-904h-68v938l34 34h536v-68h-502z" />
    <glyph glyph-name="$1B1F" unicode="&#x1b1f;" horiz-adv-x="618" 
d="M150 222v345q-6 -7 -40 -41l-48 48l98 98l58 -24v-426h175v426l57 25l99 -97l-48 -48l-40 40v-346h89v-67h-89v-351l19 19l25 24l47 -48l-102 -101l-57 24v433h-175v-433l-58 -24l-100 102l48 47l42 -42v350h-88v67h88z" />
    <glyph glyph-name="$1B20" unicode="&#x1b20;" 
d="M-292 206v-208h211v-68h-162l162 -157l-47 -49l-198 193l-192 -190l-47 48l157 155h-160v68h208v208h68z" />
    <glyph glyph-name="$1B21" unicode="&#x1b21;" 
d="M-70 -136h-230l-16 64l117 58h-264v-331h-68v479h68v-80h393l15 -65l-102 -57h87v-68z" />
    <glyph glyph-name="$1B22" unicode="&#x1b22;" 
d="M-144 -301v204h-348v-204h-68v481h68v-209h382l34 -34v-238h-68z" />
    <glyph glyph-name="$1B23" unicode="&#x1b23;" 
d="M-471 -201v-33h350v87l-193 59l-9 54l75 56l-68 41l-16 20l2 15l-2 43h68l1 -46l87 -37l7 -54l-73 -52l170 -47l19 -31v-142l-34 -34h-418l-34 34v100l34 34h207v-67h-173z" />
    <glyph glyph-name="$1B24" unicode="&#x1b24;" 
d="M-563 51h208v123h68v-123h211v-68h-211v-222h88v-68h-246v68h90v222h-208v68z" />
    <glyph glyph-name="$1B25" unicode="&#x1b25;" 
d="M-349 -11h-140v-104h139zM-138 -11h-143l-1 -104h144v104zM-350 -235v52h-173l-34 34v172l34 34h174v76h68v-76h177l34 -34v-172l-34 -34h-178v-52h89v-68h-243v68h86z" />
    <glyph glyph-name="$1B26" unicode="&#x1b26;" 
d="M-349 -92h-103l103 -104v104zM-281 133v-157h211v-68h-211v-186l-59 -24l-218 220l24 58h185v157h68z" />
    <glyph glyph-name="$1B27" unicode="&#x1b27;" 
d="M-492 131v-186h384l34 -34v-213h-68v179h-384l-34 34v220h68zM-74 64h-211v-332l-34 -34h-242v68h208v332l34 33h245v-67z" />
    <glyph glyph-name="$1B28" unicode="&#x1b28;" 
d="M-550 -146h208v146h-208v68h208v65h68v-65h211v-68h-211v-146h211q-3 -17 -3 -34q0 -16 3 -34h-211v-88h-68v88h-208v68zM-382 -263h147v-39h-147v39z" />
    <glyph glyph-name="$1B29" unicode="&#x1b29;" 
d="M-121 -302l-190 191l-189 -192l-58 24v412h68v-331l330 333l47 -48l-150 -150l191 -191z" />
    <glyph glyph-name="$1B2A" unicode="&#x1b2a;" 
d="M-436 -234h55l-177 248l57 37l186 -259l188 258l57 -37l-180 -247h57v-68h-243v68z" />
    <glyph glyph-name="$1B2B" unicode="&#x1b2b;" 
d="M-354 -24v73l-95 -73h95zM-441 -236h87v144l-192 -1l-16 64l227 163l49 -29v-129h143v129h68v-163l-34 -34h-177v-144h88v-68h-243v68z" />
    <glyph glyph-name="$1B2C" unicode="&#x1b2c;" 
d="M-437 -126h-52v-70l311 260h-311v-55h-68v89l34 33h428l24 -57l-428 -376l-58 24v186l34 34h86v-68z" />
    <glyph glyph-name="$1B2D" unicode="&#x1b2d;" 
d="M-165 -325v481h67v-481h-67zM-341 -325v481h67v-481h-67zM-532 -325v481h68v-481h-68z" />
    <glyph glyph-name="$1B2E" unicode="&#x1b2e;" 
d="M-556 -234h482v-68h-482v68zM-556 -58h482v-68h-482v68zM-556 132h482v-67h-482v67z" />
    <glyph glyph-name="$1B2F" unicode="&#x1b2f;" 
d="M-284 133v-404l-34 -34h-209l-34 34l-1 173l34 34h420l34 -34v-204h-68v170h-352l1 -105h141l-1 105l1 265h68z" />
    <glyph glyph-name="$1B30" unicode="&#x1b30;" 
d="M-551 -260l100 120h47l62 -63v267h-208v67h487v-67h-209l-1 -347l-58 -24l-99 94l-74 -95z" />
    <glyph glyph-name="$1B31" unicode="&#x1b31;" 
d="M-527 16l178 67v50h68v-50l176 -67l31 -16l-30 -60l-31 14l-146 56v-121h88v-68h-88v-52h29v-68h-131v68h34v52h-88v68h88v121l-148 -55l-30 -15l-31 60z" />
    <glyph glyph-name="$1B32" unicode="&#x1b32;" 
d="M-71 -24h1v-68h-211v-186l-59 -24l-218 220l24 58h185v158h68v-158h142v157h68v-157zM-349 -92h-103l103 -104v104z" />
    <glyph glyph-name="$1B33" unicode="&#x1b33;" 
d="M-438 -167h-76l-34 34v232l34 33l411 -1l34 -33v-232l-34 -34h-89v68h55v164l-343 1v-164h42v-68zM-453 -200l99 -38l2 166h-86v67h243v-67h-88l-4 -205l-49 -30l-107 38l-110 -33v58z" />
    <glyph glyph-name="$1B34" unicode="&#x1b34;" 
d="M-266 -96v-205h-67v205h-160v-85h-68v245h68v-92h160v162h67v-162h192v-68h-192z" />
    <glyph glyph-name="$1B35" unicode="&#x1b35;" 
d="M-558 -29h248l116 92l-357 3v67h453l24 -57l-125 -103l94 -2l34 -34v-239h-68v205l-130 2l-238 -207l-47 48l174 157h-178v68z" />
    <glyph glyph-name="$1B36" unicode="&#x1b36;" 
d="M-542 -248l149 64l-140 61l-19 30v237h68v-218l172 -75l178 77v216h68v-235l-19 -30l-146 -63l160 -68l-31 -58l-210 91l-199 -86z" />
    <glyph glyph-name="$1B37" unicode="&#x1b37;" 
d="M-442 -25h269l-146 139zM-285 -93v-142h88v-68h-244v68h88v142h-186l-21 60l220 217h41l225 -217l-21 -60h-190z" />
    <glyph glyph-name="$1B38" unicode="&#x1b38;" 
d="M-71 -197l-99 -105l-67 25l-1 351h-155v-351l-66 -25l-99 93l47 48l41 -35l-1 270h-87v68h487v-68h-89v-271l42 48z" />
    <glyph glyph-name="$1B39" unicode="&#x1b39;" 
d="M-484 29v-87h54v156l34 33h322v-67h-288v-122h288v-68h-288v-108h288v-68h-322l-34 34v142h-54v-88h-68v243h68z" />
    <glyph glyph-name="$1B3A" unicode="&#x1b3a;" 
d="M-484 -155h421v-68h-421v-79h-66l-2 435h68v-164h353v164h68v-198l-34 -34h-387v-56z" />
    <glyph glyph-name="$1B3B" unicode="&#x1b3b;" 
d="M-87 133l34 -33v-370l-34 -34h-419l-34 34v370l34 33h419zM-121 66h-351v-302h351v302zM-210 12l34 -34v-128l-34 -34h-175l-34 34v128l34 34h175zM-244 -56h-107v-60h107v60z" />
    <glyph glyph-name="$1B3C" unicode="&#x1b3c;" 
d="M-332 -126h-139v-108h139v108zM-121 -126h-143v-108h143v108zM-53 -268l-34 -34h-418l-34 34v370l34 33h418l34 -33v-370zM-264 -58h143v126h-143v-126zM-471 -58h139v126h-139v-126z" />
    <glyph glyph-name="$1B3D" unicode="&#x1b3d;" 
d="M-322 -58v191h67v-191h109v-68h-109v-179h-67v179h-107v68h107z" />
    <glyph glyph-name="$1B3E" unicode="&#x1b3e;" 
d="M-550 128h476v-76l-404 -286h404v-68h-476v76l394 287h-394v67z" />
    <glyph glyph-name="$1B3F" unicode="&#x1b3f;" 
d="M-479 -127l351 200v62h68v-437h-68v297l-351 -200v-92h-68v438h68v-268z" />
    <glyph glyph-name="$1B40" unicode="&#x1b40;" 
d="M-489 -92v-125l157 67l32 -1l79 -68l26 -25l-35 -58l-26 27l-63 56l-189 -83l-49 30v403h68v-155h417v-68h-417z" />
    <glyph glyph-name="$1B41" unicode="&#x1b41;" 
d="M-332 -234v390h68v-390h122v-68h-311v68h121zM-392 56l33 -34v-169l-33 -34h-113l-34 34v169l34 34h113zM-426 -12h-45v-101h45v101zM-87 58l34 -34v-169l-34 -34h-113l-34 34v169l34 34h113zM-121 -10h-45v-101h45v101z" />
    <glyph glyph-name="$1B42" unicode="&#x1b42;" 
d="M-505 -105l173 101v137h68v-98l174 101l37 -56l-211 -124v-190h88v-68h-244v68h88v150l-165 -96l-37 56z" />
    <glyph glyph-name="$1B43" unicode="&#x1b43;" 
d="M-392 -43l-164 154l48 46l24 -22q-3 3 -6 7v0q20 -18 180 -171l194 186l48 -46l-161 -154h161v-65h-159l159 -152l-48 -46l-194 186l-191 -184l-49 46l158 150h-165v65h165z" />
    <glyph glyph-name="$1B44" unicode="&#x1b44;" 
d="M-320 76l-60 -136l78 -152l181 365l61 -31l-212 -424h-61l-81 157l-70 -157l-61 31l93 207l-99 188l61 31l15 -30l49 -97l61 129l60 -31z" />
    <glyph glyph-name="$1B45" unicode="&#x1b45;" 
d="M-281 63v-50l124 137h87v-214h-68v133l-129 -142l184 -184l-47 -48l-182 181l-196 -181l-47 48l197 184l-132 142v-133h-68v214h84l125 -135v48h68z" />
    <glyph glyph-name="$1B46" unicode="&#x1b46;" 
d="M-338 -234v136l-209 209l48 48l161 -161v60h68v-61l163 162l48 -48l-211 -209v-136h88v-68h-243v68h87z" />
    <glyph glyph-name="$1B47" unicode="&#x1b47;" horiz-adv-x="615" 
d="M257 477l-126 -56l127 -124zM537 612l-140 -76l-70 -33l-1 -288l-58 -23l-218 215l9 54l199 98v111h68v-93l181 95z" />
    <glyph glyph-name="$1B48" unicode="&#x1b48;" horiz-adv-x="626" 
d="M118 667v-326l152 158l49 1l225 -220l-48 -48l-201 196l-187 -193l-58 23v409h68z" />
    <glyph glyph-name="$1B49" unicode="&#x1b49;" horiz-adv-x="623" 
d="M118 670v-99h353v99h68v-398l-34 -34h-421l-34 34v62h68v-29h353v198h-387l-34 34v133h68z" />
    <glyph glyph-name="$1B4A" unicode="&#x1b4a;" horiz-adv-x="628" 
d="M89 671l211 -197l192 194l45 -50l-423 -427l-57 24v122h68v-46l125 136l-200 189z" />
    <glyph glyph-name="$1B4B" unicode="&#x1b4b;" horiz-adv-x="626" 
d="M50 669h121l34 -34v-98l-34 -34l298 -178v345h68v-407l-52 -28l-435 264l27 72h60v30h-87v68z" />
    <glyph glyph-name="$1B4C" unicode="&#x1b4c;" horiz-adv-x="615" 
d="M295 453l-31 -26h61zM539 626l-188 -132l65 -75l-23 -59h-199l-22 59l70 70l-124 85v-336h-68v409l57 26l196 -137l190 137z" />
    <glyph glyph-name="$1B4D" unicode="&#x1b4d;" horiz-adv-x="620" 
d="M258 511v89h-140v-89h140zM326 389h144v55h-144v-55zM50 389h208v55h-174l-34 33v157l34 34h208l34 -34v-123h178l34 -34v-121l-34 -34h-178v-88h-68v88h-208v67z" />
    <glyph glyph-name="$1B4E" unicode="&#x1b4e;" horiz-adv-x="663" 
d="M82 507h87v21h-53l-34 33v89l34 33h419l34 -33v-402h-68v368h-351v-21h53l34 -34v-88l-34 -33h-121v67z" />
    <glyph glyph-name="$1B4F" unicode="&#x1b4f;" 
d="M-354 -31l-126 -47l127 -124zM-74 72l-211 -78v-278l-58 -24l-218 215l9 54l199 78v86h68v-59l15 6l166 60zM-561 219h487v-67h-487v67z" />
    <glyph glyph-name="$1B50" unicode="&#x1b50;" 
d="M-559 222h487v-67h-487v67zM-493 128v-326l152 158h49l225 -219l-48 -48l-201 196l-187 -193l-58 24v408h68z" />
    <glyph glyph-name="$1B51" unicode="&#x1b51;" 
d="M-559 222h487v-67h-487v67zM-493 128v-99h353v99h68v-398l-34 -34h-421l-34 34v62h68v-28h353v197h-387l-34 34v133h68z" />
    <glyph glyph-name="$1B52" unicode="&#x1b52;" 
d="M-558 211h487v-67h-487v67zM-519 129l222 -163l181 160l45 -50l-429 -382l-57 25v122h68v-46l140 124l-209 155z" />
    <glyph glyph-name="$1B53" unicode="&#x1b53;" 
d="M-561 222h487v-67h-487v67zM-561 132h121l34 -33v-99l-34 -34l298 -178v345h68v-406l-52 -29l-435 264l27 72h60v31h-87v67z" />
    <glyph glyph-name="$1B54" unicode="&#x1b54;" 
d="M-313 -87l-31 -25h61zM-69 86l-188 -132l65 -75l-23 -59h-199l-22 59l70 70l-124 85v-336h-68v410l57 25l196 -137l190 137zM-556 222h487v-67h-487v67z" />
    <glyph glyph-name="$1B55" unicode="&#x1b55;" 
d="M-351 -24v89h-140v-89h140zM-283 -146h144v54h-144v-54zM-559 -146h208v54h-174l-34 34v157l34 33h208l34 -33v-123h178l34 -34v-122l-34 -34h-178v-88h-68v88h-208v68zM-559 222h487v-67h-487v67z" />
    <glyph glyph-name="$1B56" unicode="&#x1b56;" 
d="M-559 222h487v-67h-487v67zM-559 -43h87v21h-53l-34 34v88l34 33h419l34 -33v-402h-68v368h-351v-21h53l34 -33v-89l-34 -33h-121v67z" />
    <glyph glyph-name="$1B57" unicode="&#x1b57;" horiz-adv-x="698" 
d="M131 403l474 -412l-54 -48l-502 436l55 48zM577 359l-468 -417l-55 48l497 440l54 -48z" />
    <glyph glyph-name="$1B58" unicode="&#x1b58;" horiz-adv-x="567" 
d="M206 600l-145 -228l172 -412l-6 -39l-168 -199l-24 -24l-48 47l24 25l150 182l-172 412l6 39l163 245l25 24l47 -48zM446 600l-145 -228l172 -412l-6 -39l-168 -199l-24 -24l-48 47l24 25l150 182l-172 412l6 39l163 245l25 24l47 -48z" />
    <glyph glyph-name="$1B59" unicode="&#x1b59;" horiz-adv-x="989" 
d="M285 461v106l-104 -106h104zM285 256v137h-186l-24 58l220 221l58 -24v-187h143v209h68v-243l-34 -34h-177v-137h88v-67h-242v67h86zM98 123h476v-76l-374 -286h374v-68h-476v76l394 287h-394v67zM438 747v-88h-264v88h264zM861 588l-145 -229l172 -411l-6 -39l-168 -200
l-24 -23l-48 47l24 24l150 183l-172 411l6 39l163 246l25 23l47 -48z" />
    <glyph glyph-name="$1B5A" unicode="&#x1b5a;" horiz-adv-x="619" 
 />
    <glyph glyph-name="$1B5B" unicode="&#x1b5b;" horiz-adv-x="619" 
 />
    <glyph glyph-name="$1B5C" unicode="&#x1b5c;" horiz-adv-x="619" 
 />
    <glyph glyph-name="$1B5D" unicode="&#x1b5d;" horiz-adv-x="619" 
 />
    <glyph glyph-name="$1B5E" unicode="&#x1b5e;" horiz-adv-x="619" 
 />
    <glyph glyph-name="$1B5F" unicode="&#x1b5f;" horiz-adv-x="619" 
 />
    <glyph glyph-name="uni1CA0" unicode="&#x1ca0;" horiz-adv-x="346" 
d="M227 253l-57 -24l-185 184l47 48l25 -24l104 -116l-2 30v34h68v-132zM227 -238l-57 -24l-186 191l48 47l24 -24l103 -119v64h68v-135z" />
    <glyph glyph-name="uni1CA1" unicode="&#x1ca1;" horiz-adv-x="340" 
d="M-23 -145h166v-72h-205l-34 34v327h73v-289z" />
    <glyph glyph-name="uni1CA2" unicode="&#x1ca2;" horiz-adv-x="71" 
d="M-204 -169h119v-72h-143l-49 34v250h73v-212z" />
    <glyph glyph-name="uni1CA3" unicode="&#x1ca3;" horiz-adv-x="112" 
d="M251 52l-135 -242l-86 -3l-42 142l76 17l8 -53l6 -18l116 220l73 -34z" />
    <glyph glyph-name="uni1CA4" unicode="&#x1ca4;" 
d="M-186 690v-88h-264v88h264z" />
    <glyph glyph-name="uni1CA5" unicode="&#x1ca5;" horiz-adv-x="216" 
d="M103 -218l-63 -8l-169 262l60 48l126 -199l18 61l65 -19z" />
    <glyph glyph-name="uni1CA6" unicode="&#x1ca6;" horiz-adv-x="620" 
d="M122 404l416 -413l-48 -48l-440 436l48 48zM513 359l-411 -417l-48 48l436 440l48 -48z" />
    <glyph glyph-name="uni1CA7" unicode="&#x1ca7;" horiz-adv-x="154" 
d="M119 627v-904h-68v938l34 34h536v-68h-502z" />
    <glyph glyph-name="uni1CA8" unicode="&#x1ca8;" horiz-adv-x="557" 
d="M174 635l34 34h188l34 -34v-632h-67v598h-121v-293h-68v327zM421 -143l34 -34v-60l-34 -34h-61l-34 34v60l34 34h61zM418 -180h-55v-54h55v54z" />
    <glyph glyph-name="uni1CA9" unicode="&#x1ca9;" horiz-adv-x="397" 
d="M257 600l-145 -228l172 -412l-6 -39l-168 -199l-24 -24l-48 47l24 25l150 182l-172 412l6 39l163 245l25 24l47 -48z" />
    <glyph glyph-name="uni1CB0" unicode="&#x1cb0;" horiz-adv-x="626" 
d="M219 599l-145 -228l172 -412l-6 -39l-192 -224l-48 48l24 25l150 182l-172 411l6 40l163 245l25 24l47 -48zM423 -186l20 -24v49zM511 -276l-58 -24l-70 73l-45 -54l-24 -24l-48 47l25 25l45 54l-43 45l-25 25l48 47l24 -24l37 -43l64 78l-173 412l3 13l-2 1l2 1l4 24
l163 245l24 24l48 -48l-25 -24l-133 -210l93 -104l-2 31v33h68v-132l-58 -24l-67 67l126 -301l-6 -39l-51 -59h56v-135z" />
    <glyph glyph-name="uni1CB1" unicode="&#x1cb1;" horiz-adv-x="684" 
d="M1 -315l531 1063l60 -31l-546 -1093l-61 31z" />
    <glyph glyph-name="uni1CB2" unicode="&#x1cb2;" horiz-adv-x="615" 
d="M534 222v-67h-484v67h484zM375 68l34 -34v-180l-34 -34h-174l-34 34v180l34 34h174zM341 0h-106v-112h106v112zM377 554l34 -34v-180l-34 -34h-174l-34 34v180l34 34h174zM343 487h-106v-113h106v113z" />
    <glyph glyph-name="uni1CB3" unicode="&#x1cb3;" 
d="M-354 -31l-126 -47l127 -124zM-74 72l-211 -78v-278l-58 -24l-218 215l9 54l199 78v86h68v-59l15 6l166 60zM-561 219h487v-67h-487v67z" />
    <glyph glyph-name="uni1CB4" unicode="&#x1cb4;" 
d="M-559 222h487v-67h-487v67zM-493 128v-326l152 158h49l225 -219l-48 -48l-201 196l-187 -193l-58 24v408h68z" />
    <glyph glyph-name="uni1CB5" unicode="&#x1cb5;" 
d="M-559 222h487v-67h-487v67zM-493 128v-99h353v99h68v-398l-34 -34h-421l-34 34v62h68v-28h353v197h-387l-34 34v133h68z" />
    <glyph glyph-name="uni1CB6" unicode="&#x1cb6;" 
d="M-558 211h487v-67h-487v67zM-519 129l222 -163l181 160l45 -50l-429 -382l-57 25v122h68v-46l140 124l-209 155z" />
    <glyph glyph-name="uni1CB7" unicode="&#x1cb7;" 
d="M-561 222h487v-67h-487v67zM-561 132h121l34 -33v-99l-34 -34l298 -178v345h68v-406l-52 -29l-435 264l27 72h60v31h-87v67z" />
    <glyph glyph-name="uni1CB8" unicode="&#x1cb8;" 
d="M-313 -87l-31 -25h61zM-69 86l-188 -132l65 -75l-23 -59h-199l-22 59l70 70l-124 85v-336h-68v410l57 25l196 -137l190 137zM-556 222h487v-67h-487v67z" />
    <glyph glyph-name="uni1CB9" unicode="&#x1cb9;" 
d="M-351 -24v89h-140v-89h140zM-283 -146h144v54h-144v-54zM-559 -146h208v54h-174l-34 34v157l34 33h208l34 -33v-123h178l34 -34v-122l-34 -34h-178v-88h-68v88h-208v68zM-559 222h487v-67h-487v67z" />
    <glyph glyph-name="uni1CC0" unicode="&#x1cc0;" 
d="M-559 222h487v-67h-487v67zM-559 -43h87v21h-53l-34 34v88l34 33h419l34 -33v-402h-68v368h-351v-21h53l34 -33v-89l-34 -33h-121v67z" />
    <glyph glyph-name="uni1CC1" unicode="&#x1cc1;" horiz-adv-x="618" 
d="M150 222v345q-6 -7 -40 -41l-48 48l98 98l58 -24v-426h175v426l57 25l99 -97l-48 -48l-40 40v-346h89v-67h-89v-351l19 19l25 24l47 -48l-102 -101l-57 24v433h-175v-433l-58 -24l-100 102l48 47l42 -42v350h-88v67h88z" />
    <glyph glyph-name="uni1CC2" unicode="&#x1cc2;" horiz-adv-x="559" 
d="M128 -64v-238h-68v972h68v-635l349 400v-102z" />
    <glyph glyph-name="uni1CC3" unicode="&#x1cc3;" horiz-adv-x="859" 
d="M391 670q183 0 295 -161q102 -144 102 -333q0 -183 -105 -323q-114 -155 -292 -155q-166 0 -284 160q-107 145 -107 318q0 184 102 330q113 164 289 164zM547 552v-736q86 58 131 158q42 92 42 202q0 115 -41 210q-45 106 -132 166zM237 -176v723q-83 -60 -128 -165
q-41 -95 -41 -206q0 -105 43 -196q44 -94 126 -156zM304 -215q45 -19 87 -19q44 0 88 16v805q-43 15 -88 15q-43 0 -87 -17v-800z" />
    <glyph glyph-name="uni1CC4" unicode="&#x1cc4;" horiz-adv-x="560" 
d="M243 205q-83 37 -83 94q0 80 106 80q21 0 45 -3l-19 -62q15 0 -11 1l-27 1q-14 -2 -20 -10q-2 -4 -4 -12q3 -26 11 -36q15 -17 58 -19l-10 -54zM69 -196q98 82 194 154q152 114 177 429v0q1 9 1 19q0 75 -58 128q-48 45 -127 68q-13 4 -27 4q-64 0 -112.5 -57t-48.5 -122
q0 -171 227 -211l-11 -66q-284 49 -284 277q0 109 75 176q72 67 181 67q110 0 171 -68q82 -91 82 -179q0 -22 -2 -36q-10 -182 -44 -279q-43 -125 -173 -228l-230 -182l-59 24v278q16 2 33 2q16 0 35 -2v-196z" />
    <glyph glyph-name="uni1CC5" unicode="&#x1cc5;" horiz-adv-x="618" 
d="M293 -11l-45 -223h93zM369 313l-45 -194l89 -353h56zM176 -234l84 359l-50 197l-88 -556h54zM117 134l80 478l-80 -1v-477zM374 602l167 -866l-33 -38h-424l-2 3h-32l-1 910h-1v67h467v-67h-139zM372 611l-170 1l89 -393zM322 613v-2h4l1 6z" />
    <glyph glyph-name="uni1CC6" unicode="&#x1cc6;" horiz-adv-x="620" 
d="M293 30l-45 -264h93zM369 476l-45 -265l89 -445h56zM176 -234l84 441l-50 268l-88 -709h54zM413 664l128 -928l-33 -38h-424l-34 38l116 928l65 4l60 -295l55 295z" />
    <glyph glyph-name="uni1CC7" unicode="&#x1cc7;" horiz-adv-x="763" 
d="M712 379q0 -149 -90 -238.5t-241 -89.5t-240.5 90t-89.5 240t89 239t240 89q152 0 242 -89.5t90 -240.5zM321 357zM586 606q0 12 -10.5 23t-21.5 11q-16 0 -40 -44q-7 -14 -31 -56l-64 -113q17 24 95 97q72 66 72 82zM638 554q0 32 -32 32q-9 0 -17 -8l-69 -70
q-86 -87 -92 -90q14 6 111 63q13 7 77 43q22 12 22 30zM523 646q-4 30 -32 30q-23 0 -37 -49q0 -22 -50 -195zM676 486q0 31 -29 35l-212 -118q28 11 127 36q41 10 87 22q27 7 27 25zM452 668q-16 27 -35 27q-10 0 -19.5 -8t-9.5 -17v-236zM694 412q0 31 -27 38l-230 -62
h241q16 20 16 24zM694 349q0 7 -8.5 16t-14.5 9h-231l226 -60q28 3 28 35zM373 444v232q0 19 -27 19q-13 0 -19 -6q-2 -2 -15 -18zM676 275q0 17 -29 27q-11 4 -83 22q-38 9 -126 33q13 -3 108 -62q87 -53 101 -53q29 0 29 33zM359 432q-23 83 -34 127l-22 84q-8 33 -31 33
q-22 0 -31 -31zM345 427l-64 113l-40 73q-16 27 -34 27q-8 0 -20.5 -13t-12.5 -22q0 -7 43 -49q102 -99 128 -129zM638 206q0 23 -41 43q-34 17 -57 31l-112 64q14 -11 93 -92q73 -75 85 -75q32 0 32 29zM414 381q0 33 -33 33q-10 0 -22.5 -11.5t-12.5 -21.5q0 -12 11.5 -23
t23.5 -11q33 0 33 34zM334 418q-54 51 -129 130q-36 38 -50 38q-10 0 -21 -11.5t-11 -20.5q0 -16 17 -27q2 -1 81 -44q90 -50 113 -65zM586 154q0 12 -46 57q-106 104 -121 122l61 -111q42 -75 56 -91q5 -6 17 -6q33 0 33 29zM523 116l-119 212q5 -11 34 -129q18 -70 23 -83
q11 -30 27 -30q28 0 35 30zM328 403l-213 118q-11 -1 -19.5 -11.5t-8.5 -20.5q0 -18 24 -27q130 -33 217 -59zM327 388l-231 62q-30 -10 -30 -35q0 -6 8.5 -16.5t14.5 -10.5h238zM452 92l-64 236v-237q0 -23 31 -23q17 0 33 24zM374 89v239l-62 -239q12 -21 33 -21
q8 0 18.5 6.5t10.5 14.5zM313 372h-225q-12 0 -22 -27q0 -16 26 -34zM359 328l-118 -211q9 -31 31 -31q20 0 28 21q4 11 25 92q30 124 34 129zM319 356q-27 -9 -123 -32q-109 -27 -109 -50q0 -13 8.5 -22.5t20.5 -9.5q11 0 82 42zM332 342q-7 -3 -111 -62q-77 -44 -84 -49
q-14 -11 -14 -23q0 -11 10 -21t22 -10q15 0 29 15zM345 333l-171 -173q9 -19 12 -24q11 -11 31 -11q13 0 24 20q30 58 104 188z" />
    <glyph glyph-name="uni1CC8" unicode="&#x1cc8;" horiz-adv-x="103" 
 />
    <glyph glyph-name="uni1CC9" unicode="&#x1cc9;" horiz-adv-x="500" 
 />
    <glyph glyph-name="u200B" unicode="&#x200b;" 
 />
    <glyph glyph-name="u200C" unicode="&#x200c;" 
 />
    <glyph glyph-name="u200D" unicode="&#x200d;" 
 />
    <glyph glyph-name="endash" unicode="&#x2013;" horiz-adv-x="465" 
d="M0 196v51h465v-51h-465z" />
    <glyph glyph-name="emdash" unicode="&#x2014;" horiz-adv-x="824" 
d="M0 196v51h824v-51h-824z" />
    <glyph glyph-name="quoteleft" unicode="&#x2018;" horiz-adv-x="231" 
d="M191 679q0 -18 -6.5 -33t-17.5 -25.5t-24.5 -16t-27.5 -5.5q-29 0 -52 20.5t-23 59.5q0 38 9.5 72.5t24.5 61.5t33.5 45.5t35.5 24.5l14 -9q-30 -21 -48 -57t-18 -81q0 -15 0.5 -20.5t2.5 -10.5q3 3 12 7.5t19.5 9t21.5 7.5t19 3t13 -5.5t7.5 -13.5t3.5 -17.5t1 -16.5z
" />
    <glyph glyph-name="quoteright" unicode="&#x2019;" horiz-adv-x="233" 
d="M191 803q0 -38 -9.5 -72.5t-24.5 -61.5t-33.5 -45.5t-35.5 -24.5l-14 9q30 21 48 57t18 81q0 15 -0.5 20.5t-2.5 10.5q-3 -3 -12 -7.5t-19.5 -9t-21.5 -7.5t-19 -3t-13 5.5t-7.5 13.5t-3.5 17t-1 17q0 18 6.5 32.5t17.5 25t24.5 16.5t27.5 6q29 0 52 -20.5t23 -59.5z" />
    <glyph glyph-name="quotedblleft" unicode="&#x201c;" horiz-adv-x="464" 
d="M191 679q0 -18 -6.5 -33t-17.5 -25.5t-24.5 -16t-27.5 -5.5q-29 0 -52 20.5t-23 59.5q0 38 9.5 72.5t24.5 61.5t33.5 45.5t35.5 24.5l14 -9q-30 -21 -48 -57t-18 -81q0 -15 0.5 -20.5t2.5 -10.5q3 3 12 7.5t19.5 9t21.5 7.5t19 3t13 -5.5t7.5 -13.5t3.5 -17.5t1 -16.5z
M424 679q0 -18 -6.5 -33t-17.5 -25.5t-24.5 -16t-27.5 -5.5q-29 0 -52 20.5t-23 59.5q0 38 9.5 72.5t24.5 61.5t33.5 45.5t35.5 24.5l14 -9q-30 -21 -48 -57t-18 -81q0 -15 0.5 -20.5t2.5 -10.5q3 3 12 7.5t19.5 9t21.5 7.5t19 3t13 -5.5t7.5 -13.5t3.5 -17.5t1 -16.5z" />
    <glyph glyph-name="quotedblright" unicode="&#x201d;" horiz-adv-x="464" 
d="M424 803q0 -38 -9.5 -72.5t-24.5 -61.5t-33.5 -45.5t-35.5 -24.5l-14 9q30 21 48 57t18 81q0 15 -0.5 20.5t-2.5 10.5q-3 -3 -12 -7.5t-19.5 -9t-21.5 -7.5t-19 -3t-13 5.5t-7.5 13.5t-3.5 17t-1 17q0 18 6.5 32.5t17.5 25t24.5 16.5t27.5 6q29 0 52 -20.5t23 -59.5z
M191 803q0 -38 -9.5 -72.5t-24.5 -61.5t-33.5 -45.5t-35.5 -24.5l-14 9q30 21 48 57t18 81q0 15 -0.5 20.5t-2.5 10.5q-3 -3 -12 -7.5t-19.5 -9t-21.5 -7.5t-19 -3t-13 5.5t-7.5 13.5t-3.5 17t-1 17q0 18 6.5 32.5t17.5 25t24.5 16.5t27.5 6q29 0 52 -20.5t23 -59.5z" />
    <glyph glyph-name="u2060" unicode="&#x2060;" 
 />
    <glyph glyph-name="notequal" unicode="&#x2260;" horiz-adv-x="576" 
d="M219 111l-132 -149l-35 38l98 111h-95v51h140l106 120h-246v51h291l122 136l39 -36l-90 -100h103v-51h-150l-106 -120h256v-51h-301z" />
    <glyph glyph-name="circledash" unicode="&#x25cc;" horiz-adv-x="166" 
d="M57 162q0 -2 -1 -2q-2 0 -2 2q0 1 2 1q1 0 1 -1z" />
    <glyph glyph-name="uA92E" unicode="&#xa92e;" horiz-adv-x="120" 
d="M68 300q-1 1 -2 1.5t-2 0.5h-1.5h-1.5h-0.5h-1.5t-2 -0.5t-2 -1.5v2l1.5 1.5t1.5 0.5t1.5 0.5t1.5 0.5t2 -0.5t2 -0.5t2 -0.5t1 -1.5v-2v0z" />
    <glyph glyph-name="uAA60" unicode="&#xaa60;" horiz-adv-x="1064" 
d="M757 82q140 0 174 106q-21 7 -37 7q-62 0 -111 -25q-23 -12 -42 -31q-14 -15 -20 -55q16 -2 36 -2zM941 266q0 185 -184 185q-185 0 -185 -185q0 -228 -184 -266l-22 81q125 27 125 185q0 185 -185 185q-184 0 -184 -185q0 -158 125 -185l-23 -81q-184 38 -184 266
q0 266 266 266q162 0 226 -98q63 98 225 98q266 0 266 -266t-266 -266q-53 0 -74.5 20.5t-21.5 44.5q0 56 21 87q22 31 53 52q64 42 159 42q20 0 46 -6q1 12 1 26z" />
    <glyph glyph-name="uAA61" unicode="&#xaa61;" horiz-adv-x="1064" 
d="M757 451q-185 0 -185 -185q0 -184 185 -184q184 0 184 184q0 185 -184 185zM491 266q0 185 -185 185q-184 0 -184 -185q0 -50 65 -78q66 -27 66 -93q0 -95 -102 -95h-111v82h111q20 0 20 15q0 17 -19 25q-59 23 -85.5 64t-26.5 80q0 266 266 266q162 0 226 -98
q63 98 225 98q266 0 266 -266t-266 -266q-160 0 -223 96q-47 -76 -146 -96l-22 81q125 27 125 185z" />
    <glyph glyph-name="uAA62" unicode="&#xaa62;" horiz-adv-x="795" 
d="M252 197l-184 -197h-28v532h82v-372l146 157l61 -51q0 -184 172 -184q171 0 171 184q0 185 -185 185q-60 0 -104 -18l-19 80q52 19 123 19q267 0 267 -266t-253 -266q-218 0 -249 197z" />
    <glyph glyph-name="uAA63" unicode="&#xaa63;" horiz-adv-x="1064" 
d="M491 266q0 38 -9 68q-100 -100 -104 -230v-20q113 32 113 182zM757 451q-185 0 -185 -185q0 -184 185 -184q184 0 184 184q0 185 -184 185zM534 96q-47 -76 -146 -96q-36 0 -48.5 20t-12.5 69q0 162 135 294q-44 68 -156 68q-184 0 -184 -185q0 -50 65 -78q66 -27 66 -93
q0 -95 -102 -95h-111v82h111q20 0 20 15q0 17 -19 25q-59 23 -85.5 64t-26.5 80q0 266 266 266q162 0 226 -98q63 98 225 98q266 0 266 -266t-266 -266q-160 0 -223 96z" />
    <glyph glyph-name="uAA64" unicode="&#xaa64;" horiz-adv-x="1064" 
d="M757 451q-185 0 -185 -185q0 -184 185 -184q184 0 184 184q0 185 -184 185zM532 98q-64 -98 -226 -98q-266 0 -266 266q0 229 184 266l23 -80q-125 -27 -125 -186q0 -184 184 -184q185 0 185 184q0 159 -125 186l22 80q99 -20 146 -96q63 96 223 96q266 0 266 -266
t-266 -266q-162 0 -225 98z" />
    <glyph glyph-name="uAA65" unicode="&#xaa65;" horiz-adv-x="1064" 
d="M306 0q-266 0 -266 266t266 266q100 0 162 -36l-50 -71q-43 26 -112 26q-184 0 -184 -185q0 -184 184 -184q185 0 185 184q0 266 266 266t266 -266t-266 -266q-100 0 -162 37l50 71q43 -26 112 -26q184 0 184 184q0 185 -184 185q-185 0 -185 -185v-645h-170v82h89v350
q-66 -53 -185 -53z" />
    <glyph glyph-name="uAA66" unicode="&#xaa66;" horiz-adv-x="1064" 
d="M306 317q51 0 51 -51t-51 -51t-51 51t51 51zM306 451q-184 0 -184 -185q0 -184 184 -184q185 0 185 184q0 185 -185 185zM572 266q0 -266 -266 -266t-266 266t266 266q162 0 226 -98q63 98 225 98q266 0 266 -266t-266 -266q-100 0 -162 37l50 71q43 -26 112 -26
q184 0 184 184q0 185 -184 185q-185 0 -185 -185z" />
    <glyph glyph-name="uAA67" unicode="&#xaa67;" horiz-adv-x="1064" 
d="M306 317q51 0 51 -51t-51 -51t-51 51t51 51zM757 451q-185 0 -185 -185q0 -184 185 -184q184 0 184 184q0 185 -184 185zM306 451q-184 0 -184 -185q0 -184 184 -184q185 0 185 184q0 185 -185 185zM532 434q63 98 225 98q266 0 266 -266t-266 -266q-162 0 -225 98
q-64 -98 -226 -98q-266 0 -266 266t266 266q162 0 226 -98z" />
    <glyph glyph-name="uAA68" unicode="&#xaa68;" horiz-adv-x="1064" 
d="M306 317q51 0 51 -51t-51 -51t-51 51t51 51zM306 451q-184 0 -184 -185q0 -184 184 -184q185 0 185 184q0 185 -185 185zM757 82q140 0 174 106q-21 7 -37 7q-62 0 -111 -25q-23 -12 -42 -31q-14 -15 -20 -55q16 -2 36 -2zM757 0q-53 0 -74.5 20.5t-21.5 44.5q0 56 21 87
q22 31 53 52q64 42 159 42q20 0 46 -6q1 12 1 26q0 185 -184 185q-185 0 -185 -185q0 -266 -266 -266t-266 266t266 266q162 0 226 -98q63 98 225 98q266 0 266 -266t-266 -266z" />
    <glyph glyph-name="uAA69" unicode="&#xaa69;" horiz-adv-x="1064" 
d="M306 317q51 0 51 -51t-51 -51t-51 51t51 51zM777 83q164 9 164 183q0 185 -184 185q-178 0 -185 -172q173 -16 205 -196zM306 451q-184 0 -184 -185q0 -184 184 -184q185 0 185 184q0 185 -185 185zM575 227q16 -130 149 -143q-31 128 -149 143zM532 434q63 98 225 98
q266 0 266 -266t-266 -266q-162 0 -225 98q-64 -98 -226 -98q-266 0 -266 266t266 266q162 0 226 -98z" />
    <glyph glyph-name="uAA6A" unicode="&#xaa6a;" horiz-adv-x="1064" 
d="M777 83q164 9 164 183q0 185 -184 185q-178 0 -185 -172q173 -16 205 -196zM306 451q-184 0 -184 -185q0 -184 184 -184q185 0 185 184q0 185 -185 185zM575 227q16 -130 149 -143q-31 128 -149 143zM532 434q63 98 225 98q266 0 266 -266t-266 -266q-162 0 -225 98
q-64 -98 -226 -98q-266 0 -266 266t266 266q162 0 226 -98z" />
    <glyph glyph-name="uAA6B" unicode="&#xaa6b;" horiz-adv-x="614" 
d="M236 84v20q-4 130 -105 230q-8 -30 -8 -68q0 -150 113 -182zM58 383q-66 57 -66 149h51q0 -59 38 -99q64 99 226 99q267 0 267 -266q0 -228 -185 -266l-22 81q125 27 125 185q0 185 -185 185q-111 0 -155 -68q135 -132 135 -294q0 -49 -13 -69t-49 -20q-184 38 -184 266
q0 67 17 117z" />
    <glyph glyph-name="uAA6C" unicode="&#xaa6c;" horiz-adv-x="1044" 
d="M521 481q-62 0 -65 -31q45 -67 45 -184q0 -266 -231 -266q-230 0 -230 266t230 266v-81q-148 0 -148 -185q0 -184 148 -184q149 0 149 184q0 109 -51 153q7 113 153 113q147 0 154 -113q-51 -44 -51 -153q0 -184 148 -184q149 0 149 184q0 185 -149 185v81
q231 0 231 -266t-231 -266q-230 0 -230 266q0 117 45 184q-3 31 -66 31z" />
    <glyph glyph-name="uAA6D" unicode="&#xaa6d;" horiz-adv-x="645" 
d="M154 -191q0 -188 -138 -188t-138 188h82q0 -106 56 -106q57 0 57 106v457q0 22 2 41q-105 4 -105 113q0 112 113 112q65 0 93 -37q62 37 163 37q266 0 266 -266t-266 -266q-65 0 -114 15l43 77q30 -10 71 -10q184 0 184 184q0 185 -184 185q-185 0 -185 -185v-457z
M124 420q0 41 -41 41t-41 -41t41 -41t41 41z" />
    <glyph glyph-name="uAA6E" unicode="&#xaa6e;" horiz-adv-x="1064" 
d="M342 84q-6 40 -20 55q-19 19 -42 31q-49 25 -111 25q-16 0 -37 -7q34 -106 174 -106q20 0 36 2zM491 266q0 185 -185 185q-184 0 -184 -185q0 -14 1 -26q26 6 46 6q95 0 159 -42q31 -21 53 -52q21 -31 21 -87q0 -24 -21.5 -44.5t-74.5 -20.5q-266 0 -266 266t266 266
t266 -266q0 -184 185 -184q184 0 184 184q0 185 -184 185q-69 0 -112 -26l-50 71q62 36 162 36q266 0 266 -266t-266 -266t-266 266z" />
    <glyph glyph-name="uAA6F" unicode="&#xaa6f;" horiz-adv-x="778" 
d="M470 451q-184 0 -184 -185q0 -184 184 -184t184 184q0 185 -184 185zM207 322l-85 81v-403h-82v532h58l127 -136q55 136 245 136q266 0 266 -266t-266 -266t-266 266q0 30 3 56z" />
    <glyph glyph-name="uAA70" unicode="&#xaa70;" horiz-adv-x="574" 
d="M465 757q-35 37 -80 59t-98 22t-96 -21t-84 -60l-47 53q51 48 109.5 74t117.5 26q58 0 116.5 -25.5t109.5 -73.5zM432 582q-29 38 -67.5 58t-77.5 20q-40 0 -78.5 -19.5t-67.5 -58.5l-47 53q35 44 84 70t109 26q58 0 108 -26t85 -70z" />
    <glyph glyph-name="uAA71" unicode="&#xaa71;" horiz-adv-x="1064" 
d="M235 84v20q-5 130 -105 230q-8 -30 -8 -68q0 -150 113 -182zM306 532q162 0 226 -98q63 98 225 98q266 0 266 -266t-266 -266q-100 0 -162 37l50 71q43 -26 112 -26q184 0 184 184q0 185 -184 185q-185 0 -185 -185q0 -228 -184 -266l-22 81q125 27 125 185
q0 185 -185 185q-111 0 -155 -68q135 -132 135 -294q0 -49 -13 -69t-49 -20q-184 38 -184 266q0 266 266 266z" />
    <glyph glyph-name="uAA72" unicode="&#xaa72;" horiz-adv-x="1044" 
d="M133 102q0 36 -36 36q-35 0 -35 -36q0 -35 35 -35q36 0 36 35zM758 451q-184 0 -184 -185q0 -184 184 -184t184 184q0 185 -184 185zM307 451q-184 0 -184 -185q0 -59 60 -98q3 -5 7 -11q1 -2 2 -3q8 -22 8 -52q0 -102 -103 -102q-102 0 -102 102q0 85 71 100
q-25 29 -25 64q0 266 266 266q162 0 226 -98q63 98 225 98q266 0 266 -266t-266 -266q-160 0 -223 96q-46 -76 -146 -96l-22 81q125 27 125 185q0 185 -185 185z" />
    <glyph glyph-name="uAA73" unicode="&#xaa73;" horiz-adv-x="690" 
d="M122 373v-373h-82v532h80q202 -450 327 -450q119 0 119 184q0 185 -184 185q-60 0 -104 -18l-20 80q52 19 124 19q266 0 266 -266t-201 -266q-181 0 -325 373z" />
    <glyph glyph-name="uAA74" unicode="&#xaa74;" horiz-adv-x="778" 
d="M327 -276q0 51 -51 51q-52 0 -52 -51q0 -52 52 -52q51 0 51 52zM378 91q113 31 113 175q0 151 -113 183v-358zM378 5v-242q70 -60 173 -60t103 80v606q0 164 -163 164q-180 0 -180 179t180 179q179 0 179 -179h-82q0 97 -97 97q-98 0 -98 -97t98 -97q245 0 245 -246v-606
q0 -162 -185 -162q-107 0 -176 68q-17 -68 -99 -68q-103 0 -103 103q0 102 103 102q29 0 51 -9v183h-21q-266 0 -266 266q0 229 184 266l23 -80q-125 -27 -125 -186q0 -184 184 -184q10 0 21 1v360q0 50 12.5 69.5t48.5 19.5q184 -37 184 -266q0 -227 -194 -261z" />
    <glyph glyph-name="uAA75" unicode="&#xaa75;" horiz-adv-x="1228" 
d="M782 -276q0 35 -35 35q-36 0 -36 -35q0 -36 36 -36q35 0 35 36zM849 10v-216q70 -91 153 -91q103 0 103 80v606q0 164 -184 164q-180 0 -180 179t180 179q179 0 179 -179h-82q0 97 -97 97q-98 0 -98 -97t98 -97q266 0 266 -246v-606q0 -162 -185 -162q-86 0 -156 68
q-16 -68 -99 -68q-103 0 -103 103q0 102 123 102v174h-10q-100 0 -162 37l50 71q43 -26 112 -26q184 0 184 184q0 185 -184 185q-185 0 -185 -185q0 -228 -184 -266l-22 81q125 27 125 185q0 185 -185 185q-184 0 -184 -185q0 -50 65 -78q66 -27 66 -93q0 -95 -102 -95h-111
v82h111q20 0 20 15q0 17 -19 25q-59 23 -85.5 64t-26.5 80q0 266 266 266q162 0 226 -98q63 98 225 98q266 0 266 -266q0 -215 -174 -256z" />
    <glyph glyph-name="uAA76" unicode="&#xaa76;" horiz-adv-x="808" 
d="M385 -276q0 35 -36 35t-36 -35q0 -36 36 -36t36 36zM451 15v-221q70 -91 153 -91t83 80v606q0 164 -164 164q-179 0 -179 179t179 179t179 -179h-82q0 97 -97 97t-97 -97t97 -97q246 0 246 -246v-606q0 -162 -165 -162q-86 0 -156 68q-16 -68 -99 -68q-102 0 -102 103
q0 102 122 102v175q-15 -1 -30 -1q-100 0 -162 37l50 71q43 -26 112 -26q184 0 184 184q0 185 -184 185q-174 0 -174 -185v-442q0 -203 -172 -203h-65q-173 0 -173 163t194 163v-82q-112 0 -112 -81t91 -81h65q90 0 90 121v531q0 96 -77 96q-67 0 -67 -96h-82q0 177 149 177
q102 0 140 -59q67 59 193 59q266 0 266 -266q0 -201 -154 -251z" />
    <glyph glyph-name="uAA77" unicode="&#xaa77;" horiz-adv-x="614" 
d="M306 829q-97 0 -97 -97t97 -97v-82q-179 0 -179 179t179 179t179 -179h-81q0 97 -98 97zM306 532q266 0 266 -266q0 -140 -137 -246l145 -294l100 47l32 -74l-174 -78l-157 349q-9 -5 -19 -10v-257h88v-82h-170v407q211 75 211 238q0 185 -185 185q-184 0 -184 -185
q0 -50 65 -78q66 -27 66 -93q0 -95 -102 -95h-111v82h111q20 0 20 15q0 17 -19 25q-59 23 -85.5 64t-26.5 80q0 266 266 266z" />
    <glyph glyph-name="uAA78" unicode="&#xaa78;" horiz-adv-x="839" 
d="M40 418l72 36q71 -67 71 -205q0 -134 -67 -201l-70 38q55 53 55 163q0 115 -61 169zM569 65q37 -27 43 -33l-66 -52q-74 61 -189 61q-109 0 -162 -66l-38 70q66 68 200 68q89 0 148 -30l116 356q30 93 150 93q20 0 51 -16.5t47 -54.5l-58 -47q-7 23 -35 31q-11 5 -20 5
q-58 0 -76 -58zM525 532l36 -71q-66 -72 -204 -72q-134 0 -200 68l38 69q53 -55 162 -55q115 0 168 61z" />
    <glyph glyph-name="uAA79" unicode="&#xaa79;" horiz-adv-x="614" 
d="M306 532q266 0 266 -266q0 -201 -210 -306v-257h88v-82h-170v386q211 107 211 259q0 185 -185 185q-184 0 -184 -185q0 -50 65 -78q66 -27 66 -93q0 -95 -102 -95h-111v82h111q20 0 20 15q0 17 -19 25q-59 23 -85.5 64t-26.5 80q0 266 266 266z" />
    <glyph glyph-name="uAA7A" unicode="&#xaa7a;" horiz-adv-x="1228" 
d="M264 -379q-224 0 -224 213v754q0 213 224 213h270q141 0 141 110h82q0 -192 -223 -192h-270q-142 0 -142 -131v-754q0 -131 142 -131h249q141 0 141 131v432q0 185 -184 185t-184 -185q0 -184 184 -184q69 0 112 26l50 -71q-63 -37 -162 -37q-266 0 -266 266t266 266
t266 -266q0 -184 185 -184q184 0 184 184q0 185 -184 185q-69 0 -112 -26l-50 71q62 36 162 36q266 0 266 -266t-266 -266q-119 0 -185 53v-219q0 -213 -223 -213h-249z" />
    <glyph glyph-name="uAA7B" unicode="&#xaa7b;" horiz-adv-x="394" 
d="M142 67q36 0 36 35q0 36 -36 36q-35 0 -35 -36q0 -35 35 -35zM40 102q0 103 102 103q103 0 103 -103q0 -94 -87 -101q4 -62 182 -219l-142 53q-141 58 -158 235v32z" />
    <glyph glyph-name="uniAB30" unicode="&#xab30;" horiz-adv-x="626" 
d="M345 222h211v-67h-198l198 -425l-61 -31l-184 403l-182 -404l-61 31l16 30l180 396h-194v67h207v446h68v-446z" />
    <glyph glyph-name="uniAB31" unicode="&#xab31;" horiz-adv-x="620" 
d="M308 155l-24 57l163 186h-313v-700h-68v972h68v-205h395l24 -57l-163 -186h163v-67h-245z" />
    <glyph glyph-name="uniAB32" unicode="&#xab32;" horiz-adv-x="628" 
d="M128 222h386l34 -33v-491h-68v457h-352v-457h-68v972h68v-448z" />
    <glyph glyph-name="uniAB33" unicode="&#xab33;" horiz-adv-x="631" 
d="M128 -180v-54h354v162l-201 224v48l107 107l-106 95l-11 25v241h68v-225l121 -109l1 -49l-108 -108l186 -211l11 -24v-210l-34 -34h-422l-34 34v122l34 34h245v-68h-211z" />
    <glyph glyph-name="uniAB34" unicode="&#xab34;" horiz-adv-x="628" 
d="M269 461v209h68v-209h211v-68h-211v-627h88v-68h-242v68h86v627h-209v68h209z" />
    <glyph glyph-name="uniAB35" unicode="&#xab35;" horiz-adv-x="610" 
d="M512 461l34 -34v-485l-34 -34h-177v-142h88v-68h-244v68h88v142h-175l-34 34v485l34 34h175v210h68v-210h177zM267 393h-141v-417h141v417zM478 393h-143v-417h143v417z" />
    <glyph glyph-name="uniAB36" unicode="&#xab36;" horiz-adv-x="615" 
d="M267 155h-122l122 -297v297zM335 222h211v-67h-211v-442l-65 -16l-210 476l31 49h176v448h68v-448z" />
    <glyph glyph-name="uniAB37" unicode="&#xab37;" horiz-adv-x="618" 
d="M128 222h384l34 -33v-491h-68v457h-384l-34 34v481h68v-448zM335 602v-870l-34 -34h-241v68h207v870l34 34h245v-68h-211z" />
    <glyph glyph-name="uniAB38" unicode="&#xab38;" horiz-adv-x="612" 
d="M269 461v209h68v-209h210v-68h-210v-417h210v-68h-210v-142h88v-68h-243v68h87v142h-209v68h209v417h-209v68h209z" />
    <glyph glyph-name="uniAB39" unicode="&#xab39;" horiz-adv-x="615" 
d="M471 -272l-148 407l-198 -452l-65 15v971h68v-827l358 828l61 -31l-184 -416l184 -494l-61 -31z" />
    <glyph glyph-name="uniAB3A" unicode="&#xab3a;" horiz-adv-x="607" 
d="M258 -234l-205 888l66 16l8 -33l173 -766l176 794l66 -17l-200 -882h114v-68h-311v68h113z" />
    <glyph glyph-name="uniAB3B" unicode="&#xab3b;" horiz-adv-x="620" 
d="M274 222v292l-126 -292h126zM274 -234v389h-181l-30 49l214 468l65 -15v-435h143v448h68v-481l-34 -34h-177v-389h122v-68h-311v68h121z" />
    <glyph glyph-name="uniAB3C" unicode="&#xab3c;" horiz-adv-x="626" 
d="M525 670l30 -49l-421 -923l-64 16v467l34 34h119v-67h-85v-292l332 746h-402v68h457z" />
    <glyph glyph-name="uniAB3D" unicode="&#xab3d;" horiz-adv-x="620" 
d="M128 -302h-68v972h68v-972zM337 -302h-68v972h68v-972zM548 -302h-68v972h68v-972z" />
    <glyph glyph-name="uniAB3E" unicode="&#xab3e;" horiz-adv-x="615" 
d="M266 155h-138v-389h138v389zM334 222h177l34 -33v-491h-68v457h-143v-423l-34 -34h-206l-34 34v457l34 33h172v448h68v-448z" />
    <glyph glyph-name="uniAB3F" unicode="&#xab3f;" horiz-adv-x="618" 
d="M88 -241l72 213h62l56 -114v746h-210v68h489v-68h-211v-890l-65 -16l-90 157l-43 -126l-15 -31l-61 30z" />
    <glyph glyph-name="uniAB40" unicode="&#xab40;" horiz-adv-x="591" 
d="M64 263l180 179v228h68v-228l211 -202l-48 -48l-163 156v-372h121v-68h-121v-142h88v-68h-241v68h85v142h-121v68h121v370l-157 -154l-47 48z" />
    <glyph glyph-name="uniAB41" unicode="&#xab41;" horiz-adv-x="628" 
d="M347 -284l-65 -16l-212 473l31 49h389v447h68v-480l-34 -34h-369l124 -294v808h68v-953z" />
    <glyph glyph-name="uniAB42" unicode="&#xab42;" horiz-adv-x="626" 
d="M63 637l34 34h419l34 -34v-573h-68v539h-351v-539h-68v573zM427 222v-67h-88v-433l-59 -24l-96 97q-16 -15 -39 -48q-24 -36 -37 -49l-48 47l24 25l76 97h48l63 -63v351h-87v67h243z" />
    <glyph glyph-name="uniAB43" unicode="&#xab43;" horiz-adv-x="628" 
d="M345 155v-456h-68v456h-149v-211h-68v484h68v-206h149v447h68v-447h202v-67h-202z" />
    <glyph glyph-name="uniAB44" unicode="&#xab44;" horiz-adv-x="639" 
d="M307 222l160 380h-403v68h458l30 -49l-169 -399h135l34 -33v-491h-68v457h-135l-228 -457l-61 31l213 426h-209v67h243z" />
    <glyph glyph-name="uniAB45" unicode="&#xab45;" horiz-adv-x="634" 
d="M548 189l-11 -24l-185 -206l199 -214l-48 -47l-196 211l-191 -211l-49 47l193 214l-190 205l-10 24v480h68v-466l178 -193l174 194v466h68v-480z" />
    <glyph glyph-name="uniAB46" unicode="&#xab46;" horiz-adv-x="620" 
d="M303 580l-158 -324h322zM337 189v-423h88v-68h-243v68h87v423h-179l-30 49l213 432h61l218 -432l-31 -49h-184z" />
    <glyph glyph-name="uniAB47" unicode="&#xab47;" horiz-adv-x="626" 
d="M132 -156l50 -44v801h-121v68h487v-68h-123v-802l51 47l24 23l47 -48l-24 -24l-108 -104l-58 24v884h-107v-884l-58 -24l-132 127l48 47z" />
    <glyph glyph-name="uniAB48" unicode="&#xab48;" horiz-adv-x="634" 
d="M271 -234v142h-177l-34 34v721h68v-687h143v687h68v-687h143v687h68v-721l-34 -34h-177v-142h122v-68h-311v68h121z" />
    <glyph glyph-name="uniAB49" unicode="&#xab49;" horiz-adv-x="623" 
d="M128 -30v-272h-68v972h68v-448h349v448h68v-481l-34 -34h-383v-118h417v-67h-417z" />
    <glyph glyph-name="uniAB4A" unicode="&#xab4a;" horiz-adv-x="610" 
d="M503 668l34 -34v-902l-34 -34h-419l-34 34v902l34 34h419zM469 600h-351v-834h351v834zM380 485l34 -34v-536l-34 -34h-175l-34 34v536l34 34h175zM346 417h-107v-468h107v468z" />
    <glyph glyph-name="uniAB4B" unicode="&#xab4b;" horiz-adv-x="623" 
d="M277 155h-139v-387h139v387zM488 155h-143v-387h143v387zM556 -266l-34 -34h-418l-34 34v902l34 34h418l34 -34v-902zM345 222h143v380h-143v-380zM138 222h139v380h-139v-380z" />
    <glyph glyph-name="uniAB4C" unicode="&#xab4c;" horiz-adv-x="623" 
d="M269 222v447h68v-447h211v-67h-211v-457h-68v457h-209v67h209z" />
    <glyph glyph-name="uniAB4D" unicode="&#xab4d;" horiz-adv-x="628" 
d="M517 671l31 -49l-402 -856h402v-68h-456l-31 49l402 856h-403v68h457z" />
    <glyph glyph-name="uniAB4E" unicode="&#xab4e;" horiz-adv-x="623" 
d="M128 35l349 400v235h68v-972h-68v635l-349 -397v-238h-68v972h68v-635z" />
    <glyph glyph-name="uniAB4F" unicode="&#xab4f;" horiz-adv-x="623" 
d="M126 155v-351l147 195h48l166 -129l-47 -48l-24 25q0 -1 -2 -1q-12 0 -116 82l-182 -230l-58 24v948h68v-448h416v-67h-416z" />
    <glyph glyph-name="uniAB50" unicode="&#xab50;" horiz-adv-x="618" 
d="M267 -234v895h68v-895h89v-68h-244v68h87zM513 427l34 -34v-417l-34 -34h-120l-34 34v417l34 34h120zM479 360h-52v-351h52v351zM213 427l34 -34v-417l-34 -34h-119l-34 34v417l34 34h119zM179 360h-51v-351h51v351z" />
    <glyph glyph-name="uniAB51" unicode="&#xab51;" horiz-adv-x="615" 
d="M337 -303h-68v973h68v-973zM459 -235v-68h-311v68h311zM84 14l416 417l48 -48l-440 -441l-48 48z" />
    <glyph glyph-name="uniAB52" unicode="&#xab52;" horiz-adv-x="628" 
d="M252 222l-192 417l61 31l15 -31l171 -375l184 408l61 -31l-16 -30l-175 -389h191v-67h-195l195 -425l-61 -31l-184 403l-182 -404l-61 31l194 426h-193v67h187z" />
    <glyph glyph-name="uniAB53" unicode="&#xab53;" horiz-adv-x="620" 
d="M68 -253l98 434l-104 473l66 16l8 -33l64 -303l75 338l66 -16l-108 -481l71 -338l179 827l66 -17l-212 -949h-66l-71 328l-74 -328l-66 17z" />
    <glyph glyph-name="uniAB54" unicode="&#xab54;" horiz-adv-x="623" 
d="M334 342l146 329l65 -15v-464h-68v320l-140 -319l208 -462l-61 -31l-182 414l-182 -416l-61 31l207 466l-140 317v-320h-68v464l65 15l143 -321v89h68v-97z" />
    <glyph glyph-name="uniAB55" unicode="&#xab55;" horiz-adv-x="628" 
d="M277 -232v413l-211 458l61 31l15 -30l135 -301v88h68v-89l150 333l61 -31l-211 -459v-413h88v-68h-242v68h86z" />
    <glyph glyph-name="uniAB56" unicode="&#xab56;" horiz-adv-x="277" 
d="M139 669l34 -34v-937h-67v903h-141v68h174z" />
    <glyph glyph-name="uniAB57" unicode="&#xab57;" 
d="M-500 542l168 143h47l175 -160l-47 -58l-25 24l-127 112l-143 -119l-24 -24l-48 58z" />
    <glyph glyph-name="uniAB58" unicode="&#xab58;" 
d="M-264 406l-124 104l-132 -91l-38 73l19 11l286 186l35 -70l-100 -67l116 -97l-40 -66z" />
    <glyph glyph-name="uniAB59" unicode="&#xab59;" 
d="M-395 433l-117 186l-17 32l69 39l17 -32l111 -177l21 -28l-62 -49z" />
    <glyph glyph-name="uniAB5A" unicode="&#xab5a;" horiz-adv-x="322" 
d="M176 600l-145 -228l172 -412l-6 -39l-168 -199l-24 -24l-48 47l24 25l150 182l-172 412l6 39l163 245l25 24l47 -48z" />
    <glyph glyph-name="uniAB5B" unicode="&#xab5b;" horiz-adv-x="314" 
d="M53 340v44l-11 -17zM126 -1v-79l21 27zM126 615l18 28l25 24l47 -48l-24 -24l-66 -104v-313l93 -223l-6 -39l-87 -103v-115h-68v34l-13 -15l-24 -24l-48 47l24 25l61 73v323l-83 198l6 39l77 114v158h68v-55z" />
    <glyph glyph-name="uniAB5C" unicode="&#xab5c;" horiz-adv-x="399" 
d="M151 533v68h-83v-68h83zM218 344v-646h-67v767h-117l-34 34v136l34 34h151l33 -34v-102h88v-68h-88v-53h90v-68h-90z" />
    <glyph glyph-name="uniAB5D" unicode="&#xab5d;" horiz-adv-x="290" 
d="M206 -289l-70 -13l-78 144l-52 -106l-21 -37l-47 48l20 32l74 163h48l58 -122v851h68v-960z" />
    <glyph glyph-name="uniAB5E" unicode="&#xab5e;" horiz-adv-x="623" 
d="M50 -301v970h64v-1h423v-970h-64v1h-423zM114 604v-841h359v841h-359z" />
    <glyph glyph-name="uniAB5F" unicode="&#xab5f;" horiz-adv-x="620" 
d="M326 -234h213v-68h-489v68h208l2 904h68v-34z" />
    <glyph glyph-name="uniAB60" unicode="&#xab60;" horiz-adv-x="615" 
d="M330 -289l-64 -15l-216 463l9 42l271 228l174 135l41 -53l-27 -20l-256 -198l-139 -129l139 -325v830h68v-958z" />
    <glyph glyph-name="uniAB61" unicode="&#xab61;" horiz-adv-x="628" 
d="M551 610l-412 -912l-64 16v277h67v-135l138 329l-230 454l61 31l207 -411l188 411l60 -30z" />
    <glyph glyph-name="uniAB62" unicode="&#xab62;" horiz-adv-x="612" 
d="M118 -145l148 321h60q214 -444 210 -449l-60 -31q11 0 -180 390l-182 -388l-64 16v955h68v-814z" />
    <glyph glyph-name="uniAB63" unicode="&#xab63;" horiz-adv-x="623" 
d="M50 153v520h64v-457h360v454h64v-977h-484v64h420v396h-424z" />
    <glyph glyph-name="uniAB64" unicode="&#xab64;" horiz-adv-x="618" 
d="M326 548l33 -34l-1 -172l-33 -34h-172l315 -493v857h68v-953l-61 -22l-419 624l27 55h208l1 105h-242v67h276z" />
    <glyph glyph-name="uniAB65" unicode="&#xab65;" horiz-adv-x="620" 
d="M293 324q-27 -34 -53 -70h106zM50 647l61 21l183 -241l188 244l55 -41q-29 -38 -203 -254l106 -135l-26 -54h-243l-27 54l110 137l-136 190v-871h-68v950z" />
    <glyph glyph-name="uniAB66" unicode="&#xab66;" horiz-adv-x="618" 
d="M325 -24h143v179h-143v-179zM257 222v380h-139v-380h139zM257 -92h-207v68h207v179h-173l-34 34v447l34 34h207l34 -34v-414h177l34 -33v-247l-34 -34h-177v-210h-68v210z" />
    <glyph glyph-name="uniAB67" unicode="&#xab67;" horiz-adv-x="620" 
d="M223 258v135h-139l-34 34v209l34 34h418l34 -34v-937h-68v903h-350v-141h139l34 -34v-202l-34 -34h-207v67h173z" />
    <glyph glyph-name="uniAB68" unicode="&#xab68;" 
d="M-348 450l145 229l80 -32l-16 -19l-145 -240l-81 32z" />
    <glyph glyph-name="uniAB69" unicode="&#xab69;" horiz-adv-x="205" 
d="M-78 450l136 239l80 -31l-16 -30l-136 -240l-80 32z" />
    <glyph glyph-name="uniAB6A" unicode="&#xab6a;" horiz-adv-x="615" 
d="M322 222h211v-67h-198l198 -425l-61 -31l-184 403l-182 -404l-61 31l16 30l180 396h-194v67h207v446h68v-446zM336 -212h89v-57h-113l-34 23v205h58v-171z" />
    <glyph glyph-name="uniAB6B" unicode="&#xab6b;" horiz-adv-x="612" 
d="M109 222h386l34 -33v-491h-68v457h-352v-457h-68v972h68v-448zM355 -191h89v-58h-113l-34 24v205h58v-171z" />
    <glyph glyph-name="uniAB6C" unicode="&#xab6c;" horiz-adv-x="623" 
d="M253 461v209h68v-209h211v-68h-211v-627h88v-68h-242v68h86v627h-209v68h209zM424 -161h89v-57h-113l-34 24v204h58v-171z" />
    <glyph glyph-name="uniAB6D" unicode="&#xab6d;" horiz-adv-x="623" 
d="M510 461l34 -34v-485l-34 -34h-177v-142h88v-68h-244v68h88v142h-175l-34 34v485l34 34h175v210h68v-210h177zM265 393h-141v-417h141v417zM476 393h-143v-417h143v417zM451 -161h89v-57h-113l-34 24v174h58v-141z" />
    <glyph glyph-name="uniAB6E" unicode="&#xab6e;" horiz-adv-x="628" 
d="M470 -212h68v-57h-92l-33 23v205h57v-171zM336 -284l-65 -16l-212 473l31 49h389v447h68v-480l-34 -34h-369l124 -294v808h68v-953z" />
    <glyph glyph-name="uniAB6F" unicode="&#xab6f;" horiz-adv-x="623" 
d="M465 -272l-148 407l-198 -452l-65 15v971h68v-827l358 828l61 -31l-184 -416l184 -494l-61 -31zM353 -212h89v-57h-113l-34 23v205h58v-171z" />
    <glyph glyph-name="uniAB70" unicode="&#xab70;" horiz-adv-x="615" 
d="M240 -234l-205 888l66 16l8 -33l173 -766l176 794l66 -17l-200 -882h114v-68h-311v68h113zM425 -161h89v-57h-112l-34 24v204h57v-171z" />
    <glyph glyph-name="uniAB71" unicode="&#xab71;" horiz-adv-x="618" 
d="M250 155h-138v-389h138v389zM318 222h177l34 -33v-491h-68v457h-143v-423l-34 -34h-206l-34 34v457l34 33h172v448h68v-448zM378 -222h69v-47h-82l-34 23v205h47q2 -70 2 -117q0 -49 -2 -64z" />
    <glyph glyph-name="uniAB72" unicode="&#xab72;" horiz-adv-x="615" 
d="M64 -241l72 213h62l56 -114v746h-210v68h489v-68h-211v-890l-65 -16l-90 157l-43 -126l-15 -31l-61 30zM440 -212h89v-57h-113l-34 23v205h58v-171z" />
    <glyph glyph-name="uniAB73" unicode="&#xab73;" horiz-adv-x="628" 
d="M57 637l34 34h419l34 -34v-573h-68v539h-351v-539h-68v573zM421 222v-67h-88v-433l-59 -24l-96 97q-16 -15 -39 -48q-24 -36 -37 -49l-48 47l24 25l76 97h48l63 -63v351h-87v67h243zM414 -212h89v-57h-113l-34 23v205h58v-171z" />
    <glyph glyph-name="uniAB74" unicode="&#xab74;" horiz-adv-x="626" 
d="M291 222l160 380h-403v68h458l30 -49l-169 -399h135l34 -33v-491h-68v457h-135l-228 -457l-61 31l213 426h-209v67h243zM363 -212h89v-57h-113l-34 23v205h58v-171z" />
    <glyph glyph-name="uniAB75" unicode="&#xab75;" horiz-adv-x="618" 
d="M122 -92v-210h-68v972h68v-448h349v448h68v-481l-34 -34h-383v-179h417v-68h-417zM409 -212h89v-57h-113l-34 23v205h58v-171z" />
    <glyph glyph-name="uniAB76" unicode="&#xab76;" horiz-adv-x="612" 
d="M501 671l31 -49l-402 -856h402v-68h-456l-31 49l402 856h-403v68h457zM409 -161h89v-57h-113l-34 24v204h58v-171z" />
    <glyph glyph-name="uniAB77" unicode="&#xab77;" horiz-adv-x="620" 
d="M122 35l349 400v235h68v-972h-68v635l-349 -397v-238h-68v972h68v-635zM378 -212h68v-57h-92l-34 23v205h58v-171z" />
    <glyph glyph-name="uniAB78" unicode="&#xab78;" horiz-adv-x="618" 
d="M112 155v-351l147 185h48l180 -134l-47 -48l-25 24l-131 86l-182 -219l-58 24v948h68v-448h416v-67h-416zM358 -232h89v-58h-113l-34 24v205h58v-171z" />
    <glyph glyph-name="uniAB79" unicode="&#xab79;" horiz-adv-x="620" 
d="M246 -232v413l-211 458l61 31l15 -30l135 -301v88h68v-89l150 333l61 -31l-211 -459v-413h88v-68h-242v68h86zM390 -161h89v-57h-113l-34 24v204h58v-171z" />
    <glyph glyph-name="uniAB7A" unicode="&#xab7a;" horiz-adv-x="628" 
d="M336 670v-209h211v-68h-162l162 -156l-47 -49l-198 192l-192 -189l-47 48l157 154h-160v68h208v209h68z" />
    <glyph glyph-name="uniAB7B" unicode="&#xab7b;" horiz-adv-x="615" 
d="M531 400h-230l-16 63l117 58h-264v-330h-68v479h68v-81h393l15 -64l-102 -58h87v-67z" />
    <glyph glyph-name="uniAB7C" unicode="&#xab7c;" horiz-adv-x="618" 
d="M476 189v204h-348v-204h-68v481h68v-209h382l34 -34v-238h-68z" />
    <glyph glyph-name="uniAB7D" unicode="&#xab7d;" horiz-adv-x="618" 
d="M118 289v-33h350v87l-193 60l-9 54l75 55l-68 41l-16 30v88h68v-69l88 -54l7 -53l-73 -52l170 -47l19 -31v-143l-34 -33h-418l-34 33v101l34 34h207v-68h-173z" />
    <glyph glyph-name="uniAB7E" unicode="&#xab7e;" horiz-adv-x="620" 
d="M60 546h208v124h68v-124h211v-68h-211v-222h88v-67h-246v67h90v222h-208v68z" />
    <glyph glyph-name="uniAB7F" unicode="&#xab7f;" horiz-adv-x="615" 
d="M258 481h-140v-105h139zM469 481h-143l-1 -105h144v105zM257 256v52h-173l-34 34v172l34 34h174v122h68v-122h177l34 -34v-172l-34 -34h-178v-52h89v-67h-243v67h86z" />
    <glyph glyph-name="uniAB80" unicode="&#xab80;" horiz-adv-x="620" 
d="M259 402h-103l103 -105v105zM327 670v-201h211v-67h-211v-187l-59 -23l-218 220l24 57h185v201h68z" />
    <glyph glyph-name="uniAB81" unicode="&#xab81;" horiz-adv-x="623" 
d="M547 602h-211v-141h177l34 -34v-238h-68v204h-143v-171l-34 -33h-242v67h208v137h-173l-34 34v243h68v-209h139v175l34 34h245v-68z" />
    <glyph glyph-name="uniAB82" unicode="&#xab82;" horiz-adv-x="626" 
d="M60 346h208v176h-208v68h208v79h68v-79h211v-68h-211v-176h211v-67h-211v-88h-68v88h-208v67z" />
    <glyph glyph-name="uniAB83" unicode="&#xab83;" horiz-adv-x="631" 
d="M497 190l-190 190l-189 -191l-58 23v458h68v-376l369 375l49 -48l-191 -193l191 -190z" />
    <glyph glyph-name="uniAB84" unicode="&#xab84;" horiz-adv-x="623" 
d="M172 253h55l-177 371l57 38l186 -382l188 381l57 -38l-180 -370h57v-67h-243v67z" />
    <glyph glyph-name="uniAB85" unicode="&#xab85;" horiz-adv-x="639" 
d="M270 461v106l-104 -106h104zM270 256v137h-186l-24 58l220 221l58 -24v-187h143v209h68v-243l-34 -34h-177v-137h88v-67h-242v67h86z" />
    <glyph glyph-name="uniAB86" unicode="&#xab86;" horiz-adv-x="620" 
d="M180 393h-52v-99l312 308h-312v-54h-68v88l34 34h428l24 -57l-428 -424l-58 23v215l34 34h86v-68z" />
    <glyph glyph-name="uniAB87" unicode="&#xab87;" horiz-adv-x="620" 
d="M128 670v-481h-68v481h68zM335 670v-481h-68v481h68zM546 670v-481h-68v481h68z" />
    <glyph glyph-name="uniAB88" unicode="&#xab88;" horiz-adv-x="631" 
d="M338 670v-451l-34 -33h-209l-35 33v173l34 34h420l34 -34v-203h-68v170h-352v-106h142l-1 106l1 311h68z" />
    <glyph glyph-name="uniAB89" unicode="&#xab89;" horiz-adv-x="626" 
d="M50 233l100 120h47l63 -63l-2 312h-208v68h487v-68h-209v-393l-58 -23l-99 94l-74 -95z" />
    <glyph glyph-name="uniAB8A" unicode="&#xab8a;" horiz-adv-x="623" 
d="M91 503l178 69v97h68v-98l176 -68l31 -15l-30 -61l-31 16l-146 55v-122h88v-68h-88v-52h29v-67h-131v67h34v52h-88v68h88v122l-148 -55l-30 -16l-31 61z" />
    <glyph glyph-name="uniAB8B" unicode="&#xab8b;" horiz-adv-x="634" 
d="M551 474h1v-68h-211v-186l-59 -24l-218 220l24 58h185v158h68v-158h142v157h68v-157zM273 406h-103l103 -104v104z" />
    <glyph glyph-name="uniAB8C" unicode="&#xab8c;" horiz-adv-x="628" 
d="M181 331h-87l-34 34v271l34 34l422 -1l34 -34v-271l-34 -34h-89v68h55v203l-354 1v-203h53v-68zM181 493h243v-68h-243v68zM55 252l110 45l29 -1l71 -37l3 200h68l-3 -255l-49 -30l-108 55l-106 -43l-20 48z" />
    <glyph glyph-name="uniAB8D" unicode="&#xab8d;" horiz-adv-x="612" 
d="M345 393v-204h-68v204h-149v-85h-68v245h68v-92h149v209h68v-209h202v-68h-202z" />
    <glyph glyph-name="uniAB8E" unicode="&#xab8e;" horiz-adv-x="618" 
d="M63 461h217l134 138h-357v71h453l23 -57l-147 -153l117 1l33 -34v-228h-67v194h-157l-188 -189l-47 48l141 141h-155v68z" />
    <glyph glyph-name="uniAB8F" unicode="&#xab8f;" horiz-adv-x="623" 
d="M70 254l149 68l-140 64l-19 31v251h68v-231l172 -78l178 81v228h68v-249l-19 -31l-146 -66l160 -73l-31 -60l-210 96l-199 -91z" />
    <glyph glyph-name="uniAB90" unicode="&#xab90;" horiz-adv-x="628" 
d="M178 464h270l-145 147zM335 397v-143h88v-67h-244v67h88v143h-186l-21 60l222 223h41l223 -223l-21 -60h-190z" />
    <glyph glyph-name="uniAB91" unicode="&#xab91;" horiz-adv-x="634" 
d="M547 293l-99 -104l-58 24v389h-175v-389l-56 -24l-99 93l47 48l40 -36v308h-87v68h487v-68h-89v-309l42 48z" />
    <glyph glyph-name="uniAB92" unicode="&#xab92;" horiz-adv-x="618" 
d="M128 558v-87h54v161l34 34h322v-68h-288v-127h288v-67h-288v-144h288v-67h-322l-34 34v177h-54v-88h-68v242h68z" />
    <glyph glyph-name="uniAB93" unicode="&#xab93;" horiz-adv-x="634" 
d="M128 337h410v-67h-410v-81h-68v481h68v-209h343v209h67v-243l-33 -34h-377v-56z" />
    <glyph glyph-name="uniAB94" unicode="&#xab94;" horiz-adv-x="620" 
d="M513 669l34 -34v-413l-34 -33h-419l-34 33v413l34 34h419zM479 601h-351v-345h351v345zM369 516l34 -33v-120l-34 -34h-134l-33 34v120l33 33h134zM336 449h-67v-52h67v52z" />
    <glyph glyph-name="uniAB95" unicode="&#xab95;" horiz-adv-x="623" 
d="M267 393h-139v-138h139v138zM478 393h-143v-138h143v138zM546 221l-34 -33h-418l-34 33v414l34 34h418l34 -34v-414zM335 461h143v140h-143v-140zM128 461h139v140h-139v-140z" />
    <glyph glyph-name="uniAB96" unicode="&#xab96;" horiz-adv-x="626" 
d="M266 461v200h67v-200h99v-68h-99v-203h-67v203h-107v68h107z" />
    <glyph glyph-name="uniAB97" unicode="&#xab97;" horiz-adv-x="623" 
d="M50 670h487v-76l-405 -338h405v-67h-487v75l405 338h-405v68z" />
    <glyph glyph-name="uniAB98" unicode="&#xab98;" horiz-adv-x="623" 
d="M128 377l351 200v93h68v-478h-68v307l-351 -200v-102h-68l1 473h67v-293z" />
    <glyph glyph-name="uniAB99" unicode="&#xab99;" horiz-adv-x="634" 
d="M128 392v-124l157 66l32 -1l49 -39l26 -25l-35 -58l-25 27l-34 27l-189 -82l-49 29v458h68v-210h417v-68h-417z" />
    <glyph glyph-name="uniAB9A" unicode="&#xab9a;" horiz-adv-x="636" 
d="M267 256v414h68v-414h122v-67h-311v67h121zM207 545l33 -34v-169l-33 -34h-113l-34 34v169l34 34h113zM173 477h-45v-101h45v101zM512 547l34 -34v-169l-34 -33h-113l-34 33v169l34 34h113zM478 479h-45v-101h45v101z" />
    <glyph glyph-name="uniAB9B" unicode="&#xab9b;" horiz-adv-x="636" 
d="M103 399l173 102v137h68v-98l174 101l37 -56l-211 -124v-191h88v-67h-244v67h88v151l-165 -96l-37 56z" />
    <glyph glyph-name="uniAB9C" unicode="&#xab9c;" horiz-adv-x="626" 
d="M225 461l-164 161l48 48l24 -24q-3 3 -6 8v0q20 -19 180 -179l194 195l48 -48l-161 -161h161v-68h-159l159 -158l-48 -48l-194 193l-191 -191l-49 48l158 156h-165v68h165z" />
    <glyph glyph-name="uniAB9D" unicode="&#xab9d;" horiz-adv-x="636" 
d="M281 612l-65 -164l79 -169l185 389l61 -31l-216 -448h-61l-82 174l-69 -174l-61 30l91 225l-93 195l61 31l15 -30l52 -111l58 143l60 -31z" />
    <glyph glyph-name="uniAB9E" unicode="&#xab9e;" horiz-adv-x="658" 
d="M345 566v-50l124 137h87v-214h-68v133l-129 -142l184 -183l-47 -48l-182 181l-196 -181l-47 48l197 183l-132 142v-133h-68v214h84l125 -135v48h68z" />
    <glyph glyph-name="uniAB9F" unicode="&#xab9f;" horiz-adv-x="620" 
d="M259 256v157l-209 209l48 48l161 -161v39h68v-40l163 162l48 -48l-211 -209v-157h88v-67h-243v67h87z" />
    <glyph glyph-name="u1000.med" 
d="M-368 -200q0 98 -97 98t-97 -98q0 -85 75 -95l-29 -80q-128 24 -128 175q0 180 179 180q83 0 128 -39q45 39 128 39q179 0 179 -180q0 -179 -179 -179q-17 0 -33 2l19 81q7 -1 14 -1q97 0 97 97q0 98 -97 98q-77 0 -77 -98q0 -151 -128 -175l-28 80q74 10 74 95z" />
    <glyph glyph-name="u1000_u1001_u103B" horiz-adv-x="1321" 
d="M532 434q63 98 225 98q266 0 266 -266t-266 -266q-100 0 -162 37l50 71q43 -26 112 -26q184 0 184 184q0 185 -184 185q-185 0 -185 -185q0 -228 -184 -266l-22 81q125 27 125 185q0 185 -185 185q-184 0 -184 -185q0 -158 125 -185l-23 -81q-184 38 -184 266
q0 266 266 266q162 0 226 -98zM619 -267q0 23 63 50.5t108 27.5t97 -14v3q0 98 -97 98q-79 0 -93 -65l-79 31q29 116 172 116q179 0 179 -180q0 -179 -179 -179q-141 0 -171 112zM790 -241q-52 0 -87 -17q17 -49 87 -49t87 49q-45 17 -87 17zM1140 -370l-235 152l70 49
l165 -106v795h80v-890h-80z" />
    <glyph glyph-name="u1000_u103B_u1015_u103A" horiz-adv-x="1898" 
d="M532 434q63 98 225 98q266 0 266 -266t-266 -266q-100 0 -162 37l50 71q43 -26 112 -26q184 0 184 184q0 185 -184 185q-185 0 -185 -185q0 -228 -184 -266l-22 81q125 27 125 185q0 185 -185 185q-184 0 -184 -185q0 -158 125 -185l-23 -81q-184 38 -184 266
q0 266 266 266q162 0 226 -98zM1132 -379l-241 125v234h82v-184l159 -88v824h82v-911h-82zM1270 266q0 229 184 266l23 -80q-125 -27 -125 -186q0 -184 184 -184q185 0 185 184q0 159 -125 186l22 80q184 -37 184 -266q0 -266 -266 -266t-266 266zM1580 830q-95 0 -95 -95
t95 -95l10 -80q-185 0 -185 175t175 175t175 -175h-80q0 95 -95 95z" />
    <glyph glyph-name="u1001.med" 
d="M-381 -267q0 23 63 50.5t108 27.5t97 -14v3q0 98 -97 98q-79 0 -93 -65l-79 31q29 116 172 116q179 0 179 -180q0 -179 -179 -179q-141 0 -171 112zM-210 -241q-52 0 -87 -17q17 -49 87 -49t87 49q-45 17 -87 17z" />
    <glyph glyph-name="u1002.med" horiz-adv-x="1" 
d="M-197 -20q179 0 179 -180q0 -151 -128 -175l-28 80q74 10 74 95q0 98 -97 98t-97 -98q0 -85 75 -95l-29 -80q-128 24 -128 175q0 180 179 180z" />
    <glyph glyph-name="u1003.med" 
d="M-358 -210q0 85 -74 96l28 79q128 -23 128 -175q0 -97 77 -97q97 0 97 97q0 98 -97 98q-7 0 -14 -1l-19 80q16 3 33 3q179 0 179 -180q0 -179 -179 -179q-83 0 -128 39q-45 -39 -128 -39q-179 0 -179 178v1q0 29 20 44q21 16 65 37v29h-85v68h85q78 0 78 -64
q0 -44 -40.5 -72.5t-40.5 -42.5q0 -96 97 -96t97 97z" />
    <glyph glyph-name="u1004.med" horiz-adv-x="1" 
d="M-394 -198q0 180 179 180q152 0 175 -128l-80 -29q-10 75 -95 75q-97 0 -97 -98q0 -97 97 -97q85 0 95 75l80 -29q-23 -128 -175 -128q-179 0 -179 179z" />
    <glyph glyph-name="u1004.kinzi" 
d="M-37 635q-17 -32 -46.5 -46t-55.5 -14q-23 0 -43.5 9t-35.5 24t-23.5 35.5t-8.5 43.5q0 47 33 80q-15 14 -24 33.5t-9 42.5q0 26 9.5 46.5t25.5 34.5t36.5 21.5t42.5 7.5q29 0 49.5 -12.5t31.5 -29.5l-56 -48q-4 6 -12 11.5t-16 5.5q-15 0 -26.5 -10t-11.5 -27
q0 -15 10.5 -27.5t27.5 -12.5q11 0 25 -4t28 -11.5t27 -19.5t22 -28l-60 -32q-8 13 -17.5 17t-20.5 4q-14 0 -27 -10t-13 -31q0 -16 11.5 -28t28.5 -12q11 0 20 4.5t18 18.5z" />
    <glyph glyph-name="u1004.kinzi_u102D" 
d="M-197 859q-97 0 -97 -97t97 -97t97 97t-97 97zM-197 941q179 0 179 -179t-179 -179t-179 179t179 179zM-387 645q-17 -32 -46.5 -46t-55.5 -14q-23 0 -43.5 9t-35.5 24t-23.5 35.5t-8.5 43.5q0 47 33 80q-15 14 -24 33.5t-9 42.5q0 26 9.5 46.5t25.5 34.5t36.5 21.5
t42.5 7.5q29 0 49.5 -12.5t31.5 -29.5l-56 -48q-4 6 -12 11.5t-16 5.5q-15 0 -26.5 -10t-11.5 -27q0 -15 10.5 -27.5t27.5 -12.5q11 0 25 -4t28 -11.5t27 -19.5t22 -28l-60 -32q-8 13 -17.5 17t-20.5 4q-14 0 -27 -10t-13 -31q0 -16 11.5 -28t28.5 -12q11 0 20 4.5t18 18.5z
" />
    <glyph glyph-name="u1004.kinzi_u102E" 
d="M-397 645q-17 -32 -46.5 -46t-55.5 -14q-23 0 -43.5 9t-35.5 24t-23.5 35.5t-8.5 43.5q0 47 33 80q-15 14 -24 33.5t-9 42.5q0 26 9.5 46.5t25.5 34.5t36.5 21.5t42.5 7.5q29 0 49.5 -12.5t31.5 -29.5l-56 -48q-4 6 -12 11.5t-16 5.5q-15 0 -26.5 -10t-11.5 -27
q0 -15 10.5 -27.5t27.5 -12.5q11 0 25 -4t28 -11.5t27 -19.5t22 -28l-60 -32q-8 13 -17.5 17t-20.5 4q-14 0 -27 -10t-13 -31q0 -16 11.5 -28t28.5 -12q11 0 20 4.5t18 18.5zM-279 691q23 -36 82 -36q60 0 82 36q-46 20 -82 20t-82 -20zM-100 743v9q0 97 -97 97t-97 -97v-9
q56 19 97 19t97 -19zM-197 931q179 0 179 -179t-179 -179t-179 179t179 179z" />
    <glyph glyph-name="u1004.kinzi_u1032" 
d="M-347 655q-17 -32 -46.5 -46t-55.5 -14q-23 0 -43.5 9t-35.5 24t-23.5 35.5t-8.5 43.5q0 47 33 80q-15 14 -24 33.5t-9 42.5q0 26 9.5 46.5t25.5 34.5t36.5 21.5t42.5 7.5q29 0 49.5 -12.5t31.5 -29.5l-56 -48q-4 6 -12 11.5t-16 5.5q-15 0 -26.5 -10t-11.5 -27
q0 -15 10.5 -27.5t27.5 -12.5q11 0 25 -4t28 -11.5t27 -19.5t22 -28l-60 -32q-8 13 -17.5 17t-20.5 4q-14 0 -27 -10t-13 -31q0 -16 11.5 -28t28.5 -12q11 0 20 4.5t18 18.5zM-289 949l271 -272l-57 -57l-272 272z" />
    <glyph glyph-name="u1004.kinzi_u1033" 
d="M-397 645q-17 -32 -46.5 -46t-55.5 -14q-23 0 -43.5 9t-35.5 24t-23.5 35.5t-8.5 43.5q0 47 33 80q-15 14 -24 33.5t-9 42.5q0 26 9.5 46.5t25.5 34.5t36.5 21.5t42.5 7.5q29 0 49.5 -12.5t31.5 -29.5l-56 -48q-4 6 -12 11.5t-16 5.5q-15 0 -26.5 -10t-11.5 -27
q0 -15 10.5 -27.5t27.5 -12.5q11 0 25 -4t28 -11.5t27 -19.5t22 -28l-60 -32q-8 13 -17.5 17t-20.5 4q-14 0 -27 -10t-13 -31q0 -16 11.5 -28t28.5 -12q11 0 20 4.5t18 18.5zM-205 873q-105 0 -105 -107q0 -105 105 -105q106 0 106 105q0 107 -106 107zM-205 942
q176 0 176 -176t-176 -176t-176 176t176 176zM-205 834q68 0 68 -68t-68 -68t-68 68t68 68zM-181 766q0 24 -24 24t-24 -24t24 -24t24 24z" />
    <glyph glyph-name="u1004.kinzi_u1036" 
d="M0 675q0 -32 -22.5 -54.5t-52.5 -22.5q-31 0 -53 22.5t-22 54.5q0 30 22 52.5t53 22.5q30 0 52.5 -22.5t22.5 -52.5zM-44 677q0 12 -8.5 20t-19.5 8q-12 0 -20.5 -8t-8.5 -20q0 -13 8.5 -21t20.5 -8q11 0 19.5 8t8.5 21zM-167 645q-17 -32 -46.5 -46t-55.5 -14
q-23 0 -43.5 9t-35.5 24t-23.5 35.5t-8.5 43.5q0 47 33 80q-15 14 -24 33.5t-9 42.5q0 26 9.5 46.5t25.5 34.5t36.5 21.5t42.5 7.5q29 0 49.5 -12.5t31.5 -29.5l-56 -48q-4 6 -12 11.5t-16 5.5q-15 0 -26.5 -10t-11.5 -27q0 -15 10.5 -27.5t27.5 -12.5q11 0 25 -4t28 -11.5
t27 -19.5t22 -28l-60 -32q-8 13 -17.5 17t-20.5 4q-14 0 -27 -10t-13 -31q0 -16 11.5 -28t28.5 -12q11 0 20 4.5t18 18.5z" />
    <glyph glyph-name="u1004.kinzi_u103A" 
d="M-140 830q-95 0 -95 -95t95 -95l10 -80q-185 0 -185 175t175 175t175 -175h-80q0 95 -95 95zM-347 635q-17 -32 -46.5 -46t-55.5 -14q-23 0 -43.5 9t-35.5 24t-23.5 35.5t-8.5 43.5q0 47 33 80q-15 14 -24 33.5t-9 42.5q0 26 9.5 46.5t25.5 34.5t36.5 21.5t42.5 7.5
q29 0 49.5 -12.5t31.5 -29.5l-56 -48q-4 6 -12 11.5t-16 5.5q-15 0 -26.5 -10t-11.5 -27q0 -15 10.5 -27.5t27.5 -12.5q11 0 25 -4t28 -11.5t27 -19.5t22 -28l-60 -32q-8 13 -17.5 17t-20.5 4q-14 0 -27 -10t-13 -31q0 -16 11.5 -28t28.5 -12q11 0 20 4.5t18 18.5z" />
    <glyph glyph-name="u1004.kinzi_u102D_u1036" 
d="M10 655q0 -29 -21 -50t-49 -21t-48.5 21t-20.5 50q0 28 20.5 49t48.5 21t49 -21t21 -49zM-29 656q0 13 -8.5 21t-20.5 8q-13 0 -21.5 -8t-8.5 -21q0 -14 8.5 -22t21.5 -8q12 0 20.5 8t8.5 22zM-307 859q-97 0 -97 -97t97 -97t97 97t-97 97zM-307 941q179 0 179 -179
t-179 -179t-179 179t179 179zM-507 635q-17 -32 -46.5 -46t-55.5 -14q-23 0 -43.5 9t-35.5 24t-23.5 35.5t-8.5 43.5q0 47 33 80q-15 14 -24 33.5t-9 42.5q0 26 9.5 46.5t25.5 34.5t36.5 21.5t42.5 7.5q29 0 49.5 -12.5t31.5 -29.5l-56 -48q-4 6 -12 11.5t-16 5.5
q-15 0 -26.5 -10t-11.5 -27q0 -15 10.5 -27.5t27.5 -12.5q11 0 25 -4t28 -11.5t27 -19.5t22 -28l-60 -32q-8 13 -17.5 17t-20.5 4q-14 0 -27 -10t-13 -31q0 -16 11.5 -28t28.5 -12q11 0 20 4.5t18 18.5z" />
    <glyph glyph-name="u1005.med" horiz-adv-x="1" 
d="M-210 -297h3q97 0 97 97q0 98 -97 98h-3q13 -53 13 -98t-13 -97zM-265 -113q-49 -17 -49 -87q0 -69 49 -87q17 45 17 87t-17 87zM-28 -200q0 -179 -179 -179t-179 179q0 180 179 180t179 -180z" />
    <glyph glyph-name="u1006.med" 
d="M-438 -241q-42 0 -87 -17q17 -49 87 -49q49 0 67 49q-25 17 -67 17zM-182 -102q-97 0 -97 -98q0 -97 97 -97t97 97q0 98 -97 98zM-310 -340q-45 -39 -128 -39q-141 0 -171 112q0 23 94 64q32 14 77 14t77 -14v3q0 98 -77 98q-79 0 -93 -65l-79 31q29 116 172 116
q83 0 128 -39q45 39 128 39q179 0 179 -180q0 -179 -179 -179q-83 0 -128 39z" />
    <glyph glyph-name="u1007.med" horiz-adv-x="1" 
d="M-42 -135q27 -21 74 -27l-6 -51q-65 8 -103 37q-17 -20 -55 -20q-72 0 -72 93v3h-11q-97 0 -97 -98q0 -97 97 -97q85 0 95 75l80 -29q-23 -128 -175 -128q-179 0 -179 179q0 180 179 180q146 0 173 -117zM-106 -119q0 26 -26 26q-25 0 -25 -26q0 -25 25 -25q26 0 26 25z
" />
    <glyph glyph-name="u1008.med" horiz-adv-x="163" 
d="M-278 -297h3q97 0 97 97q0 98 -97 98h-3q13 -53 13 -98t-13 -97zM-333 -113q-39 -17 -39 -87q0 -69 39 -87q17 45 17 87t-17 87zM-96 -204l138 -78v814h82v-911h-62l-177 101q-39 -101 -160 -101q-179 0 -179 179q0 180 179 180q176 0 179 -184z" />
    <glyph glyph-name="u1009_u102C" horiz-adv-x="1123" 
d="M122 48v-224q0 -121 142 -121h549q141 0 141 121v135h82v-135q0 -203 -223 -203h-549q-224 0 -224 203v360l81 23q27 -125 185 -125q185 0 185 184q0 185 -185 185q-158 0 -185 -125l-81 22q38 184 266 184q266 0 266 -266t-266 -266q-118 0 -184 48zM764 82
q185 0 185 184q0 185 -185 185q-184 0 -184 -185h-82q0 266 266 266t266 -266t-266 -266q-99 0 -122 37l51 71q3 -26 71 -26z" />
    <glyph glyph-name="u100A.alt" horiz-adv-x="1064" 
d="M491 266q0 185 -185 185q-158 0 -185 -125l-81 22q38 184 266 184q266 0 266 -266q0 -184 185 -184q184 0 184 184q0 185 -184 185q-69 0 -112 -26l-50 71q62 36 162 36q266 0 266 -266t-266 -266q-162 0 -225 98q-64 -98 -226 -98q-118 0 -184 48v-224q0 -121 142 -121
h269v-82h-269q-224 0 -224 203v202v158l81 23q27 -125 185 -125q185 0 185 184z" />
    <glyph glyph-name="u100A.med" 
d="M-7 -150q0 -23 -9 -44.5t-27 -38t-46 -26t-67 -9.5q-46 0 -81 7.5t-58 33.5q-17 -18 -42.5 -29.5t-71.5 -11.5q-20 0 -42 4.5t-43 15.5q0 -50 15.5 -71.5t50.5 -21.5h313q22 0 22 25v27h70v-24q0 -43 -20 -70.5t-71 -27.5h-323q-31 0 -54.5 12t-39.5 32t-24 46t-8 54v77
l70 25q6 -14 18 -20.5t25 -9.5t24.5 -3h16.5q13 0 27 2.5t25.5 8.5t19 15t7.5 22q0 20 -18.5 33.5t-60.5 13.5q-11 0 -35 -7t-50 -36l-50 53q25 29 62 44.5t73 15.5q75 0 112 -33t37 -84q0 -16 10.5 -25.5t26.5 -14.5t34 -6.5t33 -1.5q42 0 60.5 14.5t18.5 33.5
q0 25 -22.5 36t-56.5 11q-11 0 -24 -3t-23 -10l-33 64q8 4 19 8t22.5 6t22 3.5t16.5 1.5q77 0 113 -34t36 -83z" />
    <glyph glyph-name="u100A_u100A" horiz-adv-x="1573" 
d="M491 266q0 185 -185 185q-158 0 -185 -125l-81 22q38 184 266 184q266 0 266 -266q0 -184 185 -184q184 0 184 184q0 185 -184 185q-69 0 -112 -26l-50 71q62 36 162 36q266 0 266 -266t-266 -266q-162 0 -225 98q-64 -98 -226 -98q-118 0 -184 48v-224q0 -121 142 -121
h986q141 0 141 121v135h82v-135q0 -203 -223 -203h-986q-224 0 -224 203v202v158l81 23q27 -125 185 -125q185 0 185 184zM1133 425l-51 71q23 36 122 36q266 0 266 -266t-266 -266t-266 266h82q0 -184 184 -184q185 0 185 184q0 185 -185 185q-68 0 -71 -26z" />
    <glyph glyph-name="u100B.alt" horiz-adv-x="621" 
d="M427 -380v247q-8 3 -44 -6t-81 -9q-55 0 -107.5 15t-99.5 45v97q48 -29 97.5 -47.5t109.5 -18.5q29 0 54.5 4.5t50 12.5t49 20.5t52.5 27.5v-307h76v-81h-157zM306 532q229 0 266 -180l-80 -21q-27 122 -186 122q-184 0 -184 -180t184 -180q159 0 186 122l80 -22
q-37 -180 -266 -180q-266 0 -266 260q0 259 266 259z" />
    <glyph glyph-name="u100B.med" 
d="M-99 -335q-45 -23 -128 -23q-140 1 -179 48l20 46q54 -42 159 -43q110 0 160 44h19v-65h82v-51h-133v44zM-404 -153q0 135 179 135q152 0 175 -97l-80 -21q-10 41 -95 41q-97 0 -97 -58q0 -57 97 -57q85 0 95 41l80 -21q-23 -97 -175 -97q-179 0 -179 134z" />
    <glyph glyph-name="u100B_u100B" horiz-adv-x="621" 
d="M427 -380v247q-8 3 -44 -6t-81 -9q-55 0 -107.5 15t-99.5 45v97q48 -29 97.5 -47.5t109.5 -18.5q29 0 54.5 4.5t50 12.5t49 20.5t52.5 27.5v-307h76v-81h-157zM306 532q229 0 266 -180l-80 -21q-27 122 -186 122q-184 0 -184 -180t184 -180q159 0 186 122l80 -22
q-37 -180 -266 -180q-266 0 -266 260q0 259 266 259zM331 -374q-39 -15 -110 -15q-121 1 -155 31l18 30q46 -27 137 -27q94 0 138 28h16v-41h45v-34h-89v28zM68 -255q0 86 155 86q130 0 151 -61l-69 -15q-9 27 -82 27q-84 0 -84 -37t84 -37q73 0 82 25l69 -13
q-21 -62 -151 -62q-155 0 -155 87z" />
    <glyph glyph-name="u100B_u100C" horiz-adv-x="614" 
d="M491 -88q-92 -25 -185 -25q-174 0 -266 83l41 39q88 -70 225 -70q150 0 229 70l37 -18v-198q0 -172 -192 -172h-198q-142 0 -142 132q0 91 142 91h157v-51h-157q-60 0 -60 -40q0 -50 60 -50h198q111 0 111 90v119zM306 532q229 0 266 -184l-80 -22q-27 125 -186 125
q-184 0 -184 -185q0 -184 184 -184q159 0 186 125l80 -23q-37 -184 -266 -184q-266 0 -266 266t266 266z" />
    <glyph glyph-name="u100C.med" 
d="M-525 -377q-111 0 -111 146v74q0 137 112 137q111 0 111 -137v-85h-51v85q0 55 -35 55q-55 0 -55 -55v-74q0 -64 80 -64h130q-31 53 -31 95q0 180 179 180q180 0 180 -180q0 -151 -128 -179l-29 84q75 10 75 95q0 98 -98 98q-97 0 -97 -98q0 -85 75 -95l-29 -84z" />
    <glyph glyph-name="u100D.med" 
d="M-280 -293q56 -16 100 -16q110 0 160 35h19v-53h52v-42h-103v36q-45 -19 -128 -19q-140 1 -179 39v99l82 18q10 -34 95 -34q97 0 97 47q0 48 -97 48q-85 0 -95 -33l-80 17q24 79 175 79q179 0 179 -111q0 -110 -179 -110q-42 0 -95 16v-16h-3z" />
    <glyph glyph-name="u100D_u100D" horiz-adv-x="614" 
d="M119 -303q56 -16 100 -16q110 0 160 35h19v-53h52v-42h-103v36q-45 -19 -128 -19q-140 1 -179 39v99l82 18q10 -34 95 -34q97 0 97 47q0 48 -97 48q-85 0 -95 -33l-80 17q24 79 175 79q179 0 179 -111q0 -110 -179 -110q-42 0 -95 16v-16h-3zM572 -297h82v-82h-163v336
q-92 -22 -185 -22q-174 0 -266 71v224l79 29q24 -98 187 -98q185 0 185 143q0 147 -185 147q-163 0 -187 -101l-79 28q39 154 266 154q266 0 266 -228q0 -225 -266 -225q-100 0 -184 37v-77q88 -36 184 -36q150 0 239 81l27 -16v-365z" />
    <glyph glyph-name="u100D_u100E" horiz-adv-x="716" 
d="M355 178q-151 0 -175 61l101 13q10 -26 74 -26q77 0 77 36t-77 36q-64 0 -74 -26l-101 14q24 60 175 60q180 0 180 -84t-180 -84zM537 139q56 40 56 127q0 163 -131 188l33 78q180 -38 180 -266q0 -176 -159 -246v-317h103v-82h-185v383q-36 -4 -77 -4q-317 0 -317 266
q0 60 35 101q18 20 76 52v32h-111v81h111q102 0 102 -95q0 -76 -65.5 -98.5t-65.5 -72.5q0 -184 235 -184q69 0 116 17l12 48q-45 -14 -128 -14q-140 1 -179 30l21 30q53 -27 158 -28q110 0 160 28h20v-54z" />
    <glyph glyph-name="u100E.med" 
d="M-395 -187q0 24 18.5 50t60.5 41q13 5 13 15t-14 10h-78v51h78q72 0 72 -60q0 -40 -46 -78q-26 2 -26 -29q0 -86 110 -86q110 -10 110 86q0 100 -88 117l35 50q130 -23 130 -167q0 -167 -187 -167q-188 0 -188 167z" />
    <glyph glyph-name="u100F.med" 
d="M-274 -78q-12 6 -43 6t-43 -6q29 -44 29 -122q0 -71 -24 -115q13 -13 38 -13q24 0 38 13q-25 44 -25 115q0 78 30 122zM-568 -200q0 -97 97 -97v-82q-179 0 -179 179q0 180 160 180q55 0 91 -22q24 22 82 22q57 0 82 -22q36 22 91 22q160 0 160 -180q0 -179 -180 -179v82
q98 0 98 97q0 98 -78 98t-78 -98q0 -76 25 -109q-22 -70 -120 -70q-99 0 -110 70q15 33 15 109q0 98 -78 98t-78 -98z" />
    <glyph glyph-name="u100F_u100B" horiz-adv-x="1032" 
d="M587 83q-45 67 -45 183q0 119 46 185q-19 30 -67 30t-66 -30q46 -66 46 -185q0 -116 -45 -183q3 -32 65 -32q63 0 66 32zM626 490q55 42 146 42q231 0 231 -266t-231 -266v82q149 0 149 184q0 185 -149 185q-148 0 -148 -185q0 -108 51 -152q-7 -114 -154 -114
q-146 0 -153 114q51 44 51 152q0 185 -149 185q-148 0 -148 -185q0 -184 148 -184v-82q-230 0 -230 266t230 266q92 0 147 -42q31 42 104 42q74 0 105 -42zM811 -355q-45 -23 -128 -23q-140 1 -179 48l20 46q54 -42 159 -43q110 0 160 44h19v-65h82v-51h-133v44zM506 -173
q0 135 179 135q152 0 175 -97l-80 -21q-10 41 -95 41q-97 0 -97 -58q0 -57 97 -57q85 0 95 41l80 -21q-23 -97 -175 -97q-179 0 -179 134z" />
    <glyph glyph-name="u100F_u100D" horiz-adv-x="1044" 
d="M587 83q-45 67 -45 183q0 119 46 185q-19 30 -67 30t-66 -30q46 -66 46 -185q0 -116 -45 -183q3 -32 65 -32q63 0 66 32zM903 32v-15q0 -115 -86 -115v-4q-55 0 -55 -55h-2v-74q0 -146 -90 -146l-228 -2l-28 84q75 10 75 95q0 98 -98 98q-97 0 -97 -98q0 -85 75 -95
l-29 -84q-128 28 -128 179q0 180 179 180t179 -180q0 -42 -10 -95h59q59 0 59 64v74h2q0 137 137 137v4q31 0 34 25l2 1q-36 -10 -81 -10v82q149 0 149 184q0 185 -149 185q-148 0 -148 -185q0 -108 51 -152q-7 -114 -154 -114q-146 0 -153 114q51 44 51 152q0 185 -149 185
q-148 0 -148 -185q0 -184 148 -184v-82q-230 0 -230 266t230 266q92 0 147 -42q31 42 104 42q74 0 105 -42q55 42 146 42q231 0 231 -266q0 -175 -100 -234z" />
    <glyph glyph-name="u1010.med" 
d="M-445 -102q-97 0 -97 -98q0 -97 97 -97t97 97q0 98 -97 98zM-307 -80q45 60 118 60q179 0 179 -180q0 -179 -179 -179q-17 0 -33 2l19 81q7 -1 14 -1q97 0 97 97q0 98 -97 98q-77 0 -77 -98q0 -179 -179 -179t-179 179q0 180 179 180q83 0 138 -60z" />
    <glyph glyph-name="u1010_u103D.med" 
d="M-30 -358q0 -17 -7 -32t-19 -26.5t-29 -18t-36 -6.5q-41 0 -67 24.5t-26 59.5q0 17 7 32.5t19.5 27t29.5 18.5t37 7q42 0 66.5 -26t24.5 -60zM-79 -359q0 8 -4 15.5t-10 13.5t-14 9.5t-15 3.5q-18 0 -31.5 -12t-13.5 -29q0 -18 13 -29.5t32 -11.5q17 0 30 12.5t13 27.5z
M-344 -75q-75 0 -75 -67q0 -65 75 -65q74 0 74 65q0 67 -74 67zM-238 -61q34 41 90 41q138 0 138 -122q0 -121 -138 -121q-13 0 -25 1l15 55h10q75 0 75 65q0 67 -75 67q-59 0 -59 -67q0 -121 -137 -121q-138 0 -138 121q0 122 138 122q63 0 106 -41z" />
    <glyph glyph-name="u1011.med" 
d="M-455 -102q-97 0 -97 -98q0 -97 97 -97t97 97q0 98 -97 98zM-199 -102q-97 0 -97 -98q0 -97 97 -97t97 97q0 98 -97 98zM-327 -340q-45 -39 -128 -39q-179 0 -179 179q0 180 179 180q83 0 128 -39q45 39 128 39q179 0 179 -180q0 -179 -179 -179q-83 0 -128 39z" />
    <glyph glyph-name="u1012.med" 
d="M-73 -200q45 -25 45 -56q0 -123 -179 -123t-179 123h82q0 -51 97 -51t97 51q0 31 -97 31v51q97 0 97 31q0 51 -97 51t-97 -51h-82q0 123 179 123t179 -123q0 -31 -45 -57z" />
    <glyph glyph-name="u1013.med" horiz-adv-x="1" 
d="M-100 -203v3q0 98 -97 98t-97 -98v-3q52 14 97 14t97 -14zM-284 -258q18 -39 87 -39q70 0 87 39q-45 17 -87 17t-87 -17zM-197 -20q179 0 179 -180q0 -179 -179 -179t-179 179q0 180 179 180z" />
    <glyph glyph-name="u1014.alt" horiz-adv-x="614" 
d="M274 84q-8 100 -101 100q-31 0 -31 -30q0 -63 132 -70zM306 0q-266 0 -266 154q0 92 123 92q54 0 125 -41q59 -35 68 -121q135 8 135 80q0 42 -61 58l-97 29q-191 53 -191 148q0 133 154 133q174 0 174 -143h-82q0 62 -92 62q-72 0 -72 -52q0 -28 71 -47l107 -28
q170 -40 170 -160q0 -164 -266 -164z" />
    <glyph glyph-name="u1014.med" 
d="M-241 -317v30q0 30 -39 30q-45 0 -45 -18q0 -38 84 -42zM-189 -317q100 4 100 49q0 32 -114 66.5t-114 91.5q0 90 103 90q118 0 118 -97h-62q0 35 -56 35q-32 0 -32 -28q0 -20 109 -54.5t109 -103.5q0 -111 -179 -111t-179 104q0 68 76 68q121 0 121 -80v-30z" />
    <glyph glyph-name="u1014_u1010_u103B" horiz-adv-x="909" 
d="M324 84q-8 100 -101 100q-31 0 -31 -30q0 -63 132 -70zM356 0q-266 0 -266 154q0 92 123 92q54 0 125 -41q59 -35 68 -121q135 8 135 80q0 42 -61 58l-97 29q-191 53 -191 148q0 133 154 133q174 0 174 -143h-82q0 62 -92 62q-72 0 -72 -52q0 -28 71 -47l107 -28
q170 -40 170 -160q0 -164 -266 -164zM245 -102q-97 0 -97 -98q0 -97 97 -97t97 97q0 98 -97 98zM383 -80q45 60 118 60q179 0 179 -180q0 -179 -179 -179q-17 0 -33 2l19 81q7 -1 14 -1q97 0 97 97q0 98 -97 98q-77 0 -77 -98q0 -179 -179 -179t-179 179q0 180 179 180
q83 0 138 -60zM742 -282v814h82v-911h-82l-93 60l7 92z" />
    <glyph glyph-name="u1014_u1010_u103C" horiz-adv-x="873" 
d="M80 698q0 213 230 213h278q229 0 229 -213v-84h-84v84q0 131 -145 131h-278q-146 0 -146 -131v-864q0 -131 146 -131h278q145 0 145 131v268h84v-268q0 -213 -229 -213h-278q-230 0 -230 213v864zM439 314q-7 89 -89 89q-28 0 -28 -27q0 -56 117 -62zM467 240
q-235 0 -235 136q0 81 109 81q47 0 110 -36q52 -31 60 -107q119 7 119 71q0 37 -53 51l-86 26q-169 47 -169 131q0 117 136 117q154 0 154 -126h-73q0 54 -81 54q-63 0 -63 -45q0 -25 62 -42l95 -25q150 -35 150 -141q0 -145 -235 -145zM359 146q-76 0 -76 -77t76 -77
q77 0 77 77t-77 77zM468 163q35 47 93 47q140 0 140 -141t-140 -141q-14 0 -26 2l15 63q5 -1 11 -1q76 0 76 77t-76 77q-61 0 -61 -77q0 -141 -141 -141q-140 0 -140 141t140 141q66 0 109 -47z" />
    <glyph glyph-name="u1015.med" horiz-adv-x="1" 
d="M-386 -196q0 152 128 176l29 -80q-75 -11 -75 -96q0 -97 97 -97t97 97q0 85 -74 96l28 80q128 -24 128 -176q0 -179 -179 -179t-179 179z" />
    <glyph glyph-name="u1016.med" horiz-adv-x="1" 
d="M-28 -200q0 -179 -179 -179t-179 179q0 144 116 172l30 -78q-64 -15 -64 -94q0 -97 97 -97h3q-13 52 -13 97t13 77q41 94 65 94q111 -29 111 -171zM-148 -287q38 18 38 87q0 70 -38 87q-18 -45 -18 -87t18 -87z" />
    <glyph glyph-name="u1017.med" horiz-adv-x="1" 
d="M-288 -112q-26 -19 -26 -84q0 -97 97 -97t97 97q0 65 -25 83q-42 -28 -72 -28q-29 0 -71 29zM-251 -81q13 -9 34 -9q22 0 34 9l17 61q128 -24 128 -176q0 -179 -179 -179t-179 179q0 152 128 176z" />
    <glyph glyph-name="u1018.med" 
d="M-340 -198q0 98 -97 98q-85 0 -95 -75l-80 29q24 128 175 128q84 0 139 -51q34 49 117 49q179 0 179 -180q0 -179 -179 -179q-17 0 -33 2l19 81q7 -1 14 -1q97 0 97 97q0 98 -97 98q-77 0 -77 -96q0 -179 -179 -179q-151 0 -175 128l80 29q10 -75 95 -75q97 0 97 97z" />
    <glyph glyph-name="u1019.med" horiz-adv-x="1" 
d="M-110 -208v12q0 85 -74 96l28 80q128 -24 128 -176q0 -179 -179 -179t-179 179q0 152 128 176l29 -80q-75 -11 -75 -96v-12q50 17 97 17t97 -17zM-288 -265q20 -38 81 -38q62 0 81 38q-38 22 -81 22t-81 -22z" />
    <glyph glyph-name="u101A.med" 
d="M-512 -371q-183 0 -183 179q0 153 126 178l26 -71q-72 -23 -69 -110q-13 -99 108 -96q99 -11 104 99q-5 89 -80 100l24 78q126 -25 141 -180q9 -108 117 -100q100 -8 104 105q-1 104 -106 96q-43 8 -79 7l-35 48q43 24 112 24q182 0 182 -178q0 -179 -182 -179
q-112 0 -155 66q-44 -66 -155 -66z" />
    <glyph glyph-name="u101B.alt" horiz-adv-x="614" 
d="M380.5 20.5q-21.5 -20.5 -74.5 -20.5q-266 0 -266 266t266 266t266 -266v-522h-81v522q0 185 -185 185q-184 0 -184 -185q0 -14 1 -26q26 6 46 6q95 0 159 -42q31 -21 53 -52q21 -31 21 -87q0 -24 -21.5 -44.5zM342 84q-6 40 -20 55q-19 19 -42 31q-49 25 -111 25
q-16 0 -37 -7q34 -106 174 -106q20 0 36 2z" />
    <glyph glyph-name="u101B.long" horiz-adv-x="614" 
d="M380.5 20.5q-21.5 -20.5 -74.5 -20.5q-266 0 -266 266t266 266t266 -266v-622h-81v622q0 185 -185 185q-184 0 -184 -185q0 -14 1 -26q26 6 46 6q95 0 159 -42q31 -21 53 -52q21 -31 21 -87q0 -24 -21.5 -44.5zM342 84q-6 40 -20 55q-19 19 -42 31q-49 25 -111 25
q-16 0 -37 -7q34 -106 174 -106q20 0 36 2z" />
    <glyph glyph-name="u101B.med" 
d="M-9 -407h-71q-25 0 -25 21v197q0 33 -26 60t-70 27q-37 0 -66.5 -20t-17.5 -23q63 1 88.5 -33t25.5 -87q0 -48 -30 -48q-63 0 -111 40q-41 36 -46 87q-3 6 0 13q4 53 48.5 91t108.5 38q45 0 86 -22.5t58 -60.5q12 -24 12 -62v-167h36q25 0 25 -22q0 -29 -25 -29z
M-221 -272q2 32 -24 58q-19 18 -63 17q8 -32 44 -57q19 -14 43 -18z" />
    <glyph glyph-name="u101B.kinzi" 
d="M-196 591q-172 0 -172 172q0 173 172 173q137 0 165 -111l-76 -30q-13 62 -89 62q-93 0 -93 -94v-3q50 14 93 14t103.5 -26.5t60.5 -48.5q-28 -108 -164 -108zM-280 707q17 -47 84 -47t84 47q-34 17 -84 17q-40 0 -84 -17z" />
    <glyph glyph-name="u101B.kinzi_u102D" 
d="M-566 591q-172 0 -172 172q0 173 172 173q137 0 165 -111l-76 -30q-13 62 -89 62q-93 0 -93 -94v-3q50 14 93 14t103.5 -26.5t60.5 -48.5q-28 -108 -164 -108zM-650 707q17 -47 84 -47t84 47q-34 17 -84 17q-40 0 -84 -17zM-186 869q-98 0 -98 -97t98 -97q97 0 97 97
t-97 97zM-186 951q179 0 179 -179t-179 -179q-180 0 -180 179t180 179z" />
    <glyph glyph-name="u101B.kinzi_u102E" 
d="M-566 591q-172 0 -172 172q0 173 172 173q137 0 165 -111l-76 -30q-13 62 -89 62q-93 0 -93 -94v-3q50 14 93 14t103.5 -26.5t60.5 -48.5q-28 -108 -164 -108zM-650 707q17 -47 84 -47t84 47q-34 17 -84 17q-40 0 -84 -17zM-288 711q22 -36 82 -36q59 0 81 36
q-46 20 -81 20q-36 0 -82 -20zM-109 763v9q0 97 -97 97q-98 0 -98 -97v-9q57 19 98 19q40 0 97 -19zM-206 951q179 0 179 -179t-179 -179q-180 0 -180 179t180 179z" />
    <glyph glyph-name="u101B.kinzi_u103A" 
d="M-546 591q-172 0 -172 172q0 173 172 173q137 0 165 -111l-76 -30q-13 62 -89 62q-93 0 -93 -94v-3q50 14 93 14t103.5 -26.5t60.5 -48.5q-28 -108 -164 -108zM-630 707q17 -47 84 -47t84 47q-34 17 -84 17q-40 0 -84 -17zM-170 830q-95 0 -95 -95t95 -95l10 -80
q-185 0 -185 175t175 175t175 -175h-80q0 95 -95 95z" />
    <glyph glyph-name="u101C.med" 
d="M-348 -200q0 98 -87 98q-97 0 -97 -98q0 -97 97 -97q7 0 15 1l18 -81q-15 -2 -33 -2q-179 0 -179 179q0 180 179 180q169 0 169 -180q0 -97 87 -97q97 0 97 97q0 98 -97 98q-7 0 -14 -1l-19 80q16 3 33 3q179 0 179 -180q0 -179 -179 -179q-169 0 -169 179z" />
    <glyph glyph-name="u101E.med" 
d="M-521 -94q-94 10 -97 -72l-86 25q26 123 183 123q183 0 200 -176q-2 -99 118 -111q99 7 107 111q-15 95 -109 98q-53 -3 -82 6l-35 48q43 24 112 24q183 0 183 -178q0 -179 -183 -179q-112 0 -155 66q-44 -66 -156 -66q-157 0 -183 123l78 14q26 -67 109 -62
q109 -1 111 106q-1 103 -115 100z" />
    <glyph glyph-name="u101E_u1010_u103C" horiz-adv-x="1316" 
d="M1004 -297q141 0 141 131v268h82v-268q0 -213 -223 -213h-700q-224 0 -224 213v864q0 213 224 213h700q223 0 223 -213v-84h-82v84q0 131 -141 131h-700q-142 0 -142 -131v-864q0 -131 142 -131h700zM501 530q-156 0 -183 -117l-80 20q38 173 263 173q263 0 263 -250
q0 -173 183 -173q182 0 182 173q0 174 -182 174q-68 0 -110 -24l-50 66q61 34 160 34q264 0 264 -250t-264 -250q-160 0 -222 92q-64 -92 -224 -92q-225 0 -263 173l80 22q27 -118 183 -118q183 0 183 173q0 174 -183 174zM593 9q-84 0 -84 -84q0 -83 84 -83q83 0 83 83
q0 84 -83 84zM712 28q38 52 101 52q154 0 154 -155q0 -154 -154 -154q-14 0 -28 2l16 69h12q84 0 84 83q0 84 -84 84q-66 0 -66 -84q0 -154 -154 -154t-154 154q0 155 154 155q71 0 119 -52z" />
    <glyph glyph-name="u1020.long" horiz-adv-x="638" 
d="M488 -381q2 11 2 24v228q-91 -35 -184 -35q-174 0 -266 83v265l80 23q27 -125 186 -125q184 0 184 184q0 185 -184 185q-159 0 -186 -125l-80 22q37 184 266 184q266 0 266 -266t-266 -266q-118 0 -185 48v-90q89 -40 185 -40q149 0 228 71l38 -8v-338q0 -12 -1 -24h-83z
" />
    <glyph glyph-name="u1020_u1020" horiz-adv-x="614" 
d="M347 -346q-45 -18 -128 -18q-140 2 -179 36l20 35q54 -32 159 -32q110 0 160 33h19v-48h52v-39h-103v33zM42 -209q0 100 179 100q152 0 175 -71l-80 -17q-10 31 -95 31q-97 0 -97 -43t97 -43q85 0 95 30l80 -16q-23 -71 -175 -71q-179 0 -179 100zM572 -297h82v-82h-163
v304q-94 -17 -185 -17q-161 0 -266 54v131l38 19q79 -71 228 -71q96 0 185 40v38q-84 -40 -185 -40q-266 0 -266 227q0 226 266 226q228 0 266 -153l-78 -28q-25 100 -188 100q-184 0 -184 -145t184 -145q163 0 188 99l78 -28v-159q-92 -83 -266 -83q-93 0 -184 35v-36
q92 -30 184 -30q166 0 266 66v-322z" />
    <glyph glyph-name="u1020_u103E" horiz-adv-x="643" 
d="M346 -291l-95 21l-13 48l76 -10l57 55l37 -9zM572 -81q-92 -83 -266 -83q-93 0 -184 35v-78q0 -90 112 -90h146q111 0 111 90h81q0 -172 -192 -172h-146q-194 0 -194 172v188l38 8q79 -71 228 -71q96 0 185 40v90q-67 -48 -185 -48q-266 0 -266 266t266 266
q229 0 266 -184l-80 -22q-27 125 -186 125q-184 0 -184 -185q0 -184 184 -184q159 0 186 125l80 -23v-265z" />
    <glyph glyph-name="u1021.med" 
d="M-30 -267q0 -41 -15.5 -74.5t-41.5 -57.5t-59.5 -37t-69.5 -13q-41 0 -78 17q8 26 16.5 49t21.5 42.5t31 35.5t45 29q23 11 51.5 16t61.5 0q-1 28 -13 52.5t-31.5 43t-45.5 29t-54 10.5q-38 0 -73.5 -19.5t-58.5 -55.5q-4 -25 -20 -43.5t-43 -23.5q29 -6 46.5 -28
t17.5 -49q0 -44 -39 -75t-124 -31q-79 0 -121.5 28.5t-42.5 71.5l36 15q0 -39 34.5 -57t93.5 -19q22 0 44.5 3.5t39.5 11t28 20.5t11 32q0 16 -12 27t-29 17t-35.5 9t-31.5 4v39q13 1 31.5 4t35.5 9.5t29 17t12 26.5q0 19 -11 32t-28 20.5t-39.5 10.5t-44.5 3
q-59 0 -93.5 -17.5t-34.5 -57.5l-36 15q0 43 42.5 72t121.5 29q63 0 100 -17.5t53 -44.5q28 32 64 47t77 15q37 0 70 -14.5t58 -39t39 -58t14 -71.5zM-73 -302q-29 6 -51.5 2t-37.5 -11q-35 -17 -52 -40t-27 -56q28 -6 55.5 -1t50 18.5t39 36t23.5 51.5z" />
    <glyph glyph-name="u102B_u103A" horiz-adv-x="382" 
d="M41 683q0 105 -92 105t-92 -105h-82q0 187 174 187q90 0 133 -50q43 50 133 50q174 0 174 -187h-82q0 105 -92 105t-92 -105v-683h-82v683z" />
    <glyph glyph-name="u102D_u1036" horiz-adv-x="55" 
d="M40 730q0 -32 -22.5 -54.5t-52.5 -22.5q-31 0 -53 22.5t-22 54.5q0 30 22 52.5t53 22.5q30 0 52.5 -22.5t22.5 -52.5zM-12 731q0 10 -7 17t-17 7t-17.5 -7t-7.5 -17q0 -11 7.5 -18t17.5 -7t17 7t7 18zM-307 869q-97 0 -97 -97t97 -97t97 97t-97 97zM-307 951
q179 0 179 -179t-179 -179t-179 179t179 179z" />
    <glyph glyph-name="u102F.med" 
d="M-46 -287h78v-82h-160v359h82v-277z" />
    </font>
</defs>
</svg>
